<svg width="50" height="50" viewBox="0 0 50 50" fill="none" xmlns="http://www.w3.org/2000/svg">
<path d="M36.3449 9.4273L36.859 8.91558C37.957 7.82281 39.4431 7.20934 40.9922 7.20933H42.9117C42.9117 7.20933 42.9117 16.1734 33.7348 20.6902L30.6699 23.7964C30.6699 23.7964 45.9738 20.6902 45.9738 4.37378H36.3449V9.4273Z" fill="#FCBE00"/>
<path d="M13.6553 9.42734L13.1412 8.91562C12.0432 7.82286 10.5571 7.20939 9.00801 7.20937H7.08809C7.08809 7.20937 7.08809 16.1734 16.2654 20.6902L19.3303 23.7965C19.3303 23.7965 4.02637 20.6902 4.02637 4.375H13.6553V9.42734Z" fill="#FCBE00"/>
<path d="M21.2818 25C18.987 23.8331 17.0598 22.0539 15.7138 19.8593C14.3677 17.6647 13.6552 15.1405 13.6553 12.566V2.46362H36.3451V12.566C36.3451 15.1405 35.6326 17.6648 34.2865 19.8594C32.9403 22.0539 31.0131 23.8331 28.7182 25H21.2818Z" fill="#FFD92E"/>
<path d="M30.1925 37.1765C28.3096 34.7285 27.2867 31.7278 27.2823 28.6394H22.7183C22.7139 31.7278 21.691 34.7285 19.8081 37.1765H30.1925Z" fill="#FFD92E"/>
<path d="M25 7.65625L26.5934 10.8844L30.1562 11.4023L27.5781 13.9152L28.1867 17.4641L25 15.7883L21.8133 17.4641L22.4219 13.9152L19.8438 11.4023L23.4066 10.8844L25 7.65625Z" fill="#E6F8FC"/>
<path d="M28.0634 28.6395H21.9368L21.2817 25H28.7181L28.0634 28.6395Z" fill="#FCBE00"/>
<path d="M15.0962 37.1765H34.9036V47.5363H15.0962V37.1765Z" fill="#0A789B"/>
<path d="M18.5703 40.6499H31.4309V44.0628H18.5703V40.6499Z" fill="#E6F8FC"/>
<path d="M21.6871 14.1539L21.1402 17.3484C21.1186 17.4741 21.1326 17.6034 21.1806 17.7216C21.2287 17.8398 21.3088 17.9421 21.4121 18.0171C21.5153 18.0921 21.6374 18.1366 21.7647 18.1458C21.8919 18.1549 22.0192 18.1282 22.132 18.0687L25 16.5625L27.8687 18.0707C27.9816 18.13 28.1088 18.1565 28.236 18.1474C28.3632 18.1382 28.4853 18.0936 28.5884 18.0186C28.6916 17.9437 28.7718 17.8414 28.8198 17.7233C28.8679 17.6052 28.882 17.476 28.8605 17.3504L28.3137 14.1558L30.6348 11.8937C30.726 11.8046 30.7904 11.6918 30.8209 11.568C30.8514 11.4442 30.8467 11.3143 30.8073 11.1931C30.7679 11.0718 30.6954 10.964 30.5979 10.8818C30.5005 10.7995 30.382 10.7462 30.2559 10.7277L27.0484 10.2617L25.6141 7.35544C25.5576 7.24112 25.4703 7.14487 25.362 7.07757C25.2537 7.01027 25.1287 6.97461 25.0012 6.97461C24.8737 6.97461 24.7487 7.01027 24.6404 7.07757C24.5321 7.14487 24.4448 7.24112 24.3883 7.35544L22.9539 10.2617L19.7465 10.7277C19.6202 10.746 19.5017 10.7993 19.4041 10.8815C19.3066 10.9638 19.234 11.0716 19.1946 11.1929C19.1552 11.3143 19.1505 11.4442 19.1811 11.568C19.2116 11.6919 19.2762 11.8047 19.3676 11.8937L21.6871 14.1539ZM23.5047 11.5625C23.6144 11.5466 23.7186 11.5042 23.8082 11.4391C23.8979 11.374 23.9705 11.288 24.0195 11.1886L25 9.20075L25.9805 11.1871C26.0296 11.2864 26.102 11.3723 26.1916 11.4374C26.2812 11.5025 26.3853 11.5449 26.4949 11.5609L28.6871 11.8797L27.1008 13.4258C27.0217 13.5033 26.9626 13.5988 26.9285 13.7042C26.8945 13.8096 26.8866 13.9217 26.9055 14.0308L27.2801 16.214L25.3191 15.1836C25.2211 15.1318 25.1119 15.1048 25.001 15.1048C24.8901 15.1048 24.7809 15.1318 24.6828 15.1836L22.7223 16.214L23.0965 14.0308C23.1154 13.9218 23.1075 13.8097 23.0735 13.7044C23.0395 13.599 22.9803 13.5035 22.9012 13.4261L21.3125 11.8797L23.5047 11.5625Z" fill="black"/>
<path d="M28.7361 28.7605L29.3338 25.4402C29.8947 25.1392 30.4357 24.8024 30.9533 24.432C32.5494 24.048 46.6564 20.1921 46.6564 4.37339C46.6565 4.2836 46.6389 4.19469 46.6045 4.11173C46.5702 4.02877 46.5198 3.95339 46.4563 3.8899C46.3929 3.82641 46.3175 3.77606 46.2345 3.74173C46.1516 3.70739 46.0626 3.68974 45.9729 3.68979H37.0275V2.46362C37.0275 2.28232 36.9555 2.10845 36.8273 1.98025C36.6991 1.85205 36.5252 1.78003 36.3439 1.78003H13.6553C13.474 1.78013 13.3002 1.85219 13.172 1.98036C13.0438 2.10854 12.9718 2.28235 12.9717 2.46362V3.69019H4.02637C3.84507 3.69019 3.67119 3.76221 3.54299 3.89041C3.41479 4.0186 3.34277 4.19248 3.34277 4.37378C3.34277 8.36597 4.24121 11.932 6.01855 14.9726C6.10998 15.1292 6.25987 15.2431 6.43525 15.2891C6.61062 15.3352 6.79712 15.3097 6.95371 15.2183C7.1103 15.1269 7.22416 14.977 7.27024 14.8016C7.31632 14.6262 7.29084 14.4397 7.19941 14.2832C5.60508 11.4674 4.75173 8.29299 4.71934 5.05737H12.9717V7.86987C11.8351 6.99647 10.4414 6.52384 9.00801 6.52573H7.08809C6.90682 6.52584 6.733 6.59789 6.60483 6.72607C6.47665 6.85424 6.4046 7.02806 6.40449 7.20933C6.59355 10.1652 7.56205 13.0183 9.21149 15.4785C10.8609 17.9387 13.1325 19.9181 15.7951 21.2156C16.0354 21.5429 16.2912 21.8585 16.5592 22.1656C15.2934 21.6416 14.0799 20.9991 12.935 20.2468C12.8601 20.1966 12.776 20.1618 12.6875 20.1442C12.5991 20.1267 12.508 20.1268 12.4196 20.1446C12.3312 20.1624 12.2472 20.1975 12.1725 20.2479C12.0977 20.2983 12.0336 20.3629 11.984 20.4382C11.9343 20.5134 11.9 20.5978 11.8831 20.6863C11.8661 20.7749 11.8669 20.8659 11.8853 20.9542C11.9037 21.0425 11.9393 21.1262 11.9902 21.2006C12.0411 21.2751 12.1062 21.3387 12.1818 21.3878C14.2824 22.7846 16.6046 23.8148 19.0498 24.4347C19.5667 24.8044 20.1067 25.1405 20.6666 25.441L21.2643 28.7613C21.2927 28.919 21.3756 29.0617 21.4986 29.1644C21.6215 29.2672 21.7767 29.3235 21.9369 29.3234H22.0111C21.861 31.9056 20.9805 34.3921 19.4721 36.4933H15.0963C14.915 36.4934 14.7412 36.5655 14.613 36.6936C14.4849 36.8218 14.4128 36.9956 14.4127 37.1769V47.5371C14.4128 47.7183 14.4849 47.8921 14.613 48.0203C14.7412 48.1485 14.915 48.2206 15.0963 48.2207H34.9037C35.085 48.2207 35.2589 48.1486 35.3871 48.0204C35.5153 47.8922 35.5873 47.7184 35.5873 47.5371V45.1953C35.5873 45.014 35.5153 44.8401 35.3871 44.7119C35.2589 44.5837 35.085 44.5117 34.9037 44.5117C34.7224 44.5117 34.5485 44.5837 34.4203 44.7119C34.2921 44.8401 34.2201 45.014 34.2201 45.1953V46.8519H15.7814V37.8597H34.2189V41.5386C34.2189 41.7199 34.291 41.8938 34.4192 42.022C34.5474 42.1502 34.7212 42.2222 34.9025 42.2222C35.0838 42.2222 35.2577 42.1502 35.3859 42.022C35.5141 41.8938 35.5861 41.7199 35.5861 41.5386V37.1761C35.5861 36.9948 35.5141 36.8209 35.3859 36.6927C35.2577 36.5646 35.0838 36.4925 34.9025 36.4925H30.5275C29.0193 34.3912 28.1387 31.9048 27.9885 29.3226H28.0627C28.2231 29.3228 28.3784 29.2666 28.5015 29.1638C28.6246 29.0611 28.7076 28.9183 28.7361 28.7605ZM37.0287 12.566V9.71128L37.3412 9.39878C37.8205 8.91935 38.3898 8.53937 39.0164 8.28067C39.6429 8.02198 40.3145 7.88967 40.9924 7.89136H42.1811C41.9319 10.0662 41.2201 12.1624 40.0936 14.0393C38.9671 15.9162 37.4519 17.5303 35.6498 18.773C36.5586 16.83 37.0293 14.711 37.0287 12.566ZM45.2811 5.05737C44.9842 15.9453 37.6221 20.4871 33.4061 22.2058C33.6861 21.8871 33.9529 21.5582 34.2041 21.2171C36.8669 19.9195 39.1385 17.9398 40.7878 15.4793C42.4371 13.0189 43.4053 10.1654 43.5939 7.20933C43.5939 7.02803 43.5219 6.85415 43.3937 6.72595C43.2655 6.59775 43.0917 6.52573 42.9104 6.52573H40.9924C39.5589 6.52395 38.1651 6.99687 37.0287 7.87065V5.05815L45.2811 5.05737ZM14.3389 3.14722H35.6615V12.566C35.6678 14.9893 35.0069 17.3676 33.7513 19.4403C32.4956 21.5129 30.6936 23.1999 28.5428 24.3164H21.4576C19.307 23.1996 17.5052 21.5126 16.2495 19.44C14.9939 17.3674 14.3329 14.9892 14.3389 12.566V3.14722ZM27.492 27.9554H22.5088L22.0998 25.6835H27.901L27.492 27.9554ZM7.8127 7.89292H9.00801C9.6859 7.89123 10.3574 8.02354 10.984 8.28223C11.6106 8.54093 12.1799 8.92091 12.6592 9.40034L12.9717 9.71284V12.5671C12.9711 14.7154 13.4431 16.8376 14.3541 18.7832C12.5375 17.5528 11.0111 15.941 9.88129 14.0601C8.75152 12.1792 8.04559 10.0746 7.8127 7.89292ZM28.8674 36.4925H21.133C22.4801 34.3327 23.2537 31.8649 23.3807 29.3226H26.6229C26.749 31.8646 27.5215 34.3324 28.8674 36.4925Z" fill="black"/>
<path d="M18.5703 39.9663C18.389 39.9663 18.2151 40.0384 18.0869 40.1666C17.9587 40.2947 17.8867 40.4686 17.8867 40.6499V44.0624C17.8867 44.2437 17.9587 44.4176 18.0869 44.5458C18.2151 44.674 18.389 44.746 18.5703 44.746H31.4305C31.6118 44.746 31.7856 44.674 31.9138 44.5458C32.042 44.4176 32.1141 44.2437 32.1141 44.0624V40.6495C32.1141 40.4682 32.042 40.2944 31.9138 40.1662C31.7856 40.038 31.6118 39.9659 31.4305 39.9659L18.5703 39.9663ZM30.7469 43.3792H19.2539V41.3335H30.7469V43.3792Z" fill="black"/>
<path d="M9.20649 17.0437C9.14721 16.9751 9.0749 16.9191 8.99375 16.8787C8.91261 16.8384 8.82426 16.8146 8.73383 16.8087C8.64341 16.8028 8.55272 16.815 8.46703 16.8444C8.38134 16.8739 8.30238 16.9202 8.23472 16.9804C8.16706 17.0407 8.11206 17.1138 8.07292 17.1956C8.03378 17.2773 8.01128 17.366 8.00672 17.4565C8.00217 17.547 8.01566 17.6375 8.0464 17.7227C8.07714 17.808 8.12452 17.8863 8.18579 17.953C8.57836 18.3941 8.99985 18.8249 9.43774 19.2335C9.50298 19.2967 9.58017 19.3462 9.66477 19.3792C9.74938 19.4123 9.83972 19.4281 9.93052 19.4258C10.0213 19.4235 10.1107 19.4031 10.1936 19.3659C10.2764 19.3287 10.351 19.2753 10.413 19.2089C10.4749 19.1425 10.5231 19.0644 10.5545 18.9792C10.586 18.894 10.6002 18.8034 10.5962 18.7127C10.5923 18.622 10.5703 18.5329 10.5315 18.4508C10.4928 18.3686 10.4381 18.295 10.3706 18.2343C9.96313 17.8538 9.57055 17.4534 9.20649 17.0437Z" fill="black"/>
</svg>