<svg width="60" height="60" viewBox="0 0 60 60" fill="none" xmlns="http://www.w3.org/2000/svg">
<path fill-rule="evenodd" clip-rule="evenodd" d="M42.1676 1.875H10.4127L1.875 10.4127V53.2094C1.875 53.8549 2.40141 54.3813 3.04688 54.3813H42.1676C42.813 54.3813 43.3395 53.8549 43.3395 53.2094V3.04688C43.3395 2.40141 42.813 1.875 42.1676 1.875Z" fill="#F4F6F8"/>
<path fill-rule="evenodd" clip-rule="evenodd" d="M10.4127 9.24082V1.875L1.875 10.4127H9.24082C9.88629 10.4127 10.4127 9.88629 10.4127 9.24082Z" fill="#E4E8EB"/>
<path fill-rule="evenodd" clip-rule="evenodd" d="M29.8913 16.489C28.356 16.489 27.5856 18.349 28.6712 19.4346C28.8712 19.6346 28.8712 19.9589 28.6712 20.159L27.5686 21.2615C27.3687 21.4614 27.0443 21.4614 26.8443 21.2615C25.7587 20.176 23.8987 20.9462 23.8987 22.4816C23.8987 22.7645 23.6693 22.9937 23.3866 22.9937H21.8274C21.5446 22.9937 21.3153 22.7645 21.3153 22.4816C21.3153 20.9444 19.4567 20.1746 18.3696 21.2615C18.1697 21.4614 17.8454 21.4614 17.6453 21.2615L16.5427 20.159C16.3428 19.959 16.3428 19.6346 16.5427 19.4346C17.6283 18.349 16.8579 16.489 15.3227 16.489C15.0398 16.489 14.8105 16.2597 14.8105 15.9769V14.4177C14.8105 14.1349 15.0398 13.9056 15.3227 13.9056C16.8579 13.9056 17.6283 12.0456 16.5427 10.96C16.3428 10.7599 16.3428 10.4357 16.5427 10.2356L17.6453 9.13303C17.8452 8.93299 18.1696 8.93299 18.3696 9.13303C19.4553 10.2187 21.3153 9.44826 21.3153 7.91299C21.3153 7.6301 21.5446 7.40088 21.8274 7.40088H23.3866C23.6693 7.40088 23.8987 7.6301 23.8987 7.91299C23.8987 9.44826 25.7587 10.2187 26.8443 9.13303C27.0442 8.93299 27.3687 8.93299 27.5686 9.13303L28.6712 10.2356C28.8712 10.4356 28.8712 10.7599 28.6712 10.96C27.5856 12.0456 28.356 13.9056 29.8913 13.9056C30.1742 13.9056 30.4034 14.1349 30.4034 14.4177V15.9769C30.4034 16.2597 30.1743 16.489 29.8913 16.489ZM22.607 11.4512C20.5382 11.4512 18.861 13.1284 18.861 15.1972C18.861 17.2661 20.5382 18.9433 22.607 18.9433C24.6759 18.9433 26.353 17.2661 26.353 15.1972C26.353 13.1284 24.6759 11.4512 22.607 11.4512Z" fill="#FDCD56"/>
<path fill-rule="evenodd" clip-rule="evenodd" d="M42.9258 45.0791L45.0694 42.9355L49.2071 47.0732L47.0635 49.2168L42.9258 45.0791Z" fill="#A9B0BB"/>
<path d="M44.9023 44.9103C49.1383 40.6742 49.1383 33.8062 44.9023 29.5702C40.6662 25.3341 33.7982 25.3341 29.5622 29.5702C25.3261 33.8062 25.3261 40.6742 29.5622 44.9103C33.7982 49.1464 40.6662 49.1464 44.9023 44.9103Z" fill="#A9B0BB"/>
<path d="M44.7043 39.0232C45.6787 34.9009 43.1269 30.7691 39.0046 29.7947C34.8823 28.8203 30.7505 31.3721 29.7761 35.4944C28.8017 39.6167 31.3535 43.7484 35.4758 44.7229C39.5981 45.6973 43.7298 43.1455 44.7043 39.0232Z" fill="#A4D4FF"/>
<path fill-rule="evenodd" clip-rule="evenodd" d="M46.5846 48.2229L48.2229 46.5846C48.764 46.0434 49.6494 46.0434 50.1906 46.5846L57.7189 54.113C58.2601 54.6541 58.2601 55.5395 57.7189 56.0806L56.0806 57.7189C55.5395 58.2601 54.6541 58.2601 54.113 57.7189L46.5846 50.1906C46.0434 49.6494 46.0434 48.7639 46.5846 48.2229Z" fill="#937661"/>
<path fill-rule="evenodd" clip-rule="evenodd" d="M57.1393 55.5016L55.5011 57.1399C55.3946 57.2463 55.2502 57.3048 55.0969 57.3048C54.9436 57.3048 54.8003 57.2463 54.6937 57.1399L47.1646 49.6118C47.0576 49.5037 46.9991 49.3609 46.9991 49.207C46.9991 49.0538 47.0576 48.9109 47.1646 48.8029L48.804 47.1646C48.9143 47.0537 49.0604 46.9986 49.2071 46.9986C49.3533 46.9986 49.5 47.0538 49.6113 47.1646L57.1395 54.6937C57.2459 54.8007 57.3049 54.9436 57.3049 55.0973C57.3048 55.2506 57.2457 55.3946 57.1393 55.5016ZM2.6952 53.5606V11.2341H10.4129C10.8656 11.2341 11.2335 10.8662 11.2335 10.4135V2.69566H42.5193V26.835C40.9334 26.0277 39.139 25.5716 37.2394 25.5716C34.5655 25.5716 32.0973 26.4765 30.1276 27.9962H7.51195C7.05926 27.9962 6.69141 28.3641 6.69141 28.8168C6.69141 29.27 7.05926 29.6367 7.51195 29.6367H28.3957C27.3573 30.8427 26.5616 32.2621 26.0836 33.8193H7.51195C7.05926 33.8193 6.69141 34.187 6.69141 34.6392C6.69141 35.0931 7.05926 35.4598 7.51195 35.4598H25.7062C25.617 36.041 25.5711 36.6354 25.5711 37.2403C25.5711 38.0636 25.6566 38.8676 25.8198 39.6423H7.51195C7.05926 39.6423 6.69141 40.01 6.69141 40.4629C6.69141 40.9161 7.05926 41.2828 7.51195 41.2828H26.2936C27.9424 45.7313 32.2264 48.9096 37.2395 48.9096C39.1392 48.9096 40.9335 48.4536 42.5194 47.6452V53.5603H2.6952V53.5606ZM9.59297 3.85594L3.85547 9.59297H9.59297V3.85594ZM47.2687 37.2404C47.2687 31.7113 42.7697 27.2121 37.2394 27.2121C31.7108 27.2121 27.2122 31.7112 27.2122 37.2404C27.2122 42.7702 31.7108 47.2692 37.2394 47.2692C42.7697 47.2693 47.2687 42.7702 47.2687 37.2404ZM47.3156 46.333L45.9641 44.9803C45.6564 45.3282 45.3278 45.6564 44.9798 45.9646L46.3324 47.3156L47.3156 46.333ZM58.2996 53.5341L50.7715 46.0043C50.2151 45.4489 49.4343 45.2532 48.718 45.4154L46.9733 43.6702C48.1958 41.8245 48.9094 39.6144 48.9094 37.2404C48.9094 33.3942 47.0389 29.9781 44.1599 27.8512V1.87523C44.1599 1.42195 43.7926 1.05469 43.3393 1.05469H10.4129C10.1951 1.05469 9.98672 1.14176 9.83285 1.29516L1.29516 9.83344C1.14129 9.98672 1.05469 10.1957 1.05469 10.4135V54.3811C1.05469 54.835 1.42242 55.2016 1.87523 55.2016H43.3393C43.7926 55.2016 44.1599 54.835 44.1599 54.3811V47.4634L45.415 48.7185C45.3785 48.8767 45.3587 49.0411 45.3587 49.207C45.3587 49.7993 45.588 50.3545 46.0056 50.772L53.5337 58.3001C53.9495 58.7159 54.5053 58.9458 55.097 58.9458C55.6887 58.9458 56.2445 58.7159 56.6614 58.3001L58.2997 56.6618C58.7161 56.2444 58.9454 55.6891 58.9454 55.0973C58.9453 54.5052 58.7159 53.9498 58.2996 53.5341ZM44.092 37.2404C44.092 33.4631 41.0177 30.3895 37.2394 30.3895C33.4627 30.3895 30.3889 33.4631 30.3889 37.2404C30.3889 41.0183 33.4625 44.0909 37.2394 44.0909C41.0177 44.0909 44.092 41.0183 44.092 37.2404ZM28.7486 37.2404C28.7486 41.9227 32.5583 45.7314 37.2394 45.7314C41.9227 45.7314 45.7324 41.9227 45.7324 37.2404C45.7324 32.5583 41.9227 28.7484 37.2394 28.7484C32.5583 28.7484 28.7486 32.5583 28.7486 37.2404ZM22.6078 12.2723C20.9944 12.2723 19.6814 13.5847 19.6814 15.1971C19.6814 16.8105 20.9944 18.1235 22.6078 18.1235C24.2202 18.1235 25.5326 16.8105 25.5326 15.1971C25.5326 13.5848 24.2202 12.2723 22.6078 12.2723ZM22.6078 19.7641C25.1251 19.7641 27.1731 17.7156 27.1731 15.1972C27.1731 12.6799 25.1251 10.6314 22.6078 10.6314C20.0895 10.6314 18.0409 12.6799 18.0409 15.1972C18.0409 17.7156 20.0895 19.7641 22.6078 19.7641ZM15.6318 14.7086V15.6867C16.5455 15.7925 17.312 16.3677 17.6742 17.2406C18.0354 18.114 17.9003 19.0631 17.3285 19.7849L18.02 20.4764C18.7418 19.9045 19.6909 19.7684 20.5638 20.1295C21.4372 20.4913 22.0124 21.2578 22.1177 22.1732H23.0965C23.2018 21.2595 23.7776 20.4929 24.6504 20.1307C25.5233 19.7695 26.4729 19.9046 27.1946 20.4764L27.8862 19.7849C27.3138 19.0631 27.1793 18.114 27.5415 17.2406C27.9021 16.3677 28.6686 15.7925 29.584 15.6867V14.7086C28.6686 14.6032 27.9021 14.0276 27.5415 13.1546C27.1792 12.2817 27.3138 11.3321 27.8862 10.6104L27.1946 9.91887C26.4728 10.4912 25.525 10.6257 24.6504 10.2635C23.7775 9.90281 23.2018 9.13582 23.0965 8.22211H22.1177C22.0125 9.13582 21.4372 9.90281 20.5638 10.2635C19.6909 10.6257 18.7419 10.4912 18.02 9.91887L17.3285 10.6104C17.9003 11.3323 18.0354 12.2801 17.6742 13.1546C17.3119 14.0276 16.5455 14.6033 15.6318 14.7086ZM15.3234 17.3102C15.8827 17.3102 16.1038 17.7376 16.1577 17.8687C16.2129 18 16.359 18.4594 15.963 18.8546C15.7111 19.1066 15.5732 19.4414 15.5732 19.7965C15.5732 20.1527 15.711 20.488 15.963 20.7389L17.0659 21.8418C17.5853 22.3607 18.4301 22.3607 18.9502 21.8418C19.3466 21.4458 19.8054 21.5919 19.9356 21.6459C20.0674 21.6994 20.4947 21.9211 20.4947 22.4814C20.4947 23.2159 21.0925 23.8136 21.8269 23.8136H23.3869C24.1214 23.8136 24.7191 23.2158 24.7191 22.4814C24.7191 21.9221 25.147 21.7011 25.2783 21.6471C25.4095 21.5919 25.8688 21.4459 26.2654 21.8418C26.7843 22.3617 27.6291 22.3607 28.1484 21.8418L29.2507 20.7389C29.5028 20.488 29.6412 20.1527 29.6412 19.7965C29.6412 19.4414 29.5028 19.1066 29.2507 18.8546C28.8559 18.4593 29.0026 17.9999 29.0566 17.8687C29.1101 17.7375 29.3318 17.3102 29.8921 17.3102C30.6254 17.3102 31.2244 16.7125 31.2244 15.9779V14.4179C31.2244 13.6829 30.6255 13.0857 29.8921 13.0857C29.3318 13.0857 29.1101 12.6578 29.0566 12.5265C29.0026 12.3953 28.8559 11.936 29.2507 11.5405C29.5028 11.289 29.6412 10.9538 29.6412 10.5987C29.6412 10.2424 29.5028 9.90715 29.2507 9.65625L28.1484 8.55398C27.6291 8.03449 26.7841 8.03344 26.2642 8.55398C25.8688 8.94879 25.4094 8.80219 25.2783 8.74805C25.147 8.69402 24.7191 8.47289 24.7191 7.91379C24.7191 7.17926 24.1213 6.58148 23.3869 6.58148H21.8269C21.0923 6.58148 20.4947 7.17926 20.4947 7.91379C20.4947 8.47289 20.0673 8.69402 19.9356 8.74805C19.8049 8.80207 19.345 8.94879 18.9502 8.55398C18.4302 8.03344 17.5854 8.03344 17.0659 8.55398L15.963 9.65625C15.7111 9.90715 15.5732 10.2424 15.5732 10.5987C15.5732 10.9538 15.711 11.289 15.963 11.5405C16.359 11.9359 16.2129 12.3953 16.1577 12.5265C16.1037 12.6578 15.8825 13.0857 15.3234 13.0857C14.5889 13.0857 13.9913 13.6829 13.9913 14.4179V15.9779C13.9913 16.7125 14.5889 17.3102 15.3234 17.3102Z" fill="black"/>
</svg>