<svg width="60" height="60" viewBox="0 0 60 60" fill="none" xmlns="http://www.w3.org/2000/svg">
<path fill-rule="evenodd" clip-rule="evenodd" d="M45.5642 1.87354L58.1249 9.12557V23.6295L45.5642 30.8814L33.0034 23.6295V9.12557L45.5642 1.87354Z" fill="#937661"/>
<path fill-rule="evenodd" clip-rule="evenodd" d="M33.0034 9.12549V23.6294L45.5642 30.8813V16.3774L33.0034 9.12549Z" fill="#D5A889"/>
<path fill-rule="evenodd" clip-rule="evenodd" d="M45.5642 1.87354L58.1249 9.12557L45.5642 16.3775L33.0034 9.12557L45.5642 1.87354Z" fill="#E8BF9D"/>
<path fill-rule="evenodd" clip-rule="evenodd" d="M37.5366 17.7859L41.0308 19.8033V13.76L37.5366 11.7426V17.7859ZM50.0974 4.49072L53.5915 6.50811L41.0308 13.76L37.5367 11.7426L50.0974 4.49072Z" fill="#EFC7A4"/>
<path fill-rule="evenodd" clip-rule="evenodd" d="M37.5366 11.7427V17.7859L41.0308 19.8033V13.7601L37.5366 11.7427Z" fill="#E4BB99"/>
<path fill-rule="evenodd" clip-rule="evenodd" d="M39.5913 38.7853C36.3013 38.7853 34.6505 42.7712 36.9768 45.0976C37.4053 45.5262 37.4053 46.2212 36.9768 46.6498L34.614 49.0125C34.1856 49.4411 33.4904 49.4411 33.0619 49.0125C30.7356 46.6862 26.7497 48.3369 26.7497 51.6271C26.7497 52.2334 26.2582 52.7245 25.6522 52.7245H22.311C21.705 52.7245 21.2135 52.2334 21.2135 51.6271C21.2135 48.3329 17.2305 46.6832 14.9013 49.0125C14.4728 49.4411 13.7777 49.4411 13.3492 49.0125L10.9864 46.6498C10.5579 46.2212 10.5579 45.5262 10.9864 45.0976C13.3127 42.7713 11.662 38.7853 8.37188 38.7853C7.76555 38.7853 7.27441 38.2938 7.27441 37.6879V34.3466C7.27441 33.7406 7.76555 33.2492 8.37188 33.2492C11.662 33.2492 13.3127 29.2633 10.9864 26.937C10.5579 26.5085 10.5579 25.8134 10.9864 25.3848L13.3492 23.0221C13.7776 22.5937 14.4728 22.5937 14.9013 23.0221C17.2276 25.3484 21.2135 23.6977 21.2135 20.4075C21.2135 19.8012 21.705 19.3101 22.311 19.3101H25.6522C26.2582 19.3101 26.7497 19.8012 26.7497 20.4075C26.7497 23.6977 30.7356 25.3484 33.0619 23.0221C33.4904 22.5937 34.1855 22.5937 34.614 23.0221L36.9768 25.3848C37.4053 25.8134 37.4053 26.5084 36.9768 26.937C34.6505 29.2633 36.3013 33.2492 39.5913 33.2492C40.1977 33.2492 40.6888 33.7406 40.6888 34.3466V37.6879C40.6888 38.294 40.1978 38.7853 39.5913 38.7853ZM23.9817 27.9897C19.5482 27.9897 15.9541 31.5838 15.9541 36.0172C15.9541 40.4507 19.5483 44.0448 23.9817 44.0448C28.4152 44.0448 32.0093 40.4507 32.0093 36.0172C32.0093 31.5838 28.4152 27.9897 23.9817 27.9897Z" fill="#FDCD56"/>
<path fill-rule="evenodd" clip-rule="evenodd" d="M35.4203 31.2805C34.7073 29.5601 35.0811 27.6736 36.3963 26.3584C36.468 26.2873 36.4785 26.2051 36.4785 26.1616C36.4785 26.1196 36.4679 26.0364 36.3963 25.9659L34.0335 23.6036C33.9634 23.5335 33.8802 23.5225 33.8377 23.5225C33.7946 23.5225 33.7125 23.5335 33.6424 23.6036C32.3262 24.9188 30.4409 25.2932 28.7193 24.5796C26.9977 23.8671 25.929 22.2692 25.929 20.4092C25.929 20.2553 25.8045 20.1312 25.6522 20.1312H22.31C22.1578 20.1312 22.0338 20.2553 22.0338 20.4092C22.0338 22.2692 20.9646 23.8671 19.2436 24.5796C17.5232 25.2932 15.6367 24.9188 14.3216 23.6036C14.2505 23.5335 14.1683 23.5225 14.1247 23.5225C14.0828 23.5225 13.9996 23.5335 13.9289 23.6036L11.5665 25.9659C11.4585 26.0739 11.4585 26.2498 11.5665 26.3584C12.8811 27.6736 13.2561 29.56 12.5426 31.2805C11.8302 33.0021 10.2315 34.0708 8.37211 34.0708C8.21824 34.0708 8.09426 34.1949 8.09426 34.3476V37.6893C8.09426 37.842 8.21836 37.9661 8.37211 37.9661C10.2315 37.9661 11.8301 39.0347 12.5426 40.7563C13.2561 42.4779 12.8811 44.3632 11.5665 45.6795C11.4585 45.7875 11.4585 45.9628 11.5665 46.071L13.9289 48.4334C13.9995 48.5051 14.0828 48.5155 14.1247 48.5155C14.1683 48.5155 14.2505 48.5051 14.3216 48.4334C15.1972 47.5582 16.3243 47.0984 17.4868 47.0984C18.073 47.0984 18.668 47.2158 19.2448 47.4546C20.9646 48.1676 22.0339 49.7657 22.0339 51.6278C22.0339 51.7817 22.158 51.9057 22.3102 51.9057H25.6523C25.8046 51.9057 25.9291 51.7816 25.9291 51.6278C25.9291 49.7684 26.9978 48.1698 28.7194 47.4573C30.4409 46.7448 32.3263 47.1188 33.6425 48.4334C33.7126 48.5051 33.7948 48.5155 33.8378 48.5155C33.8802 48.5155 33.9635 48.5051 34.0336 48.4334L36.3964 46.071C36.4682 46.0005 36.4786 45.9171 36.4786 45.8753C36.4786 45.8317 36.468 45.7496 36.3964 45.6795C35.0812 44.3632 34.7074 42.4779 35.4204 40.7563C36.1328 39.0347 37.7309 37.9661 39.5909 37.9661C39.7441 37.9661 39.8687 37.842 39.8687 37.6893V34.3476C39.8687 34.1949 39.7441 34.0708 39.5909 34.0708C37.7307 34.0708 36.1327 33.002 35.4203 31.2805ZM37.5565 27.5187C36.5557 28.5184 36.58 29.7933 36.935 30.6525C37.2913 31.5128 38.1763 32.4304 39.5907 32.4304C40.6489 32.4304 41.5092 33.2907 41.5092 34.3477V37.6894C41.5092 38.747 40.6489 39.6067 39.5907 39.6067C38.1763 39.6067 37.2913 40.5255 36.935 41.3844C36.58 42.2435 36.5557 43.5185 37.5565 44.5193C37.9182 44.8815 38.119 45.363 38.119 45.8753C38.119 46.3875 37.9182 46.8689 37.5565 47.2313L35.1936 49.5935C34.8319 49.9559 34.35 50.156 33.8377 50.156C33.3259 50.156 32.844 49.9559 32.4823 49.5935C31.4815 48.5928 30.2065 48.6175 29.3474 48.9727C28.4883 49.3284 27.5695 50.2135 27.5695 51.6278C27.5695 52.686 26.7093 53.5462 25.6522 53.5462H22.31C21.2535 53.5462 20.3927 52.6859 20.3927 51.6278C20.3927 50.2111 19.4757 49.3267 18.6165 48.9699C17.7585 48.6148 16.4836 48.5916 15.4816 49.5935C15.1182 49.9559 14.6379 50.156 14.1246 50.156C13.6123 50.156 13.1309 49.9559 12.7686 49.5935L10.4064 47.2312C9.65859 46.4834 9.65859 45.267 10.4064 44.5192C11.4071 43.5184 11.3835 42.2434 11.0272 41.3843C10.671 40.5252 9.78656 39.6066 8.37211 39.6066C7.31508 39.6066 6.45375 38.7469 6.45375 37.6893V34.3476C6.45375 33.2905 7.31508 32.4303 8.37211 32.4303C9.78656 32.4303 10.671 31.5127 11.0272 30.6524C11.3835 29.7933 11.4071 28.5184 10.4064 27.5175C9.65859 26.7708 9.65859 25.5534 10.4064 24.8056L12.7686 22.4432C13.1309 22.081 13.6123 21.8819 14.1246 21.8819C14.638 21.8819 15.1182 22.081 15.4816 22.4432C16.4814 23.444 17.7563 23.4209 18.6155 23.0646C19.4757 22.7079 20.3927 21.8234 20.3927 20.4089C20.3927 19.3518 21.2535 18.4905 22.31 18.4905H25.6522C26.7093 18.4905 27.5695 19.3518 27.5695 20.4089C27.5695 21.8234 28.4883 22.7078 29.3474 23.0646C30.2065 23.4209 31.4814 23.444 32.4823 22.4432C32.844 22.081 33.3259 21.8819 33.8377 21.8819C34.3499 21.8819 34.8319 22.081 35.1936 22.4432L37.5565 24.8056C37.9182 25.1678 38.119 25.6492 38.119 26.1616C38.119 26.6751 37.9182 27.1569 37.5565 27.5187ZM57.3048 23.1574V10.548L46.3843 16.8524V29.4619L57.3048 23.1574ZM45.5638 15.432L42.6715 13.7611L53.5925 7.45667L56.4843 9.12636L45.5638 15.432ZM40.2105 14.2359L38.3566 13.1644V17.3139L40.2105 18.3842V14.2359ZM34.6439 9.12636L45.5639 2.82132L48.4573 4.49265L37.5362 10.7971L34.6439 9.12636ZM41.0311 12.8142L39.1772 11.744L50.0977 5.43952L51.9505 6.50933L41.0311 12.8142ZM58.9453 9.12753V23.6307C58.9453 23.9235 58.7898 24.1953 58.535 24.342L45.9741 31.5933C45.8473 31.6673 45.7055 31.7036 45.5638 31.7036C45.422 31.7036 45.2815 31.6673 45.1535 31.5933L39.8449 28.5279C39.4523 28.3019 39.3177 27.8001 39.5439 27.4075C39.7711 27.0154 40.2729 26.8814 40.6655 27.1075L44.7432 29.462V16.8524L41.8511 15.1827V19.8042C41.8511 20.0987 41.6945 20.3694 41.4414 20.5156C41.3134 20.5884 41.1728 20.6248 41.0311 20.6248C40.8888 20.6248 40.7472 20.5885 40.6208 20.5156L37.1264 18.498C36.8722 18.3512 36.7161 18.0805 36.7161 17.7877V12.2176L33.8238 10.548V19.501C33.8238 19.9542 33.456 20.3215 33.0033 20.3215C32.55 20.3215 32.1833 19.9542 32.1833 19.501V9.12753C32.1833 8.83304 32.3388 8.5628 32.5936 8.4162L45.1535 1.16429C45.4077 1.01815 45.7209 1.01815 45.9741 1.16429L58.535 8.41608C58.7898 8.5628 58.9453 8.83304 58.9453 9.12753ZM31.1886 36.0184C31.1886 39.9926 27.9551 43.2256 23.9815 43.2256C20.0079 43.2256 16.7743 39.9925 16.7743 36.0184C16.7743 32.0448 20.0079 28.8113 23.9815 28.8113C27.9551 28.8113 31.1886 32.0448 31.1886 36.0184ZM32.8291 36.0184C32.8291 40.8969 28.86 44.8661 23.9815 44.8661C19.103 44.8661 15.1338 40.8969 15.1338 36.0184C15.1338 31.1399 19.103 27.1708 23.9815 27.1708C28.8599 27.1708 32.8291 31.1399 32.8291 36.0184ZM29.8349 56.4901C30.2694 56.3655 30.7243 56.6175 30.8484 57.0537C30.9731 57.4893 30.7211 57.9432 30.2849 58.0673C28.2435 58.6496 26.1238 58.9451 23.9815 58.9451C11.3394 58.9451 1.05469 48.6605 1.05469 36.0184C1.05469 27.4928 5.7716 19.7315 13.212 15.7732L11.7115 15.2445C11.2841 15.0945 11.0603 14.6257 11.2103 14.1983C11.3613 13.7716 11.8301 13.5466 12.2569 13.6966L15.6366 14.8871C16.0639 15.0371 16.2878 15.5058 16.1378 15.9337L14.9483 19.3134C14.7973 19.7413 14.3285 19.9646 13.9017 19.8151C13.4739 19.6635 13.2505 19.1959 13.4005 18.7685L13.9359 17.246C7.05469 20.929 2.69508 28.1213 2.69508 36.0183C2.6952 47.7562 12.2437 57.3046 23.9815 57.3046C25.971 57.3046 27.9402 57.03 29.8349 56.4901ZM45.9702 33.5855C46.4241 33.5519 46.8156 33.8926 46.848 34.3437C46.8878 34.8979 46.9076 35.462 46.9076 36.0184C46.9076 44.5441 42.1912 52.3054 34.7508 56.2635L36.2507 56.7923C36.6785 56.9433 36.9025 57.411 36.7525 57.8389C36.6339 58.1764 36.3163 58.3869 35.9788 58.3869C35.8879 58.3869 35.7962 58.3715 35.7059 58.3401L32.3262 57.1496C31.8983 56.9996 31.6744 56.5308 31.825 56.1041L33.0155 52.7233C33.1655 52.2971 33.6342 52.0715 34.0604 52.2221C34.4884 52.3731 34.7134 52.8408 34.5622 53.2682L34.0268 54.7907C40.908 51.1077 45.2671 43.9155 45.2671 36.0184C45.2671 35.5006 45.2483 34.9779 45.2108 34.4623C45.1784 34.0112 45.5181 33.6175 45.9702 33.5855ZM17.1139 14.9836C17.2171 15.3442 17.5452 15.5786 17.9031 15.5786C17.9781 15.5786 18.0531 15.5682 18.1291 15.5472C20.0228 15.0068 21.9914 14.7321 23.9815 14.7321C25.8552 14.7321 27.7146 14.9775 29.509 15.4589C29.9463 15.5764 30.3962 15.3161 30.5142 14.8789C30.6316 14.4416 30.3714 13.9916 29.9341 13.8747C28.0009 13.3558 25.998 13.0916 23.9815 13.0916C21.8392 13.0916 19.7189 13.3872 17.6781 13.9695C17.243 14.0936 16.9898 14.5475 17.1139 14.9836Z" fill="black"/>
</svg>