<svg width="60" height="60" viewBox="0 0 60 60" fill="none" xmlns="http://www.w3.org/2000/svg">
<g clip-path="url(#clip0_439_106120)">
<path fill-rule="evenodd" clip-rule="evenodd" d="M15.9525 1.875H39.1744L44.8404 8.02734V39.1547C44.8398 39.3648 44.756 39.5661 44.6073 39.7146C44.4586 39.863 44.2572 39.9466 44.0471 39.9469H15.9525C15.7424 39.9466 15.541 39.863 15.3923 39.7146C15.2436 39.5661 15.1598 39.3648 15.1592 39.1547V2.66719C15.1598 2.45707 15.2436 2.25576 15.3923 2.1073C15.541 1.95883 15.7424 1.87531 15.9525 1.875Z" fill="#F4F4F4"/>
<path fill-rule="evenodd" clip-rule="evenodd" d="M39.1744 1.875L44.8404 8.02734H39.567C39.4618 8.02703 39.3611 7.98504 39.2868 7.91057C39.2126 7.83611 39.1709 7.73524 39.1709 7.63008L39.1744 1.875Z" fill="#E7E7E7"/>
<path d="M23.9545 11.1387H18.8428C18.5192 11.1387 18.2568 11.401 18.2568 11.7246V16.8363C18.2568 17.1599 18.5192 17.4223 18.8428 17.4223H23.9545C24.2781 17.4223 24.5404 17.1599 24.5404 16.8363V11.7246C24.5404 11.401 24.2781 11.1387 23.9545 11.1387Z" fill="#8AC9FE"/>
<path fill-rule="evenodd" clip-rule="evenodd" d="M10.2938 20.3627L1.92656 34.8564C1.87555 34.9449 1.86171 35.0499 1.88807 35.1486C1.91444 35.2472 1.97885 35.3314 2.06719 35.3826L8.98125 39.3763L17.734 24.2158L10.8199 20.222C10.7314 20.1713 10.6264 20.1577 10.5279 20.184C10.4293 20.2104 10.3452 20.2746 10.2938 20.3627Z" fill="#737373"/>
<path fill-rule="evenodd" clip-rule="evenodd" d="M42.2622 22.29L51.0149 37.4506L57.929 33.4568C58.0173 33.4056 58.0818 33.3214 58.1081 33.2228C58.1345 33.1242 58.1206 33.0191 58.0696 32.9306L49.7024 18.4369C49.651 18.3488 49.5669 18.2846 49.4683 18.2582C49.3698 18.2319 49.2648 18.2456 49.1763 18.2963L42.2622 22.29Z" fill="#737373"/>
<path fill-rule="evenodd" clip-rule="evenodd" d="M25.2528 31.6509L26.5419 26.8205C26.6643 26.3617 26.8923 25.938 27.2075 25.583L26.6603 25.2666C24.1677 24.4111 20.8313 23.6939 17.7329 24.2119L8.98486 39.3748C10.3008 40.5216 11.4185 41.8777 12.2931 43.3884L13.0981 41.9951C13.4503 41.3991 14.0234 40.9661 14.693 40.7903C15.3625 40.6145 16.0744 40.71 16.674 41.0562C17.2735 41.4023 17.7122 41.9711 17.8946 42.6389C18.0771 43.3067 17.9887 44.0195 17.6485 44.6224C18.0007 44.0264 18.5738 43.5934 19.2434 43.4176C19.9129 43.2418 20.6248 43.3373 21.2244 43.6835C21.8239 44.0297 22.2625 44.5984 22.445 45.2662C22.6275 45.934 22.5391 46.6468 22.1989 47.2498C22.551 46.6537 23.1242 46.2208 23.7937 46.045C24.4633 45.8691 25.1752 45.9647 25.7747 46.3108C26.3743 46.657 26.8129 47.2258 26.9954 47.8936C27.1779 48.5613 27.0895 49.2742 26.7493 49.8771C26.9199 49.5747 27.1488 49.3091 27.4227 49.0956C27.6966 48.8822 28.0101 48.7252 28.345 48.6337C28.68 48.5421 29.0298 48.5179 29.3741 48.5624C29.7185 48.6068 30.0507 48.7191 30.3514 48.8928C30.6521 49.0664 30.9154 49.2979 31.1261 49.5739C31.3368 49.8499 31.4906 50.165 31.5788 50.5008C31.667 50.8367 31.6877 51.1867 31.6398 51.5306C31.5919 51.8745 31.4763 52.2055 31.2997 52.5045L29.6298 55.3966L33.6411 57.7134C34.348 58.1214 35.188 58.2318 35.9764 58.0203C36.7647 57.8089 37.4367 57.293 37.8446 56.5861C38.2526 55.8792 38.363 55.0392 38.1515 54.2509C37.9401 53.4625 37.4242 52.7905 36.7173 52.3826C37.4225 52.775 38.2536 52.8747 39.0315 52.6603C39.8095 52.4458 40.4721 51.9343 40.8766 51.236C41.2811 50.5377 41.3951 49.7084 41.194 48.9269C40.993 48.1453 40.4929 47.474 39.8017 47.0576C40.5089 47.4646 41.3488 47.574 42.1367 47.3617C42.9246 47.1494 43.5958 46.6328 44.0028 45.9256C44.4098 45.2183 44.5192 44.3784 44.3069 43.5905C44.0946 42.8026 43.578 42.1314 42.8708 41.7244C43.578 42.1298 44.4169 42.239 45.2042 42.028C45.9916 41.817 46.6635 41.303 47.0732 40.5982C47.2184 40.3478 47.3269 40.0779 47.3954 39.7966C47.5524 39.1497 47.4962 38.4694 47.2352 37.857C46.9742 37.2447 46.5223 36.733 45.947 36.3982L44.0896 35.3259L40.7485 33.3982L33.4829 29.2064L32.0521 29.5486C30.7173 29.8673 29.8642 32.5474 27.5649 35.7267C27.0013 36.506 26.6146 37.2619 25.779 36.0302C25.3647 35.3721 25.0902 34.6357 24.9728 33.867C24.831 32.9552 25.0255 32.4959 25.2528 31.6509Z" fill="#FFECC6"/>
<path fill-rule="evenodd" clip-rule="evenodd" d="M39.6189 51.5768C39.85 51.7098 40.0234 51.9241 40.1052 52.1779C39.6224 52.5396 39.0441 52.7517 38.442 52.7882C37.8399 52.8246 37.2402 52.6838 36.7173 52.383L33.2486 50.3791C33.1256 50.3091 33.0176 50.2155 32.9309 50.1037C32.8442 49.9919 32.7805 49.864 32.7433 49.7275C32.7061 49.591 32.6963 49.4484 32.7144 49.3081C32.7324 49.1677 32.778 49.0323 32.8485 48.9097C32.919 48.787 33.0131 48.6794 33.1253 48.5932C33.2375 48.507 33.3656 48.4437 33.5023 48.4072C33.639 48.3706 33.7815 48.3613 33.9218 48.38C34.0621 48.3986 34.1973 48.4448 34.3197 48.5158L39.6189 51.5768Z" fill="#FBE1BD"/>
<path fill-rule="evenodd" clip-rule="evenodd" d="M45.9442 41.0155C46.1194 41.1168 46.2624 41.2655 46.3567 41.4444C45.8727 41.839 45.2803 42.0775 44.6578 42.1283C44.0354 42.1792 43.4121 42.04 42.8704 41.7292L34.836 37.0898C34.7136 37.0188 34.6064 36.9244 34.5204 36.8121C34.4345 36.6997 34.3715 36.5714 34.3351 36.4347C34.2987 36.298 34.2896 36.1554 34.3083 36.0152C34.327 35.8749 34.3731 35.7397 34.4441 35.6173C34.5873 35.3701 34.823 35.1899 35.0991 35.1163C35.2358 35.0799 35.3784 35.0708 35.5186 35.0895C35.6589 35.1082 35.7941 35.1544 35.9165 35.2253L45.9442 41.0155Z" fill="#FBE1BD"/>
<path fill-rule="evenodd" clip-rule="evenodd" d="M9.71258 47.8603L13.0981 42.0009C13.4502 41.4049 14.0234 40.9719 14.6929 40.7961C15.3625 40.6203 16.0744 40.7158 16.6739 41.062C17.2735 41.4082 17.7121 41.9769 17.8946 42.6447C18.0771 43.3125 17.9887 44.0253 17.6485 44.6283C18.0006 44.0322 18.5738 43.5993 19.2433 43.4235C19.9129 43.2476 20.6248 43.3432 21.2243 43.6893C21.8239 44.0355 22.2625 44.6043 22.445 45.2721C22.6275 45.9399 22.5391 46.6527 22.1989 47.2556C22.551 46.6596 23.1242 46.2266 23.7937 46.0508C24.4633 45.875 25.1752 45.9705 25.7747 46.3167C26.3742 46.6628 26.8129 47.2316 26.9954 47.8994C27.1779 48.5672 27.0894 49.28 26.7493 49.883C26.9199 49.5805 27.1488 49.3149 27.4227 49.1015C27.6966 48.8881 28.0101 48.731 28.345 48.6395C28.68 48.548 29.0297 48.5237 29.3741 48.5682C29.7185 48.6127 30.0506 48.725 30.3513 48.8986C30.652 49.0722 30.9154 49.3038 31.126 49.5798C31.3367 49.8558 31.4906 50.1708 31.5788 50.5067C31.667 50.8425 31.6877 51.1925 31.6398 51.5364C31.5919 51.8803 31.4763 52.2113 31.2997 52.5103L29.2302 56.0951C29.0595 56.3975 28.8307 56.6631 28.5568 56.8765C28.2829 57.09 27.9694 57.247 27.6344 57.3385C27.2995 57.4301 26.9497 57.4543 26.6053 57.4098C26.261 57.3653 25.9288 57.253 25.6281 57.0794C25.3274 56.9058 25.0641 56.6743 24.8534 56.3983C24.6427 56.1223 24.4888 55.8072 24.4006 55.4714C24.3125 55.1355 24.2917 54.7855 24.3396 54.4416C24.3875 54.0977 24.5031 53.7667 24.6798 53.4677L24.0235 54.6021C23.6686 55.1923 23.0962 55.6195 22.4295 55.7919C21.7628 55.9642 21.055 55.8679 20.4586 55.5237C19.8622 55.1795 19.4247 54.6149 19.2404 53.9513C19.0561 53.2878 19.1397 52.5785 19.4731 51.9759L19.145 52.5455C18.7971 53.1492 18.2235 53.59 17.5506 53.7708C16.8777 53.9517 16.1604 53.8579 15.5567 53.5099C14.953 53.162 14.5122 52.5885 14.3313 51.9155C14.1505 51.2426 14.2443 50.5254 14.5923 49.9216L14.263 50.4912C13.9108 51.0872 13.3377 51.5202 12.6681 51.696C11.9986 51.8718 11.2867 51.7762 10.6871 51.4301C10.0876 51.0839 9.64896 50.5152 9.46647 49.8474C9.28398 49.1796 9.37242 48.4668 9.71258 47.8638V47.8603Z" fill="#FBE1BD"/>
<path fill-rule="evenodd" clip-rule="evenodd" d="M30.7287 49.1929C31.1943 49.5925 31.506 50.142 31.6101 50.7466C31.7143 51.3513 31.6044 51.9734 31.2994 52.5058L29.2299 56.0905C28.9214 56.621 28.4375 57.0273 27.8617 57.2395C27.2859 57.4517 26.6542 57.4564 26.0752 57.253L30.7287 49.1929Z" fill="#ECD4B4"/>
<path fill-rule="evenodd" clip-rule="evenodd" d="M26.1786 46.5654C26.6442 46.9651 26.9559 47.5145 27.06 48.1192C27.1642 48.7239 27.0543 49.3459 26.7493 49.8783L24.6786 53.4654L24.0235 54.6021C23.7234 55.1181 23.2571 55.517 22.7009 55.7337C22.1448 55.9504 21.5315 55.9721 20.9614 55.7951C20.9761 55.6448 21.0228 55.4993 21.0985 55.3686L26.1786 46.5654Z" fill="#ECD4B4"/>
<path fill-rule="evenodd" clip-rule="evenodd" d="M21.6282 43.9385C22.0938 44.3381 22.4055 44.8876 22.5097 45.4922C22.6138 46.0969 22.5039 46.719 22.1989 47.2514L19.4696 51.9787L19.1415 52.5482C18.8453 53.0564 18.388 53.4512 17.8419 53.6698C17.2959 53.8885 16.6925 53.9186 16.1274 53.7553C16.1271 53.5669 16.1764 53.3818 16.2704 53.2186L21.6282 43.9385Z" fill="#ECD4B4"/>
<path fill-rule="evenodd" clip-rule="evenodd" d="M17.0742 41.3086C17.5411 41.7078 17.854 42.2574 17.9588 42.8627C18.0637 43.468 17.9539 44.0909 17.6484 44.6238L14.5899 49.9219L14.2606 50.4914C14.021 50.9015 13.6752 51.2393 13.2595 51.4691C12.8439 51.6988 12.3739 51.8121 11.8992 51.7969C11.7417 51.6277 11.6426 51.4123 11.6167 51.1826C11.5907 50.9528 11.6392 50.7208 11.7551 50.5207L17.0742 41.3086Z" fill="#ECD4B4"/>
<path fill-rule="evenodd" clip-rule="evenodd" d="M42.2625 22.2902C39.0258 22.1191 33.4524 22.5796 29.7411 24.2894C29.2418 24.5238 29.086 24.5238 28.5985 24.6832C28.0637 24.8526 27.5846 25.1636 27.2122 25.5832C26.8969 25.9382 26.669 26.3619 26.5465 26.8207L25.2575 31.6511C25.0301 32.4961 24.8356 32.9554 24.9774 33.8648C25.094 34.6338 25.3676 35.3706 25.7813 36.0293C26.6168 37.2609 27.0036 36.505 27.5672 35.7257C29.8664 32.5464 30.7196 29.8664 32.0543 29.5476L33.4852 29.2054L40.7508 33.3972L44.0918 35.3273L45.9493 36.3996C46.5246 36.7343 46.9765 37.246 47.2375 37.8584C47.4985 38.4708 47.5547 39.1511 47.3977 39.798C48.5836 39.525 49.9758 37.4027 51.0176 37.4484L42.2625 22.2902Z" fill="#FBE1BD"/>
<path fill-rule="evenodd" clip-rule="evenodd" d="M42.8669 46.3429C43.0421 46.4441 43.1851 46.5928 43.2794 46.7718C42.7953 47.1664 42.2029 47.4048 41.5805 47.4557C40.958 47.5065 40.3348 47.3673 39.7931 47.0566L33.506 43.4237C33.2587 43.2805 33.0785 43.0448 33.005 42.7687C32.9315 42.4926 32.9707 42.1985 33.114 41.9513C33.2573 41.704 33.4929 41.5238 33.769 41.4503C34.0452 41.3768 34.3392 41.416 34.5864 41.5593L42.8669 46.3429Z" fill="#FBE1BD"/>
<path fill-rule="evenodd" clip-rule="evenodd" d="M28.2081 14.4656C28.2081 14.217 28.3069 13.9785 28.4827 13.8027C28.6585 13.6269 28.8969 13.5281 29.1456 13.5281H37.4659C37.7145 13.5281 37.953 13.6269 38.1288 13.8027C38.3046 13.9785 38.4034 14.217 38.4034 14.4656C38.4034 14.7142 38.3046 14.9527 38.1288 15.1285C37.953 15.3043 37.7145 15.4031 37.4659 15.4031H29.1456C28.8969 15.4031 28.6585 15.3043 28.4827 15.1285C28.3069 14.9527 28.2081 14.7142 28.2081 14.4656ZM28.2081 11.1386C28.2081 10.89 28.3069 10.6515 28.4827 10.4757C28.6585 10.2999 28.8969 10.2011 29.1456 10.2011H34.9956C35.2442 10.2011 35.4827 10.2999 35.6585 10.4757C35.8343 10.6515 35.9331 10.89 35.9331 11.1386C35.9331 11.3873 35.8343 11.6257 35.6585 11.8016C35.4827 11.9774 35.2442 12.0761 34.9956 12.0761H29.1456C28.8969 12.0761 28.6585 11.9774 28.4827 11.8016C28.3069 11.6257 28.2081 11.3873 28.2081 11.1386ZM28.2081 17.7925C28.2081 17.5439 28.3069 17.3055 28.4827 17.1296C28.6585 16.9538 28.8969 16.855 29.1456 16.855H41.7432C41.9919 16.855 42.2303 16.9538 42.4062 17.1296C42.582 17.3055 42.6807 17.5439 42.6807 17.7925C42.6807 18.0412 42.582 18.2796 42.4062 18.4555C42.2303 18.6313 41.9919 18.73 41.7432 18.73H29.1456C28.8969 18.73 28.6585 18.6313 28.4827 18.4555C28.3069 18.2796 28.2081 18.0412 28.2081 17.7925ZM23.1889 14.0789L21.7639 15.7195C21.6795 15.8165 21.576 15.895 21.4598 15.9502C21.3437 16.0055 21.2175 16.0362 21.0889 16.0406H21.0573C20.9342 16.0407 20.8122 16.0165 20.6984 15.9695C20.5846 15.9224 20.4812 15.8534 20.394 15.7664L19.6522 15.0246C19.4755 14.849 19.3758 14.6104 19.3751 14.3613C19.3743 14.1122 19.4725 13.8729 19.6481 13.6963C19.8237 13.5196 20.0623 13.4199 20.3114 13.4191C20.5605 13.4183 20.7998 13.5166 20.9764 13.6922L21.0093 13.725L21.7745 12.8472C21.9393 12.6653 22.169 12.5553 22.414 12.5409C22.6591 12.5264 22.9001 12.6087 23.0851 12.77C23.2702 12.9313 23.3846 13.1587 23.4038 13.4035C23.423 13.6482 23.3454 13.8907 23.1878 14.0789H23.1889ZM19.194 12.0761V16.4847H23.6026V12.0761H19.194ZM24.5401 18.3597C24.7888 18.3597 25.0272 18.261 25.203 18.0851C25.3788 17.9093 25.4776 17.6709 25.4776 17.4222V11.1386C25.4776 10.89 25.3788 10.6515 25.203 10.4757C25.0272 10.2999 24.7888 10.2011 24.5401 10.2011H18.2565C18.0079 10.2011 17.7694 10.2999 17.5936 10.4757C17.4178 10.6515 17.319 10.89 17.319 11.1386V17.4222C17.319 17.6709 17.4178 17.9093 17.5936 18.0851C17.7694 18.261 18.0079 18.3597 18.2565 18.3597H24.5401ZM51.3585 36.1722L43.5432 22.6336L49.1682 19.3851L56.9835 32.9215L51.3585 36.1699V36.1722ZM48.3057 38.1035L48.5401 37.8961C48.8932 37.565 49.2692 37.2592 49.6651 36.9808L41.7081 23.2031C38.7374 23.1187 33.5765 23.5547 30.1323 25.1379C29.8359 25.2776 29.5277 25.3905 29.2112 25.4754C29.1175 25.5023 29.012 25.5328 28.8819 25.5738C28.5226 25.6877 28.1993 25.8938 27.9444 26.1715C27.9268 26.1914 27.9104 26.2113 27.8917 26.23C27.6869 26.4709 27.5384 26.7543 27.4569 27.0597L26.1679 31.8902C26.135 32.0074 26.1022 32.1246 26.0718 32.2418C25.9042 32.8406 25.8198 33.1406 25.91 33.7207C26.0026 34.3543 26.2235 34.9624 26.5593 35.5078L26.5686 35.5207L26.6729 35.3742C26.7175 35.3109 26.7632 35.2453 26.81 35.1808C27.5526 34.1325 28.2414 33.0471 28.8737 31.9289C29.8909 30.1875 30.6257 28.93 31.8386 28.6406L33.2694 28.2984C33.5026 28.2426 33.7484 28.2782 33.9561 28.398L46.4155 35.5922C46.8838 35.8623 47.2925 36.2245 47.6169 36.657C47.9414 37.0894 48.1749 37.583 48.3034 38.1082L48.3057 38.1035ZM46.2632 40.1332C46.5465 39.6419 46.6231 39.0582 46.4764 38.5104C46.3296 37.9626 45.9713 37.4955 45.4804 37.2117L33.3444 30.2039L32.2768 30.4593C31.8432 30.5625 31.1577 31.7355 30.4956 32.8699C29.9354 33.8273 29.2393 35.0203 28.3323 36.2754C28.2889 36.334 28.2468 36.3925 28.2057 36.4511C27.8389 36.9715 27.3854 37.623 26.5827 37.623H26.5686C25.8128 37.6148 25.3171 37.0125 25.01 36.5601C24.5147 35.7881 24.1873 34.9205 24.0491 34.0136C23.8956 33.0316 24.0643 32.4328 24.2589 31.7402L24.3491 31.4121L25.6382 26.5828C25.6928 26.3797 25.7629 26.181 25.8479 25.9886C23.8042 25.3359 21.0163 24.7336 18.321 25.0816L10.1764 39.1875C10.9413 39.9247 11.6343 40.733 12.246 41.6015L12.2858 41.5336C12.6455 40.9127 13.1842 40.4149 13.8314 40.1052C14.4787 39.7956 15.2043 39.6885 15.9134 39.798C16.6225 39.9076 17.2821 40.2286 17.8057 40.7191C18.3294 41.2096 18.6927 41.8468 18.8483 42.5472C18.8975 42.5308 18.9479 42.5168 18.9983 42.5039C19.4501 42.3817 19.9215 42.35 20.3856 42.4105C20.8497 42.4711 21.2972 42.6227 21.7025 42.8567C22.1078 43.0907 22.4628 43.4025 22.7473 43.7741C23.0317 44.1458 23.24 44.5699 23.36 45.0222C23.3741 45.0726 23.3858 45.123 23.3975 45.1746L23.5487 45.13C24.0005 45.0082 24.4718 44.9767 24.9358 45.0374C25.3997 45.0981 25.8472 45.2498 26.2524 45.4838C26.6576 45.7177 27.0126 46.0294 27.2972 46.4008C27.5817 46.7723 27.7901 47.1962 27.9104 47.6484C27.9245 47.7 27.9362 47.7504 27.9479 47.8019C27.9983 47.7855 28.0487 47.7715 28.0991 47.7574C28.8491 47.5552 29.6447 47.6042 30.3642 47.8969C31.0837 48.1896 31.6876 48.7098 32.0835 49.3781C32.2306 49.2473 32.4152 49.1662 32.611 49.1463C32.8068 49.1263 33.004 49.1684 33.1745 49.2668L37.1811 51.58C37.6718 51.8514 38.2493 51.9193 38.7895 51.7692C39.3297 51.6192 39.7894 51.2631 40.0698 50.7776C40.3501 50.2921 40.4288 49.7159 40.2887 49.173C40.1487 48.6301 39.8012 48.1639 39.321 47.8746L33.3597 44.4328C33.253 44.3712 33.1595 44.2893 33.0846 44.1916C33.0096 44.0939 32.9546 43.9824 32.9227 43.8635C32.8908 43.7445 32.8827 43.6205 32.8987 43.4984C32.9148 43.3763 32.9547 43.2586 33.0163 43.1519C33.0779 43.0453 33.1598 42.9518 33.2575 42.8768C33.3552 42.8018 33.4667 42.7468 33.5856 42.715C33.7046 42.6831 33.8286 42.6749 33.9507 42.691C34.0728 42.7071 34.1905 42.747 34.2972 42.8086L40.2667 46.2562C40.7596 46.5397 41.345 46.6157 41.8939 46.4676C42.4429 46.3194 42.9106 45.9593 43.194 45.4664C43.4775 44.9734 43.5535 44.3881 43.4054 43.8391C43.2573 43.2901 42.8971 42.8225 42.4042 42.539L34.6253 38.0508C34.5186 37.9892 34.4252 37.9072 34.3502 37.8096C34.2752 37.7119 34.2202 37.6004 34.1883 37.4814C34.1564 37.3625 34.1483 37.2384 34.1644 37.1164C34.1804 36.9943 34.2204 36.8765 34.2819 36.7699C34.3435 36.6632 34.4254 36.5698 34.5231 36.4948C34.6208 36.4198 34.7323 36.3648 34.8512 36.3329C34.9702 36.3011 35.0942 36.2929 35.2163 36.309C35.3384 36.325 35.4561 36.365 35.5628 36.4265L43.3358 40.9148C43.8271 41.1981 44.4108 41.2748 44.9586 41.128C45.5064 40.9812 45.9735 40.623 46.2573 40.132L46.2632 40.1332ZM37.0311 56.1199C36.7471 56.6106 36.28 56.9687 35.7323 57.1154C35.1846 57.2622 34.601 57.1857 34.1097 56.9027L30.9104 55.0558L32.1093 52.9746C32.4407 52.4007 32.6051 51.7456 32.5839 51.0832L36.246 53.1925C36.7375 53.4773 37.0962 53.9453 37.2433 54.494C37.3905 55.0427 37.3142 55.6274 37.0311 56.1199ZM26.1093 56.2371C25.723 56.0115 25.4414 55.6426 25.3255 55.2106C25.2096 54.7785 25.2689 54.3182 25.4905 53.9297L27.56 50.3449C27.671 50.1525 27.8188 49.9839 27.9949 49.8486C28.171 49.7134 28.3721 49.6141 28.5865 49.5566C28.801 49.499 29.0247 49.4842 29.2449 49.5131C29.4651 49.542 29.6774 49.614 29.8698 49.725C30.0622 49.8359 30.2308 49.9837 30.3661 50.1598C30.5013 50.3359 30.6006 50.537 30.6581 50.7515C30.7157 50.9659 30.7305 51.1897 30.7016 51.4098C30.6727 51.63 30.6007 51.8424 30.4897 52.0347L28.821 54.9258L28.4225 55.616C28.1983 56.004 27.8292 56.2871 27.3963 56.4031C26.9634 56.5191 26.5022 56.4586 26.1139 56.2347L26.1093 56.2371ZM23.21 54.1277C23.0991 54.3201 22.9513 54.4887 22.7752 54.624C22.5991 54.7592 22.398 54.8585 22.1835 54.916C21.9691 54.9736 21.7453 54.9884 21.5252 54.9595C21.305 54.9306 21.0926 54.8586 20.9003 54.7476C20.7079 54.6367 20.5393 54.4889 20.404 54.3128C20.2688 54.1367 20.1695 53.9356 20.1119 53.7211C20.0544 53.5067 20.0396 53.2829 20.0685 53.0627C20.0974 52.8426 20.1694 52.6302 20.2804 52.4379L23.0085 47.714C23.2321 47.3255 23.6009 47.0418 24.0337 46.9252C24.4666 46.8086 24.928 46.8687 25.3165 47.0924C25.705 47.316 25.9887 47.6848 26.1053 48.1176C26.2219 48.5504 26.1618 49.0119 25.9382 49.4004L23.8686 52.9851L23.2112 54.1242L23.21 54.1277ZM18.6573 51.5039L18.3304 52.0711C18.1063 52.4596 17.737 52.7431 17.3039 52.8594C16.8707 52.9757 16.4091 52.9151 16.0206 52.691C15.6321 52.4669 15.3485 52.0977 15.2323 51.6645C15.116 51.2313 15.1766 50.7697 15.4007 50.3812L18.4581 45.0867C18.6822 44.6982 19.0514 44.4146 19.4846 44.2984C19.9177 44.1821 20.3794 44.2427 20.7679 44.4668C21.1564 44.6909 21.4399 45.0601 21.5562 45.4933C21.6724 45.9264 21.6119 46.388 21.3878 46.7765L18.6608 51.5004L18.6573 51.5039ZM13.7776 49.4531L13.4507 50.0191C13.3397 50.2115 13.192 50.3801 13.0158 50.5154C12.8397 50.6506 12.6387 50.7499 12.4242 50.8074C12.2097 50.865 11.986 50.8798 11.7658 50.8509C11.5456 50.822 11.3333 50.75 11.1409 50.639C10.9485 50.5281 10.7799 50.3803 10.6446 50.2042C10.5094 50.0281 10.4101 49.827 10.3526 49.6125C10.295 49.3981 10.2803 49.1743 10.3091 48.9542C10.338 48.734 10.41 48.5216 10.521 48.3293L13.9065 42.4699C14.0175 42.2775 14.1652 42.1089 14.3414 41.9736C14.5175 41.8384 14.7185 41.7391 14.933 41.6816C15.1475 41.624 15.3712 41.6092 15.5914 41.6381C15.8116 41.667 16.0239 41.739 16.2163 41.85C16.4087 41.9609 16.5773 42.1087 16.7125 42.2848C16.8478 42.4609 16.9471 42.662 17.0046 42.8765C17.0622 43.0909 17.0769 43.3147 17.048 43.5348C17.0192 43.755 16.9472 43.9674 16.8362 44.1597L13.78 49.4531H13.7776ZM8.64129 38.0953L3.01629 34.8468L10.8292 21.3105L16.4542 24.559L8.64129 38.0953ZM16.0932 2.8113V22.1859L17.9167 23.2406C21.2554 22.7718 24.6632 23.5922 26.9659 24.3808C27.006 24.3942 27.0451 24.4103 27.0831 24.4289C27.4541 24.1461 27.8712 23.9297 28.3159 23.789C28.4659 23.741 28.5854 23.707 28.6932 23.6718C28.9185 23.6147 29.1379 23.5362 29.3483 23.4375C32.96 21.7734 38.3835 21.1898 42.0315 21.3398L43.9065 20.2593V8.96364H39.1745C38.9259 8.96364 38.6874 8.86487 38.5116 8.68905C38.3358 8.51324 38.237 8.27478 38.237 8.02614V2.81247L16.0932 2.8113ZM40.1085 4.27614L42.6983 7.08864H40.1085V4.27614ZM58.8854 32.4609L50.5171 17.9683C50.3416 17.6649 50.0529 17.4435 49.7143 17.3528C49.3757 17.262 49.0149 17.3093 48.7112 17.4843L45.7815 19.1777V8.02614C45.7815 7.99567 45.7815 7.9652 45.7815 7.93474C45.7815 7.90427 45.7815 7.90661 45.7757 7.89372L45.7686 7.84567C45.7686 7.82927 45.7604 7.81286 45.7569 7.79645C45.7534 7.78005 45.7511 7.77185 45.7475 7.76013L45.73 7.70974C45.73 7.69802 45.7218 7.68747 45.7182 7.67575L45.6972 7.62888C45.6913 7.61716 45.6866 7.60544 45.6807 7.59489L45.6561 7.55153C45.6491 7.53981 45.6432 7.52927 45.635 7.51755L45.6093 7.47888L45.5835 7.44489C45.5743 7.43303 45.5646 7.42169 45.5542 7.41091C45.5494 7.40376 45.5439 7.39709 45.5378 7.39099L39.8718 1.23864L39.8589 1.22692C39.8472 1.21403 39.8343 1.20114 39.8214 1.18942L39.7909 1.16247C39.7768 1.14958 39.7628 1.13903 39.7475 1.12731L39.7171 1.10505C39.7007 1.09333 39.6831 1.08278 39.6655 1.07224L39.6315 1.05466L39.5682 1.02302L39.5472 1.01364C39.5221 1.00196 39.4963 0.992171 39.4698 0.984345H39.4593L39.3714 0.960908C39.3412 0.954112 39.3107 0.949025 39.28 0.945674C39.2476 0.94389 39.2151 0.94389 39.1827 0.945674H15.9526C15.4938 0.946294 15.0539 1.12885 14.7294 1.45332C14.4049 1.77778 14.2224 2.21767 14.2218 2.67653V21.1031L11.2921 19.4097C10.9881 19.235 10.6273 19.1878 10.2886 19.2785C9.94992 19.3692 9.66098 19.5904 9.48504 19.8937L1.11434 34.3875C0.939591 34.6914 0.892406 35.0523 0.983116 35.3909C1.07383 35.7296 1.29504 36.0186 1.59832 36.1945L8.43739 40.1449C9.51147 41.0909 10.442 42.1883 11.1995 43.4027L8.90614 47.3918C8.52642 48.0488 8.36637 48.8099 8.44929 49.5643C8.53221 50.3186 8.85377 51.0268 9.36714 51.5857C9.88052 52.1446 10.5589 52.525 11.3035 52.6715C12.0481 52.818 12.8201 52.723 13.5069 52.4004C13.6716 52.8712 13.9331 53.3024 14.2746 53.666C14.6162 54.0296 15.0301 54.3176 15.4898 54.5113C15.9494 54.7051 16.4446 54.8004 16.9434 54.791C17.4421 54.7817 17.9334 54.6679 18.3854 54.457C18.5648 54.9695 18.8586 55.4344 19.2446 55.8163C19.6306 56.1982 20.0986 56.4871 20.613 56.661C21.1274 56.8348 21.6747 56.8891 22.2133 56.8198C22.7518 56.7504 23.2674 56.5591 23.721 56.2605C24.0042 56.8803 24.4592 57.4058 25.0321 57.7747C25.6049 58.1436 26.2716 58.3404 26.953 58.3418C27.556 58.3417 28.1492 58.1889 28.6773 57.8978C29.2053 57.6066 29.651 57.1865 29.9729 56.6765L33.1768 58.5269C33.8641 58.9247 34.654 59.1094 35.4464 59.0578C36.2388 59.0061 36.998 58.7204 37.6278 58.2368C38.2576 57.7532 38.7297 57.0935 38.9842 56.3413C39.2387 55.5892 39.2641 54.7784 39.0573 54.0117C39.0268 53.8945 38.9905 53.7832 38.9507 53.6718C39.0671 53.6523 39.1843 53.6265 39.3022 53.5945C39.8116 53.4594 40.2892 53.2249 40.7076 52.9046C41.126 52.5843 41.477 52.1844 41.7405 51.7281C42.0039 51.2717 42.1745 50.7677 42.2426 50.2452C42.3106 49.7226 42.2747 49.1918 42.137 48.6832C42.1065 48.566 42.0714 48.4558 42.0315 48.3445C42.6098 48.2441 43.159 48.0179 43.6403 47.6819C44.1215 47.346 44.5231 46.9084 44.8167 46.4001C45.1102 45.8918 45.2885 45.3253 45.339 44.7405C45.3895 44.1558 45.3109 43.567 45.1089 43.016C45.6871 42.9154 46.2362 42.689 46.7173 42.3529C47.1985 42.0167 47.5999 41.579 47.8932 41.0707C47.9958 40.8929 48.0847 40.7076 48.1593 40.5164C48.7382 40.2363 49.2725 39.7593 49.794 39.2941C50.1573 38.9695 50.7667 38.4258 51.0034 38.3871C51.1746 38.3911 51.3436 38.3481 51.4921 38.2629L58.4061 34.2691C58.7089 34.0924 58.9294 33.8029 59.0192 33.464C59.1091 33.1251 59.0609 32.7644 58.8854 32.4609Z" fill="#242222"/>
</g>
<defs>
<clipPath id="clip0_439_106120">
<rect width="60" height="60" fill="white"/>
</clipPath>
</defs>
</svg>