<svg width="50" height="50" viewBox="0 0 50 50" fill="none" xmlns="http://www.w3.org/2000/svg">
<path d="M33.4919 45.9832C30.7293 45.9832 27.9127 45.8183 25.3921 44.6527C19.1234 41.7538 15.3528 35.8003 15.3528 29.0954C15.3528 21.0827 21.6134 14.5886 29.3359 14.5886C33.9862 14.5886 38.1047 16.9452 40.6465 20.5679H45.1887C42.2151 14.6285 36.2325 10.5718 29.3359 10.5718C19.4752 10.5718 11.4812 18.8653 11.4812 29.0954C11.4812 38.2675 16.1364 45.8828 25.7935 49.0759C28.1075 49.841 30.5592 50 32.9894 50H50V45.9832H33.4919Z" fill="#FF5E14"/>
<path d="M28.731 30.1394H23.5969V24.814H28.731V30.1394Z" fill="#FF5E14"/>
<path d="M35.075 30.1394H29.9407V24.814H35.075V30.1394Z" fill="#FF5E14"/>
<path d="M28.731 36.7218H23.5969V31.3956H28.731V36.7218Z" fill="#FF5E14"/>
<path d="M35.075 36.7218H29.9407V31.3956H35.075V36.7218Z" fill="#FF5E14"/>
<path d="M0 28.9712L26.8983 0V6.09282L5.57898 28.9712H0Z" fill="#FF5E14"/>
<path d="M46.5489 20.5678L26.8983 0V6.09282L40.9699 20.5678H46.5489Z" fill="#FF5E14"/>
<path d="M23.818 5.55557H29.2084L32.2886 9.92065V14.2857H19.9677V9.92065L23.818 5.55557Z" fill="#FF5E14"/>
</svg>