<svg width="50" height="50" viewBox="0 0 50 50" fill="none" xmlns="http://www.w3.org/2000/svg">
<g clip-path="url(#clip0_18_3035)">
<path d="M46.6242 26.3334C47.0583 19.3654 44.1056 12.6157 38.6938 8.20508C33.2821 3.79443 26.0755 2.26414 19.3384 4.09503C18.9065 4.2263 18.6576 4.67756 18.7771 5.11285C18.8965 5.54815 19.3408 5.80922 19.7792 5.7017C25.9927 4.01485 32.6384 5.42483 37.6316 9.48937C42.6249 13.5539 45.3542 19.7752 44.9634 26.2017C44.8848 27.4585 44.6895 28.7053 44.38 29.9259L43.34 26.8517C43.1925 26.4145 42.7185 26.1796 42.2813 26.3271C41.844 26.4746 41.6092 26.9486 41.7567 27.3859L43.6834 33.0775C43.7726 33.3414 43.9878 33.5432 44.2569 33.6154C44.5259 33.6875 44.8132 33.6205 45.0225 33.4367L49.5359 29.47C49.7745 29.2778 49.8884 28.9702 49.8325 28.669C49.7765 28.3677 49.5598 28.1214 49.2681 28.0277C48.9764 27.9339 48.6568 28.0078 48.4359 28.22L45.9817 30.3775C46.3243 29.0531 46.5395 27.6988 46.6242 26.3334Z" fill="#FF5E14"/>
<path d="M40.8334 25C40.8334 16.2555 33.7445 9.16663 25 9.16663C16.2555 9.16663 9.16669 16.2555 9.16669 25C9.16669 33.7445 16.2555 40.8333 25 40.8333C33.7405 40.8237 40.8237 33.7405 40.8334 25ZM10.8759 25.8333H15.8567C15.9066 27.9687 16.2226 30.0895 16.7975 32.1466C15.7316 32.513 14.704 32.9824 13.7292 33.5483C12.031 31.3182 11.0374 28.6317 10.8759 25.8333ZM13.7292 16.4516C14.7039 17.0177 15.7315 17.4871 16.7975 17.8533C16.2226 19.9104 15.9066 22.0313 15.8567 24.1666H10.8759C11.0374 21.3682 12.031 18.6817 13.7292 16.4516ZM39.1242 24.1666H34.1434C34.0934 22.0313 33.7774 19.9104 33.2025 17.8533C34.2685 17.4871 35.2962 17.0177 36.2709 16.4516C37.9691 18.6817 38.9626 21.3682 39.1242 24.1666ZM32.4767 24.1666H25.8334V19.1408C27.7754 19.0924 29.7058 18.826 31.5884 18.3466C32.1238 20.2425 32.4222 22.1974 32.4767 24.1666ZM25.8334 17.475V10.9316C27.9517 11.3983 29.8334 13.6141 31.0492 16.765C29.3412 17.1889 27.5925 17.4269 25.8334 17.475ZM24.1667 10.9316V17.475C22.4077 17.4278 20.6589 17.1906 18.9509 16.7675C20.1709 13.6141 22.0484 11.3983 24.1667 10.9316ZM24.1667 19.1408V24.1666H17.5234C17.5779 22.1974 17.8762 20.2425 18.4117 18.3466C20.2942 18.826 22.2247 19.0924 24.1667 19.1408ZM17.5234 25.8333H24.1667V30.8591C22.2247 30.9075 20.2942 31.1739 18.4117 31.6533C17.8762 29.7575 17.5779 27.8025 17.5234 25.8333ZM24.1667 32.525V39.0683C22.0484 38.6016 20.1667 36.3858 18.9509 33.235C20.6588 32.811 22.4076 32.573 24.1667 32.525ZM25.8334 39.0683V32.525C27.5924 32.5722 29.3412 32.8094 31.0492 33.2325C29.8334 36.3858 27.9517 38.6016 25.8334 39.0683ZM25.8334 30.8591V25.8333H32.4767C32.4222 27.8025 32.1238 29.7575 31.5884 31.6533C29.7058 31.1739 27.7754 30.9075 25.8334 30.8591ZM34.1434 25.8333H39.1242C38.9626 28.6317 37.9691 31.3182 36.2709 33.5483C35.2961 32.9824 34.2684 32.513 33.2025 32.1466C33.7774 30.0895 34.0934 27.9687 34.1434 25.8333ZM35.175 15.1666C34.3777 15.6043 33.5447 15.9737 32.685 16.2708C32.1039 14.6466 31.2412 13.1375 30.1367 11.8125C32.0378 12.5552 33.7563 13.6993 35.175 15.1666ZM19.8634 11.8116C18.7588 13.1366 17.8962 14.6458 17.315 16.27C16.4554 15.9731 15.6224 15.604 14.825 15.1666C16.2437 13.699 17.9622 12.5547 19.8634 11.8116ZM14.825 34.8333C15.6224 34.3956 16.4553 34.0262 17.315 33.7291C17.8962 35.3533 18.7588 36.8625 19.8634 38.1875C17.9623 37.4447 16.2438 36.3006 14.825 34.8333ZM30.1367 38.1875C31.2412 36.8625 32.1039 35.3533 32.685 33.7291C33.5447 34.0262 34.3777 34.3956 35.175 34.8333C33.7564 36.3009 32.0378 37.4444 30.1367 38.1875Z" fill="#FF5E14"/>
<path d="M1.66672 13.3333H11.6667C12.5872 13.3333 13.3334 12.5871 13.3334 11.6667C13.3297 9.42577 12.2033 7.33584 10.3334 6.10083C10.6564 5.50696 10.8281 4.84267 10.8334 4.16667C10.8334 1.86548 8.96791 0 6.66672 0C4.36553 0 2.50005 1.86548 2.50005 4.16667C2.50498 4.84668 2.67819 5.51489 3.00422 6.11167C1.11628 7.32545 -0.0176946 9.42228 5.27014e-05 11.6667C5.27014e-05 12.1087 0.175647 12.5326 0.488208 12.8452C0.800769 13.1577 1.22469 13.3333 1.66672 13.3333ZM6.66672 1.66667C8.04743 1.66667 9.16672 2.78595 9.16672 4.16667C9.16672 5.54738 8.04743 6.66667 6.66672 6.66667C5.28601 6.66667 4.16672 5.54738 4.16672 4.16667C4.16672 2.78595 5.28601 1.66667 6.66672 1.66667ZM3.13089 8.13083C3.41764 7.85171 3.73752 7.60879 4.08339 7.4075C5.58721 8.64462 7.75623 8.64462 9.26005 7.4075C10.7495 8.31103 11.6612 9.92463 11.6667 11.6667H1.66672C1.66296 10.3398 2.19019 9.0666 3.13089 8.13083Z" fill="#0E121D"/>
<path d="M47 42.7675C47.323 42.1736 47.4947 41.5093 47.5 40.8333C47.5 38.5321 45.6345 36.6666 43.3333 36.6666C41.0322 36.6666 39.1667 38.5321 39.1667 40.8333C39.1703 41.5129 39.3421 42.1811 39.6667 42.7783C37.7803 43.9931 36.648 46.0897 36.6667 48.3333C36.6667 49.2538 37.4129 50 38.3333 50H48.3333C49.2538 50 50 49.2538 50 48.3333C49.9963 46.0924 48.8699 44.0025 47 42.7675ZM43.3333 38.3333C44.714 38.3333 45.8333 39.4526 45.8333 40.8333C45.8333 42.214 44.714 43.3333 43.3333 43.3333C41.9526 43.3333 40.8333 42.214 40.8333 40.8333C40.8333 39.4526 41.9526 38.3333 43.3333 38.3333ZM38.3333 48.3333C38.3296 47.0064 38.8568 45.7332 39.7975 44.7975C40.0835 44.5185 40.4025 44.2756 40.7475 44.0741C42.2523 45.31 44.4213 45.3083 45.9242 44.07C47.4158 44.9736 48.3288 46.5893 48.3333 48.3333H38.3333Z" fill="#0E121D"/>
<path d="M19.3925 45.9283C23.0844 46.9206 26.9739 46.9126 30.6617 45.905C31.0936 45.7737 31.3424 45.3224 31.223 44.8871C31.1035 44.4518 30.6592 44.1908 30.2208 44.2983C24.0004 45.9873 17.3471 44.572 12.3526 40.4975C7.35806 36.423 4.63554 30.1896 5.04084 23.7566C5.11713 22.515 5.31105 21.2833 5.62001 20.0783L6.66001 23.1525C6.80751 23.5897 7.28153 23.8245 7.71876 23.677C8.15598 23.5295 8.39085 23.0555 8.24334 22.6183L6.31667 16.9266C6.2274 16.6628 6.01221 16.461 5.74317 16.3888C5.47413 16.3167 5.18683 16.3837 4.97751 16.5675L0.460008 20.5341C0.22139 20.7263 0.107485 21.034 0.163399 21.3352C0.219314 21.6364 0.436029 21.8827 0.727723 21.9765C1.01942 22.0702 1.33904 21.9964 1.56001 21.7841L4.01417 19.6266C3.67629 20.9351 3.46367 22.2728 3.37917 23.6216C2.74288 33.9163 9.43505 43.2386 19.3925 45.9283Z" fill="#FF5E14"/>
</g>
<defs>
<clipPath id="clip0_18_3035">
<rect width="50" height="50" fill="white"/>
</clipPath>
</defs>
</svg>