<svg width="50" height="50" viewBox="0 0 50 50" fill="none" xmlns="http://www.w3.org/2000/svg">
<g clip-path="url(#clip0_18_3056)">
<path d="M32.4694 36.1775L31.7618 32.0528C31.6849 31.6041 31.2589 31.3026 30.8102 31.3798C30.3615 31.4568 30.0602 31.8829 30.1373 32.3315L30.5625 34.8103L25.3834 32.0875C25.1432 31.9614 24.8564 31.9614 24.6164 32.0875L19.4374 34.8104L20.4265 29.0433C20.4724 28.7759 20.3837 28.5032 20.1895 28.3138L15.9996 24.2296L21.7898 23.3882C22.2404 23.3228 22.5524 22.9046 22.487 22.4541C22.4216 22.0035 22.0019 21.6915 21.5529 21.757L14.11 22.8385C13.7996 22.8835 13.5416 23.101 13.4446 23.3994C13.3477 23.6977 13.4286 24.0253 13.6531 24.2443L18.7286 29.1917L17.5306 36.1776C17.4775 36.4867 17.6046 36.7993 17.8584 36.9836C18.1121 37.1679 18.4485 37.1923 18.7263 37.0464L24.9999 33.7481L31.2736 37.0464C31.3944 37.1097 31.5261 37.141 31.6571 37.141C31.8281 37.141 31.9981 37.0878 32.1416 36.9834C32.3954 36.7991 32.5225 36.4866 32.4694 36.1775Z" fill="#0E121D"/>
<path d="M36.5552 23.3995C36.4583 23.1012 36.2003 22.8837 35.8897 22.8387L28.8756 21.8195L25.7388 15.4635C25.5999 15.1822 25.3134 15.004 24.9996 15.004C24.6858 15.004 24.3994 15.1822 24.2604 15.4635L22.3958 19.2416C22.1948 19.6496 22.3624 20.1439 22.7705 20.3452C23.1789 20.547 23.6729 20.3791 23.8743 19.9709L24.9998 17.6904L27.5892 22.9373C27.7094 23.1805 27.9413 23.3492 28.2098 23.3882L34.0001 24.2296L29.81 28.3138C29.4841 28.6315 29.4775 29.1533 29.7951 29.4792C29.9567 29.6449 30.1709 29.7281 30.3854 29.7281C30.5928 29.7281 30.8004 29.6503 30.9606 29.4942L36.3465 24.2444C36.5713 24.0254 36.652 23.698 36.5552 23.3995Z" fill="#0E121D"/>
<path d="M21.5421 43.4394C18.7669 42.8111 16.1834 41.4475 14.0567 39.5185C13.7906 39.2245 13.4817 38.9145 13.1321 38.6138C12.7916 38.2542 12.4653 37.8789 12.1555 37.4882C10.7073 35.6627 9.64854 33.5508 9.03067 31.3048C8.97774 31.0512 8.91261 30.7857 8.83302 30.5135C8.54698 29.2474 8.39845 27.9456 8.39845 26.6334C8.39845 22.4597 9.87296 18.4343 12.5503 15.2987C12.5875 15.255 12.6194 15.2087 12.646 15.1603C12.6483 15.1596 12.6504 15.1592 12.6526 15.1585C13.6603 14.8336 16.1283 13.8368 17.2832 11.6051C18.4348 9.37955 17.8506 6.74898 17.546 5.72115C17.4624 5.43922 17.2641 5.1982 17.0016 5.05982C16.741 4.92232 16.4325 4.89478 16.1551 4.98404C15.1475 5.30894 12.6794 6.30562 11.5245 8.53736C10.4126 10.6863 10.919 13.2124 11.2293 14.309C10.3341 15.3695 9.56329 16.5208 8.92618 17.7402C8.83507 17.072 8.6504 16.3915 8.32589 15.7421C7.93185 14.9532 6.67189 13.0037 3.4923 11.9422C3.21251 11.8487 2.89972 11.8733 2.6339 12.0095C2.36564 12.1467 2.16095 12.3888 2.07228 12.6735C1.73429 13.7562 1.0753 16.5294 2.2547 18.8899C2.64874 19.6787 3.9087 21.6281 7.08849 22.6897C7.11017 22.6969 7.13204 22.7028 7.15401 22.7087C6.8879 23.9901 6.7503 25.3047 6.7503 26.6333C6.7503 26.7809 6.75235 26.9286 6.75577 27.0759C5.98644 26.4182 4.16876 25.2435 1.08097 25.3382C0.786339 25.3473 0.50128 25.4786 0.298741 25.6982C0.0946396 25.9198 -0.0137588 26.2177 0.00147555 26.5155C0.0587021 27.6482 0.399425 30.4782 2.32198 32.2853C2.94191 32.8677 4.69044 34.1846 7.82042 34.1846C7.93556 34.1846 8.05274 34.1829 8.17149 34.1793C8.21036 34.1781 8.24923 34.1744 8.28761 34.169C8.69376 35.1241 9.17667 36.0455 9.73341 36.9218C8.74718 36.7645 6.56427 36.705 3.96358 38.4317C3.71798 38.5947 3.54483 38.8564 3.48849 39.1499C3.43175 39.4457 3.49669 39.756 3.66671 40.0014C4.31251 40.9338 6.09405 43.159 8.68009 43.6809C8.94317 43.734 9.33976 43.7899 9.84337 43.7899C10.9953 43.7898 12.7062 43.4969 14.6492 42.2068C14.6728 42.1912 14.695 42.1738 14.7173 42.1565C16.6632 43.5309 18.8592 44.5221 21.1779 45.0471C21.2393 45.061 21.3004 45.0675 21.3607 45.0675C21.7371 45.0675 22.0772 44.8079 22.1638 44.4253C22.2646 43.9813 21.986 43.54 21.5421 43.4394ZM12.9885 9.29498C13.7037 7.91266 15.2077 7.12232 16.1105 6.75455C16.3244 7.7235 16.5406 9.45328 15.8192 10.8475C15.104 12.2298 13.6 13.0202 12.6973 13.3879C12.4833 12.419 12.2671 10.6893 12.9885 9.29498ZM7.08351 20.929C6.13243 20.5374 4.4878 19.6717 3.72921 18.1533C2.9629 16.6195 3.24874 14.7238 3.49737 13.7031C4.44835 14.0947 6.09298 14.9602 6.85157 16.4788V16.4789C7.61769 18.0125 7.33185 19.9085 7.08351 20.929ZM3.45089 31.0841C2.20157 29.9098 1.81427 28.0324 1.69444 26.9885C2.72237 27.0272 4.56476 27.2708 5.80157 28.4332C6.5547 29.1409 6.99308 30.1035 7.25001 30.9858C7.3002 31.2018 7.3547 31.4168 7.41222 31.6308C7.48272 31.9651 7.52862 32.2722 7.55802 32.5288C6.53009 32.4901 4.68761 32.2464 3.45089 31.0841ZM9.00665 42.0652C7.32618 41.726 6.00724 40.3345 5.35509 39.5109C6.24894 39.0019 7.94278 38.2374 9.60665 38.5734C10.5414 38.7621 11.3639 39.2766 12.0225 39.8377C12.2942 40.1208 12.5742 40.3947 12.8622 40.659C13.0125 40.8263 13.1459 40.9857 13.2584 41.1276C12.3646 41.6367 10.6711 42.4008 9.00665 42.0652Z" fill="#FF5E14"/>
<path d="M49.701 25.698C49.4984 25.4784 49.2135 25.3474 48.9191 25.3383C45.8316 25.2436 44.0135 26.4186 43.2441 27.0762C43.2476 26.9287 43.2496 26.7811 43.2496 26.6333C43.2496 25.3047 43.1119 23.9901 42.8459 22.7087C42.8679 22.7028 42.8897 22.6971 42.9113 22.6897C46.0914 21.628 47.3513 19.6787 47.7453 18.8899C48.9243 16.5298 48.2656 13.7565 47.9276 12.6734C47.8388 12.3886 47.6338 12.1466 47.3659 12.0096C47.1002 11.8736 46.7875 11.849 46.5078 11.9423C43.3281 13.0037 42.0681 14.9531 41.6739 15.7421C41.3494 16.3915 41.1646 17.0721 41.0736 17.7401C40.4366 16.5208 39.6658 15.3694 38.7707 14.309C39.0811 13.2124 39.5875 10.6863 38.4755 8.5373C37.3206 6.30546 34.8525 5.30878 33.845 4.98398C33.5678 4.89443 33.2591 4.92207 32.9982 5.05976C32.7358 5.19824 32.5375 5.43945 32.4542 5.72109C32.1495 6.74882 31.5653 9.37929 32.7169 11.605C33.8718 13.8367 36.3398 14.8333 37.3474 15.1583C37.3495 15.159 37.3518 15.1594 37.354 15.1602C37.3806 15.2085 37.4125 15.255 37.4497 15.2986C40.127 18.4343 41.6016 22.4597 41.6016 26.6333C41.6016 27.9456 41.4531 29.2477 41.167 30.5139C41.0874 30.7857 41.0224 31.051 40.9695 31.3043C40.3517 33.5506 39.2929 35.6625 37.8445 37.4882C37.5348 37.8786 37.2088 38.2537 36.8684 38.6131C36.5183 38.9143 36.2089 39.2246 35.9427 39.519C33.8162 41.4478 31.2329 42.811 28.458 43.4394C28.0141 43.5399 27.7357 43.9813 27.8362 44.4252C27.9228 44.8078 28.2627 45.0675 28.6393 45.0675C28.6997 45.0675 28.7607 45.0607 28.8221 45.0471C31.1408 44.522 33.3368 43.5308 35.2827 42.1564C35.3048 42.1738 35.3269 42.191 35.3505 42.2066C37.2942 43.4972 39.0046 43.7899 40.1565 43.7899C40.6599 43.7899 41.0567 43.734 41.3196 43.681C43.9062 43.159 45.6874 40.9339 46.3332 40.0015C46.5032 39.7561 46.5682 39.4458 46.5114 39.1499C46.4551 38.8564 46.2819 38.5947 46.0366 38.432C43.4359 36.7053 41.2527 36.7647 40.2666 36.9221C40.8233 36.0457 41.3062 35.1241 41.7124 34.1691C41.7509 34.1745 41.7895 34.1781 41.8285 34.1794C41.9476 34.183 42.0644 34.1848 42.1796 34.1848C45.3095 34.1848 47.0584 32.8679 47.678 32.2854C49.6008 30.4783 49.9415 27.6484 49.9987 26.5155C50.0136 26.2174 49.9052 25.9193 49.701 25.698ZM37.3026 13.3879C36.3998 13.0202 34.8959 12.2299 34.1808 10.8476C33.4594 9.45341 33.6754 7.72373 33.8895 6.75459C34.7924 7.12226 36.2962 7.91259 37.0114 9.29492C37.7327 10.6891 37.5168 12.4187 37.3026 13.3879ZM40.3933 38.5734C42.0571 38.2378 43.751 39.0019 44.6449 39.5109C43.9931 40.3346 42.674 41.726 40.9933 42.0652C39.3301 42.4006 37.6355 41.6368 36.7417 41.1277C36.8539 40.9859 36.9872 40.8268 37.1373 40.6596C37.4257 40.3947 37.706 40.1203 37.9783 39.8368C38.6366 39.2761 39.4588 38.762 40.3933 38.5734ZM43.1484 16.4788C43.9071 14.9602 45.5517 14.0947 46.5027 13.7031C46.7511 14.7239 47.0369 16.6197 46.2709 18.1533C45.5123 19.6716 43.8678 20.5372 42.9166 20.929C42.668 19.9085 42.3821 18.0127 43.1484 16.4788ZM46.549 31.0842C45.3122 32.2467 43.4698 32.4901 42.4419 32.5288C42.4714 32.2722 42.5173 31.9649 42.5879 31.6304C42.6452 31.4169 42.6996 31.2023 42.7498 30.9867C43.0066 30.1043 43.4452 29.1412 44.1986 28.4333C45.4354 27.2708 47.2777 27.0273 48.3058 26.9887C48.1857 28.0322 47.7984 29.9099 46.549 31.0842Z" fill="#FF5E14"/>
</g>
<defs>
<clipPath id="clip0_18_3056">
<rect width="50" height="50" fill="white"/>
</clipPath>
</defs>
</svg>