<svg width="50" height="50" viewBox="0 0 50 50" fill="none" xmlns="http://www.w3.org/2000/svg">
<path fill-rule="evenodd" clip-rule="evenodd" d="M4.79424 1.56238H31.4612C31.7008 1.56238 31.9069 1.64783 32.0764 1.81716L36.9606 6.70134C37.1299 6.87068 37.2153 7.07683 37.2153 7.31648V43.8406C37.2153 44.3197 36.8245 44.7105 36.3454 44.7105H4.79424C4.31514 44.7105 3.92432 44.3197 3.92432 43.8406V2.4323C3.92432 1.9532 4.31504 1.56238 4.79424 1.56238Z" fill="#ECEFF1"/>
<path fill-rule="evenodd" clip-rule="evenodd" d="M4.79424 1.56238H6.38564V44.7105H4.79424C4.31514 44.7105 3.92432 44.3197 3.92432 43.8406V2.4323C3.92432 1.9532 4.31504 1.56238 4.79424 1.56238Z" fill="#D1D1D6"/>
<path fill-rule="evenodd" clip-rule="evenodd" d="M31.8214 1.63782C31.9138 1.68 31.9988 1.73987 32.0762 1.81721L36.9604 6.70139C37.0377 6.77874 37.0976 6.86379 37.1397 6.95618H32.2563C32.0167 6.95618 31.8213 6.76077 31.8213 6.52122V1.63782H31.8214Z" fill="#A79BA7"/>
<path fill-rule="evenodd" clip-rule="evenodd" d="M8.35996 27.8975H11.9653C12.4297 27.8975 12.8096 28.2773 12.8096 28.7418V32.3472C12.8096 32.8115 12.4296 33.1914 11.9653 33.1914H8.35996C7.89551 33.1914 7.51562 32.8115 7.51562 32.3472V28.7418C7.51562 28.2773 7.89551 27.8975 8.35996 27.8975Z" fill="#FE646F"/>
<path fill-rule="evenodd" clip-rule="evenodd" d="M11.7543 27.8975H11.9654C12.4298 27.8975 12.8098 28.2773 12.8098 28.7418V32.3472C12.8098 32.8115 12.4299 33.1915 11.9654 33.1915H8.35996C7.89561 33.1915 7.51562 32.8116 7.51562 32.3472V32.136H10.9099C11.3743 32.136 11.7542 31.7562 11.7542 31.2917L11.7543 27.8975Z" fill="#FD4755"/>
<path fill-rule="evenodd" clip-rule="evenodd" d="M8.35996 18.6917H11.9653C12.4297 18.6917 12.8096 19.0715 12.8096 19.536V23.1414C12.8096 23.6057 12.4296 23.9856 11.9653 23.9856H8.35996C7.89551 23.9856 7.51562 23.6057 7.51562 23.1414V19.536C7.51562 19.0715 7.89551 18.6917 8.35996 18.6917Z" fill="#FFE177"/>
<path fill-rule="evenodd" clip-rule="evenodd" d="M11.7543 18.6917H11.9654C12.4298 18.6917 12.8098 19.0715 12.8098 19.536V23.1414C12.8098 23.6057 12.4299 23.9857 11.9654 23.9857H8.35996C7.89561 23.9857 7.51562 23.6058 7.51562 23.1414V22.9302H10.9099C11.3743 22.9302 11.7542 22.5503 11.7542 22.0859L11.7543 18.6917Z" fill="#FFD064"/>
<path fill-rule="evenodd" clip-rule="evenodd" d="M8.36006 9.48572H11.9657C12.4301 9.48572 12.8101 9.8657 12.8101 10.3301V13.9357C12.8101 14.4001 12.4301 14.7801 11.9657 14.7801H8.36006C7.89561 14.7801 7.51562 14.4002 7.51562 13.9357V10.3301C7.51572 9.8657 7.89561 9.48572 8.36006 9.48572Z" fill="#6CF5C2"/>
<path fill-rule="evenodd" clip-rule="evenodd" d="M11.7546 9.48572H11.9657C12.4302 9.48572 12.8102 9.8657 12.8102 10.3301V13.9356C12.8102 14.4001 12.4302 14.78 11.9657 14.78H8.36006C7.89561 14.78 7.51562 14.4001 7.51562 13.9356V13.7245H10.9101C11.3745 13.7245 11.7544 13.3445 11.7544 12.8801V9.48572H11.7546Z" fill="#00E499"/>
<path fill-rule="evenodd" clip-rule="evenodd" d="M34.4774 21.8728C35.7562 22.1771 36.9774 22.684 38.0966 23.3732L40.4484 22.3286L43.2203 25.1004L42.1761 27.4515C42.8655 28.5708 43.3725 29.7926 43.6768 31.0717L46.0762 31.9952V35.9152L43.6762 36.8389C43.3719 38.1176 42.8648 39.3389 42.1758 40.4581L43.2203 42.8099L40.4485 45.5818L38.0975 44.5375C36.978 45.227 35.7563 45.7339 34.4773 46.0382L33.5538 48.4376H29.6339L28.7101 46.0376C27.4313 45.7333 26.2102 45.2264 25.0909 44.5372L22.7391 45.5818L19.9672 42.81L21.0114 40.4589C20.322 39.3396 19.8151 38.1177 19.5107 36.8388L17.1113 35.9153V31.9953L19.511 31.0716C19.8153 29.7928 20.3223 28.5713 21.0116 27.4521L19.9672 25.1005L22.739 22.3286L25.0908 23.3732C26.2101 22.684 27.4313 22.1771 28.71 21.8728L29.6338 19.4728H33.5536L34.4774 21.8728Z" fill="#FFE177"/>
<path fill-rule="evenodd" clip-rule="evenodd" d="M25.0909 44.5372L22.7391 45.5818L22.377 45.2197L24.5819 44.2404C24.7493 44.3434 24.919 44.4424 25.0909 44.5372ZM34.4775 21.8728C35.7563 22.1771 36.9775 22.684 38.0967 23.3732L37.4282 23.67C36.309 22.9809 34.5788 22.1771 33.3001 21.8728L32.3763 19.4728H33.5537L34.4775 21.8728ZM38.0975 44.5375C36.978 45.227 35.7563 45.7339 34.4773 46.0382L33.5538 48.4376H32.3764L33.2999 46.0382C34.5789 45.7339 36.3096 44.93 37.429 44.2406L38.0975 44.5375ZM22.377 22.6907L22.7391 22.3286L25.0909 23.3732C24.919 23.468 24.7494 23.567 24.5819 23.67L22.377 22.6907ZM39.6332 22.6907L40.4485 22.3286L43.2204 25.1004L42.1762 27.4515C42.8656 28.5708 43.3726 29.7926 43.6769 31.0717L46.0763 31.9952V35.9152L43.6763 36.8389C43.372 38.1176 42.8649 39.3389 42.1759 40.4581L43.2204 42.8099L40.4486 45.5818L39.6333 45.2197L42.043 42.8099L40.9984 40.4581C41.6876 39.3389 42.1945 38.1177 42.4988 36.8389L44.8988 35.9152V31.9952L42.4994 31.0717C42.1951 29.7927 41.6881 28.5709 40.9987 27.4515L42.043 25.1004L39.6332 22.6907Z" fill="#FFD064"/>
<path d="M33.1664 40.5902C36.8398 39.7218 39.1137 36.04 38.2454 32.3666C37.3771 28.6933 33.6953 26.4193 30.0219 27.2876C26.3485 28.1559 24.0745 31.8377 24.9428 35.5111C25.8112 39.1845 29.493 41.4585 33.1664 40.5902Z" fill="#ECEFF1"/>
<path fill-rule="evenodd" clip-rule="evenodd" d="M31.5937 27.1194C27.8181 27.1194 24.7578 30.1795 24.7578 33.9553C24.7578 37.7309 27.818 40.7912 31.5937 40.7912C31.7768 40.7912 31.958 40.7838 32.1374 40.7697C28.6161 40.4926 25.8452 37.5479 25.8452 33.9553C25.8452 30.3626 28.616 27.418 32.1374 27.1409C31.958 27.1267 31.7768 27.1194 31.5937 27.1194Z" fill="#D1D1D6"/>
<path fill-rule="evenodd" clip-rule="evenodd" d="M30.6957 34.5614L34.0211 31.2029C34.4147 30.8053 35.0569 30.8041 35.4533 31.1984C35.8496 31.5925 35.8509 32.2328 35.4577 32.6297C34.1093 33.9907 32.7699 35.3606 31.4152 36.7154C31.0191 37.1115 30.3768 37.1114 29.9807 36.7154L27.7331 34.4678C27.337 34.0718 27.337 33.4293 27.7331 33.0333C28.1291 32.6372 28.7716 32.6372 29.1676 33.0333L30.6957 34.5614Z" fill="#8AC9FE"/>
<path fill-rule="evenodd" clip-rule="evenodd" d="M34.9025 31.7519C34.9922 31.8415 34.9922 31.9891 34.9025 32.0801C34.3987 32.5875 33.8954 33.0986 33.3926 33.6084C32.5656 34.4473 31.7089 35.3151 30.8626 36.1627C30.7716 36.2537 30.6231 36.2537 30.5321 36.1627L28.2854 33.915C28.2288 33.858 28.2168 33.7946 28.2168 33.75C28.2168 33.7059 28.2287 33.6415 28.2854 33.5859C28.3304 33.5399 28.3896 33.5175 28.4504 33.5175C28.5102 33.5175 28.5694 33.5399 28.6145 33.5859L30.1428 35.1129C30.289 35.2595 30.4885 35.3428 30.6953 35.3428H30.6976C30.9053 35.3418 31.1048 35.2587 31.2501 35.1111L34.5752 31.752C34.6308 31.6973 34.6942 31.6844 34.7375 31.6844C34.7706 31.6815 34.8428 31.6936 34.9025 31.7519ZM33.4661 30.6533L30.6926 33.4531L29.7199 32.4805C29.3803 32.1417 28.9298 31.9551 28.4504 31.9551C27.97 31.9551 27.5196 32.1417 27.1799 32.4805C26.8411 32.8201 26.6545 33.2701 26.6545 33.7501C26.6545 34.2305 26.8411 34.6805 27.1799 35.0206L29.428 37.2674C29.7773 37.6181 30.2375 37.7928 30.6976 37.7928C31.1572 37.7928 31.6173 37.6172 31.9667 37.2674C32.8175 36.417 33.6757 35.5469 34.5049 34.7053C35.0068 34.196 35.5087 33.6876 36.0116 33.1797C36.707 32.4773 36.7043 31.3406 36.0038 30.6447C35.6632 30.3055 35.21 30.1239 34.7314 30.1221C34.2521 30.1237 33.8026 30.3122 33.4661 30.6533ZM31.5939 40.0096C34.9329 40.0096 37.6485 37.2939 37.6485 33.955C37.6485 30.616 34.9329 27.8999 31.5939 27.8999C28.255 27.8999 25.538 30.616 25.538 33.955C25.538 37.2939 28.255 40.0096 31.5939 40.0096ZM31.5939 26.3376C27.3927 26.3376 23.9756 29.7547 23.9756 33.9551C23.9756 38.155 27.3927 41.572 31.5939 41.572C35.7942 41.572 39.2109 38.1549 39.2109 33.9551C39.2109 29.7547 35.7943 26.3376 31.5939 26.3376ZM45.2949 35.379V32.531L43.3956 31.8006C43.1552 31.7077 42.9755 31.5027 42.9162 31.2518C42.6308 30.0534 42.1582 28.913 41.511 27.8608C41.375 27.6416 41.3575 27.3694 41.4619 27.1342L42.2884 25.2734L40.2756 23.2602L38.4135 24.0871C38.1777 24.1915 37.9064 24.173 37.6868 24.0384C36.6352 23.3907 35.4942 22.9178 34.2964 22.6323C34.0459 22.573 33.8409 22.3937 33.7484 22.1529L33.0167 20.2536H30.17L29.4387 22.1529C29.3458 22.3937 29.1408 22.573 28.8907 22.6323C27.6924 22.9178 26.552 23.3907 25.5003 24.0384C25.2801 24.173 25.0089 24.1915 24.7736 24.0871L24.4082 23.9249C24.4073 23.924 24.4055 23.9235 24.4036 23.9227L22.9125 23.2603L20.8987 25.2735L21.7257 27.1347C21.8305 27.37 21.8116 27.6422 21.677 27.8613C21.0284 28.913 20.5559 30.0534 20.2709 31.2518C20.2111 31.5027 20.0323 31.7077 19.7915 31.8006L17.8927 32.531V35.379L19.7915 36.1094C20.0314 36.2022 20.2111 36.4072 20.2709 36.6582C20.5559 37.8561 21.0284 38.9979 21.6761 40.0486C21.8116 40.2684 21.8291 40.5399 21.7248 40.7754L20.8988 42.6365L22.9126 44.6494L24.7737 43.8229C25.0091 43.7187 25.2803 43.736 25.5004 43.8717C26.5521 44.5193 27.6925 44.9924 28.8908 45.2773C29.1418 45.3371 29.3468 45.5164 29.4388 45.7567L30.1701 47.6561H33.0168L33.7485 45.7577C33.84 45.5178 34.0459 45.3381 34.2965 45.2783C35.4943 44.9934 36.6361 44.5194 37.6878 43.8718C37.9075 43.7376 38.1792 43.7188 38.4146 43.823L40.2757 44.6495L42.2885 42.6366L41.4611 40.7755C41.3568 40.5401 41.3752 40.2676 41.5103 40.0487C42.1585 38.9961 42.631 37.8553 42.9164 36.6583C42.9757 36.4073 43.1545 36.2023 43.3958 36.1095L45.2949 35.379ZM4.79414 43.9286H19.9816L19.414 43.3623C19.1855 43.1339 19.1221 42.7877 19.2531 42.4931L20.1329 40.5105C19.5763 39.5379 19.1465 38.5027 18.8527 37.4226L16.8303 36.6443C16.5282 36.528 16.3302 36.238 16.3302 35.9148V31.9949C16.3302 31.6718 16.5283 31.3817 16.8303 31.2654L18.8536 30.4872C18.9483 30.1393 19.0577 29.7978 19.18 29.4599H17.1115C16.6799 29.4599 16.3301 29.1101 16.3301 28.6779C16.3301 28.2468 16.6799 27.897 17.1115 27.897H19.8644C19.9503 27.7296 20.0391 27.5633 20.1337 27.3996L19.253 25.4171C19.122 25.1215 19.1854 24.7763 19.4139 24.5474L19.9765 23.9853H17.1114C16.6798 23.9853 16.33 23.6354 16.33 23.2043C16.33 22.7727 16.6798 22.4229 17.1114 22.4229H21.5389L22.1865 21.7757C22.4149 21.5473 22.7598 21.4829 23.0558 21.6144L24.877 22.4229H25.1688C26.1033 21.9012 27.0939 21.4952 28.1254 21.2148L28.4954 20.2532H17.1116C16.68 20.2532 16.3302 19.9039 16.3302 19.4723C16.3302 19.0406 16.68 18.6908 17.1116 18.6908H33.4262H33.427H33.5539C33.8771 18.6908 34.1662 18.8898 34.2825 19.1914L35.0616 21.2147C35.5272 21.3416 35.9855 21.4951 36.4337 21.6721V7.73721H32.2559C31.5861 7.73721 31.04 7.19199 31.04 6.52139V2.34355H4.79414C4.74727 2.34355 4.70498 2.38496 4.70498 2.43223V43.8408C4.70498 43.8887 4.74639 43.9286 4.79414 43.9286ZM35.3291 6.1748H32.6029V3.44854L35.3291 6.1748ZM46.3563 31.2656L44.3342 30.4874C44.04 29.4072 43.6116 28.3716 43.0536 27.3994L43.9339 25.4174C44.0653 25.1218 44.001 24.7766 43.7726 24.5477L40.9999 21.776C40.7715 21.5476 40.4268 21.4832 40.1312 21.6146L38.1486 22.4953C38.0977 22.4664 38.0471 22.4393 37.9965 22.4112V7.3166C37.9965 6.86895 37.8292 6.46533 37.5129 6.14912L32.6281 1.26484C32.3114 0.948633 31.9083 0.78125 31.461 0.78125H4.79414C3.88408 0.78125 3.14258 1.52227 3.14258 2.43232V43.8408C3.14258 44.7509 3.88398 45.491 4.79414 45.491H21.544L22.1866 46.1336C22.415 46.362 22.7599 46.4264 23.0559 46.2958L25.0393 45.4151C26.0109 45.9723 27.0461 46.4011 28.1259 46.6953L28.9045 48.7178C29.0208 49.0193 29.3104 49.2188 29.634 49.2188H33.5539C33.8771 49.2188 34.1662 49.0192 34.2825 48.7178L35.0607 46.6953C36.1409 46.4021 37.177 45.9723 38.1496 45.4151L40.1312 46.2958C40.4259 46.4264 40.7725 46.362 41.0014 46.1336L43.7727 43.3623C44.0011 43.1339 44.0654 42.7877 43.934 42.4931L43.0537 40.5097C43.6104 39.537 44.0401 38.502 44.3329 37.4227L46.3563 36.6444C46.6583 36.5281 46.8578 36.2381 46.8578 35.9149V31.995C46.8578 31.6719 46.6583 31.3818 46.3563 31.2656ZM11.8301 32.212H8.49443V28.8763H11.8302L11.8301 32.212ZM12.6115 27.3135C13.0432 27.3135 13.3925 27.6633 13.3925 28.0949V32.993C13.3925 33.4246 13.0432 33.7744 12.6115 33.7744H7.71299C7.28232 33.7744 6.93154 33.4246 6.93154 32.993V28.0949C6.93154 27.6633 7.28223 27.3135 7.71299 27.3135H12.6115ZM11.8301 23.0064H8.49443V19.6702H11.8302L11.8301 23.0064ZM12.6115 18.1079C13.0432 18.1079 13.3925 18.4577 13.3925 18.8894V23.7875C13.3925 24.2191 13.0432 24.5689 12.6115 24.5689H7.71299C7.28232 24.5689 6.93154 24.2191 6.93154 23.7875V18.8894C6.93154 18.4577 7.28223 18.1079 7.71299 18.1079H12.6115ZM16.3302 13.9986C16.3302 13.5675 16.68 13.2172 17.1116 13.2172H33.4262C33.8578 13.2172 34.2071 13.5675 34.2071 13.9986C34.2071 14.4302 33.8578 14.7801 33.4262 14.7801H17.1116C16.68 14.78 16.3302 14.4302 16.3302 13.9986ZM16.3302 10.2671C16.3302 9.83545 16.68 9.48565 17.1116 9.48565H33.4262C33.8578 9.48565 34.2071 9.83545 34.2071 10.2671C34.2071 10.6982 33.8578 11.048 33.4262 11.048H17.1116C16.68 11.048 16.3302 10.6982 16.3302 10.2671ZM11.8301 13.8005H8.49443V10.4647H11.8302L11.8301 13.8005ZM12.6115 8.90234C13.0432 8.90234 13.3925 9.25215 13.3925 9.6833V14.5818C13.3925 15.0135 13.0432 15.3633 12.6115 15.3633H7.71299C7.28232 15.3633 6.93154 15.0135 6.93154 14.5818V9.6833C6.93154 9.25215 7.28223 8.90234 7.71299 8.90234H12.6115Z" fill="black"/>
</svg>