<svg width="50" height="50" viewBox="0 0 50 50" fill="none" xmlns="http://www.w3.org/2000/svg">
<g clip-path="url(#clip0_439_117069)">
<path d="M40.2307 50V40.023C40.2307 37.5775 38.6694 35.405 36.3517 34.6251L29.3362 32.2646L26.6447 31.8519C25.8722 31.5919 25.3518 30.8677 25.3518 30.0526V26.9612H18.3687V30.0526C18.3687 30.8677 17.8482 31.5919 17.0757 31.8519L8.83359 34.6252C6.51582 35.4051 4.95459 37.5776 4.95459 40.0231V49.0234C4.95459 49.5627 5.3918 50 5.93115 50H40.2307Z" fill="#F6DF7F"/>
<path d="M28.6191 34.4739L33.4221 36.09C35.7398 36.8699 37.3011 39.0425 37.3011 41.4879V50H40.2308V40.023C40.2308 37.5775 38.6696 35.4051 36.3518 34.6252L29.3363 32.2646C29.2219 32.6737 29.0937 33.0965 28.9498 33.5312C28.8422 33.8562 28.7316 34.1705 28.6191 34.4739Z" fill="#EFD06F"/>
<path d="M29.3363 32.2646C28.8985 33.8873 28.1053 36.1242 26.6098 38.5092C25.3295 40.5509 23.9301 42.0702 22.787 43.1345C22.6765 43.2374 22.5068 43.2398 22.3936 43.1399C21.2625 42.1424 19.8445 40.6764 18.5599 38.6583C16.9896 36.1914 16.2337 33.8662 15.8491 32.2646H29.3363Z" fill="#BEE49D"/>
<path d="M29.3363 32.2646H24.041C24.2495 32.751 24.6565 33.1406 25.1801 33.3168L28.6185 34.4737C28.9286 33.6596 29.1615 32.9125 29.3363 32.2646Z" fill="#A3D8A4"/>
<path d="M22.5928 35.2331C25.2623 35.2331 27.6645 34.0889 29.3363 32.2646L26.6448 31.8519C25.8723 31.5919 25.3519 30.8677 25.3519 30.0526V26.9612H18.3687V30.0526C18.3687 30.8677 17.8483 31.5919 17.0758 31.8519L15.8491 32.2646C17.521 34.0889 19.9231 35.2331 22.5928 35.2331Z" fill="#CE9775"/>
<path d="M25.1798 33.3166L27.1915 33.9936C27.9914 33.5272 28.7144 32.943 29.336 32.2646L28.1094 31.8519C27.7611 31.7216 27.1168 31.3609 26.9098 30.6411C26.8489 30.4544 26.8164 30.2564 26.8164 30.0526V26.9612H23.8867V31.5174C23.8868 32.3326 24.4072 33.0567 25.1798 33.3166Z" fill="#C6855B"/>
<path d="M40.2309 50V40.023C40.2309 37.8325 38.9777 35.8619 37.0508 34.9141L34.552 37.7024C33.7271 38.6231 33.2715 39.8145 33.2715 41.0503V50H40.2309Z" fill="#BEE49D"/>
<path d="M40.2263 39.8057C40.1642 37.8299 38.9867 35.8631 37.0512 34.9145C37.051 34.9144 37.0507 34.9143 37.0505 34.9141L35.1523 37.032C36.4828 38.0915 37.3009 39.718 37.3009 41.4878V50H40.2306V40.023C40.2306 39.9503 40.229 39.8778 40.2263 39.8057Z" fill="#A3D8A4"/>
<path d="M5.93115 50C5.3918 50 4.95459 49.5628 4.95459 49.0234V40.023C4.95459 37.8325 6.20771 35.8619 8.13467 34.9141L10.6335 37.7024C11.4584 38.6231 11.914 39.8145 11.914 41.0503V50H5.93115Z" fill="#BEE49D"/>
<path d="M22.5928 30.1594C21.0735 30.1594 19.6385 30.2575 18.3687 29.6172C15.3018 28.0707 13.1982 24.8927 13.1982 21.2235V15.5038H31.9874V21.2235C31.9874 24.8927 29.8839 28.0707 26.817 29.6172C25.5471 30.2575 22.5928 30.1594 22.5928 30.1594Z" fill="#CE9775"/>
<path d="M29.0575 15.5038V21.2235C29.0773 21.8582 29.1067 24.9258 26.7774 27.3588C24.6778 29.5519 21.4554 30.4004 18.3687 29.6167C19.1902 30.0229 20.2927 30.4308 21.6284 30.5689C21.9664 30.6039 22.2887 30.6183 22.5927 30.618C27.7812 30.618 31.9873 26.412 31.9873 21.2234V15.5037H29.0575V15.5038Z" fill="#C6855B"/>
<path d="M32.6309 21.2856H31.9873V17.6501H32.6309C33.6348 17.6501 34.4485 18.464 34.4485 19.4678C34.4485 20.4717 33.6348 21.2856 32.6309 21.2856Z" fill="#CE9775"/>
<path d="M12.5545 21.2856H13.198V17.6501H12.5545C11.5506 17.6501 10.7368 18.464 10.7368 19.4678C10.7367 20.4717 11.5506 21.2856 12.5545 21.2856Z" fill="#C6855B"/>
<path d="M31.6964 18.43H13.4891C12.2824 18.43 11.3042 17.4518 11.3042 16.2452C11.3042 15.0385 12.2824 14.0603 13.4891 14.0603H31.6965C32.9031 14.0603 33.8813 15.0385 33.8813 16.2452C33.8813 17.4518 32.9031 18.43 31.6964 18.43Z" fill="#EFD06F"/>
<path d="M31.6963 14.0603H28.7666C29.9732 14.0603 30.9515 15.0385 30.9515 16.2452C30.9515 17.4518 29.9732 18.43 28.7666 18.43H31.6963C32.9029 18.43 33.8812 17.4518 33.8812 16.2452C33.8813 15.0384 32.903 14.0603 31.6963 14.0603Z" fill="#EBC56A"/>
<path d="M24.6345 3.13586H20.5515C16.6512 3.13586 13.4893 6.29768 13.4893 10.1981V14.0603H31.6967V10.1981C31.6966 6.29768 28.5348 3.13586 24.6345 3.13586Z" fill="#F6DF7F"/>
<path d="M24.6343 3.13586H21.7046C25.605 3.13586 28.7668 6.29768 28.7668 10.1981V14.0603H31.6965V10.1981C31.6964 6.29768 28.5346 3.13586 24.6343 3.13586Z" fill="#EFD06F"/>
<path d="M19.2427 8.93467V2.77168C19.2427 1.64541 20.1557 0.732422 21.2819 0.732422H23.9038C25.0301 0.732422 25.9431 1.64541 25.9431 2.77168V8.93467C25.9431 9.15039 25.7682 9.32529 25.5524 9.32529H19.6334C19.4176 9.32529 19.2427 9.15039 19.2427 8.93467Z" fill="#EFD06F"/>
<path d="M23.9037 0.732422H21.2818C21.2299 0.732422 21.1789 0.736426 21.1279 0.740234C22.182 0.819141 23.0133 1.69746 23.0133 2.77168V9.32529H25.5523C25.7681 9.32529 25.943 9.15039 25.943 8.93467V2.77168C25.9429 1.64541 25.0299 0.732422 23.9037 0.732422Z" fill="#EBC56A"/>
<path d="M39.3408 46.6991V38.4347C39.3408 38.2884 39.2675 38.1533 39.1479 38.0726C37.955 37.267 37.1675 35.885 37.1675 34.3144C37.1675 32.8293 37.8715 31.513 38.9565 30.693C39.1154 30.5729 39.3408 30.6905 39.3408 30.8924V33.3425C39.3408 33.7694 39.6794 34.1154 40.0972 34.1154H42.1164C42.5341 34.1154 42.8728 33.7694 42.8728 33.3425V30.8924C42.8728 30.6905 43.098 30.5729 43.257 30.693C44.3422 31.513 45.0461 32.8293 45.0461 34.3144C45.0461 35.885 44.2586 37.267 43.0656 38.0726C42.9462 38.1533 42.8728 38.2883 42.8728 38.4347V46.6991H39.3408Z" fill="#EBF4FF"/>
<path d="M43.2569 30.6931C43.098 30.573 42.8727 30.6906 42.8727 30.8926V33.0329C42.9906 33.4392 43.0552 33.869 43.0552 34.3145C43.0552 35.8851 42.2677 37.2672 41.0747 38.0727C40.9553 38.1534 40.8818 38.2884 40.8818 38.4348V46.6992H42.8727V38.4348C42.8727 38.2884 42.946 38.1534 43.0655 38.0727C44.2586 37.2672 45.046 35.8851 45.046 34.3145C45.046 32.8295 44.3421 31.5132 43.2569 30.6931Z" fill="#DCEAFC"/>
<path d="M42.3466 49.2677H38.3176C37.693 49.2677 37.1865 48.7613 37.1865 48.1366V42.5582C37.1865 41.9336 37.6929 41.4271 38.3176 41.4271H42.3466C43.827 41.4271 45.027 42.6271 45.027 44.1075V46.5872C45.027 48.0677 43.8269 49.2677 42.3466 49.2677Z" fill="#CE9775"/>
<path d="M42.3467 41.4272H39.417C40.8974 41.4272 42.0974 42.6273 42.0974 44.1076V46.5873C42.0974 48.0677 40.8974 49.2677 39.417 49.2677H42.3467C43.8271 49.2677 45.0271 48.0677 45.0271 46.5873V44.1076C45.0271 42.6273 43.827 41.4272 42.3467 41.4272Z" fill="#C6855B"/>
<path d="M43.6054 40.9363V38.5885C44.9689 37.6061 45.7782 36.0204 45.7782 34.3145C45.7782 32.6638 45.0006 31.0915 43.6996 30.11C43.4047 29.8861 43.0157 29.8494 42.6839 30.0141C42.3487 30.1804 42.1405 30.517 42.1405 30.8926V33.3428C42.1405 33.3709 42.123 33.3828 42.1161 33.3828H40.0976C40.0893 33.3828 40.0731 33.3687 40.0731 33.3428V30.8926C40.0731 30.5176 39.8655 30.1812 39.5313 30.0146C39.2002 29.8497 38.8112 29.8857 38.5155 30.1089C37.3262 31.0071 36.5766 32.3964 36.455 33.887L28.3428 31.1573C27.8679 30.9977 27.5487 30.5537 27.5487 30.0527V30.0521C30.4149 28.4367 32.4204 25.4665 32.6888 22.0161C34.042 21.992 35.1806 20.8261 35.1806 19.4678C35.1806 18.7208 34.8483 18.0243 34.3053 17.5483C34.5021 17.1558 34.6137 16.7134 34.6137 16.2451C34.6137 14.8894 33.684 13.7467 32.4286 13.4209V10.1982C32.4286 6.65391 30.0418 3.58271 26.6728 2.6749C26.6215 1.19131 25.3994 0 23.9036 0H21.2817C19.7858 0 18.5638 1.19131 18.5125 2.6749C15.1435 3.58271 12.7566 6.654 12.7566 10.1982V13.4209C11.5013 13.7466 10.5716 14.8893 10.5716 16.2451C10.5716 16.7134 10.6831 17.1558 10.88 17.5483C10.3369 18.0243 10.0047 18.7208 10.0047 19.4678C10.0047 20.8279 11.1301 21.9933 12.4965 22.0161C12.7648 25.4665 14.7703 28.4367 17.6365 30.0521V30.0527C17.6365 30.5537 17.3174 30.9977 16.8424 31.1574L8.6002 33.9309C5.93047 34.8343 4.27129 37.2381 4.22217 40.023V49.2676C4.22217 49.6721 4.5501 50 4.95459 50H4.95488C5.35937 50 5.6873 49.6721 5.6873 49.2676V40.0234C5.72021 38.3414 6.54687 36.7551 7.98105 35.8402L10.088 38.1912C10.7932 38.9783 11.1815 39.9937 11.1815 41.0503V49.2676C11.1815 49.6721 11.5095 50 11.914 50C12.3185 50 12.6464 49.6721 12.6464 49.2676V47.0229H21.8602V49.2676C21.8602 49.6721 22.1881 50 22.5926 50C22.9971 50 23.325 49.6721 23.325 49.2676V47.0229H32.5389V49.2676C32.5389 49.6721 32.8668 50 33.2713 50C33.6758 50 34.0037 49.6721 34.0037 49.2676V41.0508C34.0037 39.9934 34.392 38.9777 35.097 38.191L36.8117 36.2779C37.1761 37.1955 37.792 38.0012 38.6082 38.5886V40.6947C37.473 40.5698 36.4543 41.4071 36.4542 42.5582V48.1366C36.4542 49.1641 37.2901 50.0001 38.3177 50.0001H42.3467C44.2285 50.0001 45.7595 48.4691 45.7595 46.5873V44.1076C45.7596 42.6702 44.8658 41.4384 43.6054 40.9363ZM33.7157 19.4678C33.7157 20.0221 33.2723 20.5064 32.7196 20.5484V18.9768C32.9417 18.8933 33.151 18.7835 33.3437 18.6512C33.5745 18.8536 33.7157 19.1499 33.7157 19.4678ZM12.4656 20.5484C11.9115 20.5063 11.4695 20.0249 11.4695 19.4678C11.4695 19.1499 11.6107 18.8536 11.8415 18.6511C12.0342 18.7834 12.2435 18.8932 12.4656 18.9767V20.5484ZM12.0364 16.2451C12.0364 15.4352 12.6927 14.7968 13.4957 14.7926H23.2154C23.6199 14.7926 23.9479 14.4646 23.9479 14.0602C23.9479 13.6557 23.6199 13.3277 23.2154 13.3277H14.2215V10.1982C14.2215 7.45654 15.9795 5.06348 18.5101 4.20537V8.59795C18.5101 9.00244 18.838 9.33037 19.2425 9.33037C19.647 9.33037 19.9749 9.00244 19.9749 8.59795V2.77168C19.9749 2.05107 20.5611 1.46484 21.2817 1.46484H23.9036C24.6242 1.46484 25.2105 2.05107 25.2105 2.77168V8.59805C25.2105 9.00254 25.5384 9.33047 25.9429 9.33047C26.3474 9.33047 26.6753 9.00254 26.6753 8.59805V4.20547C29.2059 5.06357 30.9639 7.45664 30.9639 10.1983V13.3278H26.6336C26.2291 13.3278 25.9012 13.6558 25.9012 14.0603C25.9012 14.4647 26.2291 14.7927 26.6336 14.7927C26.6424 14.7927 31.6914 14.7929 31.6997 14.7929C32.4991 14.7946 33.1489 15.4454 33.1489 16.2452C33.1489 17.0461 32.4974 17.6977 31.6964 17.6977H13.489C12.6881 17.6976 12.0364 17.046 12.0364 16.2451ZM13.9305 21.2236V19.1624H31.2547V21.2236C31.2547 25.9999 27.3688 29.8857 22.5926 29.8857C17.8163 29.8857 13.9305 25.9999 13.9305 21.2236ZM19.02 30.6996C20.1315 31.1201 21.3356 31.3506 22.5926 31.3506C23.8495 31.3506 25.0536 31.1201 26.1651 30.6996C26.3885 31.5815 27.0563 32.2958 27.951 32.5711C26.4521 33.8077 24.5541 34.5006 22.5925 34.5006C20.6309 34.5006 18.7328 33.8077 17.234 32.5711C18.1231 32.287 18.7986 31.5851 19.02 30.6996ZM22.5794 42.322C21.6049 41.4274 20.7168 40.437 19.9358 39.3731C19.6964 39.0471 19.2381 38.9768 18.912 39.2161C18.5859 39.4555 18.5156 39.9139 18.755 40.2399C19.664 41.4783 20.7088 42.6231 21.8602 43.6449V45.558H12.6464V41.0503C12.6464 39.6324 12.1253 38.2699 11.1789 37.2137L9.38525 35.2122L15.3393 33.2087C15.7262 34.5944 16.248 35.9415 16.8983 37.222C17.0836 37.5867 17.5286 37.7233 17.883 37.5434C18.2437 37.3603 18.3876 36.9193 18.2044 36.5587C17.8491 35.8591 17.5348 35.1382 17.2625 34.4013C18.8404 35.4114 20.6911 35.9654 22.5926 35.9654C24.462 35.9654 26.282 35.4294 27.8423 34.4514C27.3393 35.7274 26.7196 36.9549 25.9891 38.12C25.0282 39.6525 23.8823 41.0645 22.5794 42.322ZM34.0062 37.2133C33.0601 38.2692 32.539 39.632 32.539 41.0507V45.5579H23.3251V43.6329C24.826 42.229 26.14 40.6367 27.2302 38.8981C28.3443 37.1213 29.2159 35.2085 29.8278 33.2025L35.7998 35.212L34.0062 37.2133ZM37.9003 34.3145C37.9003 33.51 38.1549 32.7317 38.6083 32.0931V33.3428C38.6083 34.1726 39.2764 34.8477 40.0976 34.8477H42.1161C42.9373 34.8477 43.6054 34.1726 43.6054 33.3428V32.0849C44.0629 32.7212 44.3134 33.4938 44.3134 34.3145C44.3134 35.5865 43.6937 36.7644 42.6534 37.4667C42.3322 37.6852 42.1405 38.047 42.1405 38.4346V40.6948H40.0731V38.4346C40.0731 38.047 39.8814 37.6852 39.5582 37.4652C38.52 36.7644 37.9003 35.5865 37.9003 34.3145ZM44.2947 46.5872C44.2947 47.6613 43.4209 48.5352 42.3468 48.5352H38.3178C38.098 48.5352 37.9191 48.3563 37.9191 48.1365V42.5581C37.9191 42.3384 38.0979 42.1595 38.3178 42.1595H42.3468C43.4209 42.1595 44.2947 43.0333 44.2947 44.1074V46.5872ZM24.3415 27.2982C24.6713 27.064 24.7486 26.6067 24.5144 26.277C24.2801 25.9473 23.8229 25.8697 23.4931 26.1041C23.3503 26.2055 23.0508 26.3777 22.6484 26.3922C22.1931 26.4086 21.8534 26.2184 21.6914 26.1035C21.3613 25.8697 20.9042 25.9476 20.6703 26.2777C20.4364 26.6078 20.5145 27.0649 20.8445 27.2988C21.1447 27.5115 21.7617 27.8581 22.5933 27.8581C23.3218 27.8581 23.999 27.5415 24.3415 27.2982ZM18.3077 19.9871C17.9032 19.9871 17.5753 20.315 17.5753 20.7195V22.2354C17.5753 22.6399 17.9032 22.9679 18.3077 22.9679C18.7122 22.9679 19.0401 22.6399 19.0401 22.2354V20.7195C19.0401 20.315 18.7122 19.9871 18.3077 19.9871ZM26.8776 22.968C27.2821 22.968 27.6101 22.64 27.6101 22.2355V20.7196C27.6101 20.3151 27.2821 19.9872 26.8776 19.9872C26.4731 19.9872 26.1452 20.3151 26.1452 20.7196V22.2355C26.1452 22.64 26.4731 22.968 26.8776 22.968Z" fill="black"/>
</g>
<defs>
<clipPath id="clip0_439_117069">
<rect width="50" height="50" fill="white"/>
</clipPath>
</defs>
</svg>