<svg width="50" height="50" viewBox="0 0 50 50" fill="none" xmlns="http://www.w3.org/2000/svg">
<path d="M10.3209 32.4533C13.1393 32.4533 15.424 30.1686 15.424 27.3502C15.424 24.5318 13.1393 22.2471 10.3209 22.2471C7.50252 22.2471 5.21777 24.5318 5.21777 27.3502C5.21777 30.1686 7.50252 32.4533 10.3209 32.4533Z" fill="#FFD6BD"/>
<path fill-rule="evenodd" clip-rule="evenodd" d="M19.7631 41.8955C19.7631 36.7023 15.5142 32.4534 10.321 32.4534C5.12783 32.4535 0.878906 36.7024 0.878906 41.8955H19.7631Z" fill="#72D561"/>
<path d="M40.4872 32.392C43.2689 31.941 45.1584 29.3204 44.7075 26.5387C44.2565 23.7569 41.6359 21.8674 38.8542 22.3184C36.0724 22.7693 34.1829 25.3899 34.6339 28.1717C35.0848 30.9534 37.7054 32.8429 40.4872 32.392Z" fill="#FFD6BD"/>
<path fill-rule="evenodd" clip-rule="evenodd" d="M49.121 41.8955C49.121 36.7023 44.8721 32.4534 39.6789 32.4534C34.4857 32.4534 30.2368 36.7023 30.2368 41.8955H49.121Z" fill="#72D561"/>
<path d="M25.0001 35.743C27.8185 35.743 30.1032 33.4582 30.1032 30.6399C30.1032 27.8215 27.8185 25.5367 25.0001 25.5367C22.1817 25.5367 19.897 27.8215 19.897 30.6399C19.897 33.4582 22.1817 35.743 25.0001 35.743Z" fill="#FFD6BD"/>
<path fill-rule="evenodd" clip-rule="evenodd" d="M34.4423 45.1851C34.4423 39.992 30.1934 35.743 25.0002 35.743C19.807 35.743 15.5581 39.992 15.5581 45.1851H34.4423Z" fill="#64B5F6"/>
<path fill-rule="evenodd" clip-rule="evenodd" d="M25.0002 8.10459L26.7632 12.2983L31.2965 12.679L27.8527 15.6516L28.8915 20.0807L25.0002 17.7241L21.1089 20.0808L22.1477 15.6517L18.7039 12.6791L23.2372 12.2984L25.0002 8.10459ZM10.3212 4.81494L12.0842 9.00869L16.6175 9.38936L13.1737 12.362L14.2125 16.7911L10.3212 14.4345L6.42988 16.7911L7.46865 12.362L4.0249 9.38936L8.5582 9.00869L10.3212 4.81494ZM39.6792 4.81494L41.4422 9.00869L45.9755 9.38936L42.5317 12.362L43.5705 16.7911L39.6792 14.4345L35.7879 16.7911L36.8267 12.362L33.3829 9.38936L37.9162 9.00869L39.6792 4.81494Z" fill="#FFDA2D"/>
<path fill-rule="evenodd" clip-rule="evenodd" d="M8.62266 9.78718C8.91289 9.76277 9.16494 9.57976 9.27812 9.3116L10.32 6.83083L11.3628 9.3116C11.4764 9.57976 11.7285 9.76287 12.0183 9.78718L14.699 10.0126L12.6627 11.7707C12.4424 11.9611 12.3453 12.2578 12.4129 12.5402L13.027 15.1598L10.7252 13.7665C10.4764 13.6151 10.1649 13.6151 9.91562 13.7665L7.61387 15.1598L8.22842 12.5402C8.29463 12.2568 8.19893 11.9611 7.97822 11.7707L5.94141 10.0126L8.62266 9.78718ZM6.59961 12.6447L5.66855 16.6121C5.59629 16.9189 5.71543 17.2382 5.97031 17.4226C6.10596 17.5224 6.26748 17.5721 6.42939 17.5721C6.56924 17.5721 6.70908 17.5353 6.83379 17.4591L10.32 15.3477L13.8076 17.4591C14.0758 17.6223 14.4166 17.6086 14.6706 17.4227C14.9254 17.2383 15.0445 16.919 14.9724 16.6122L14.0418 12.6448L17.1278 9.98054C17.3651 9.77537 17.4567 9.44744 17.3602 9.14841C17.2621 8.849 16.9958 8.63777 16.6826 8.6116L12.62 8.2698L11.0409 4.51257C10.9186 4.22283 10.6356 4.03328 10.3201 4.03328C10.006 4.03328 9.72256 4.22283 9.60019 4.51257L8.02051 8.2697L3.95879 8.6115C3.64512 8.63777 3.37871 8.8489 3.28125 9.14832C3.18418 9.44734 3.27617 9.77527 3.51357 9.98044L6.59961 12.6447ZM37.9814 9.78718C38.2703 9.76277 38.5233 9.57976 38.6355 9.3116L39.6783 6.83083L40.7216 9.3116C40.8338 9.57976 41.0863 9.76287 41.3757 9.78718L44.0565 10.0126L42.0201 11.7707C41.8003 11.9611 41.7036 12.2569 41.7703 12.5402L42.3844 15.1598L40.0826 13.7665C39.9584 13.6911 39.819 13.6529 39.6783 13.6529C39.538 13.6529 39.3981 13.6911 39.274 13.7665L36.9723 15.1598L37.5868 12.5402C37.653 12.2568 37.5564 11.9611 37.3366 11.7707L35.2998 10.0126L37.9814 9.78718ZM35.9575 12.6447L35.0261 16.6121C34.9548 16.9189 35.0739 17.2382 35.3278 17.4226C35.5826 17.6085 35.9226 17.6222 36.1922 17.459L39.6784 15.3476L43.1646 17.459C43.2897 17.5353 43.4306 17.572 43.5699 17.572C43.73 17.572 43.891 17.5224 44.029 17.4225C44.282 17.2381 44.4016 16.9188 44.3326 16.612L43.3993 12.6446L46.4854 9.98035C46.7245 9.77517 46.8165 9.44724 46.7153 9.14822C46.6188 8.8488 46.352 8.63757 46.0392 8.6114L41.9784 8.2696L40.3993 4.51238C40.2774 4.22263 39.9932 4.03308 39.6785 4.03308C39.3644 4.03308 39.0801 4.22263 38.9591 4.51238L37.379 8.2696L33.3173 8.6114C33.004 8.63767 32.7363 8.8488 32.6393 9.14822C32.5417 9.44724 32.6338 9.77517 32.872 9.98035L35.9575 12.6447ZM23.3022 13.0771C23.5916 13.0527 23.8446 12.8692 23.9568 12.6015L24.9996 10.1204L26.0415 12.6015C26.1551 12.8692 26.4072 13.0528 26.697 13.0771L29.3787 13.3016L27.3414 15.0606C27.1216 15.2502 27.0249 15.5469 27.0916 15.8302L27.7057 18.4503L25.4039 17.0555C25.2802 16.9805 25.1394 16.9433 24.9995 16.9433C24.8592 16.9433 24.7194 16.9806 24.5942 17.0555L22.2925 18.4503L22.9079 15.8302C22.9741 15.5468 22.8775 15.2502 22.6577 15.0606L20.6209 13.3016L23.3022 13.0771ZM21.2783 15.9336L20.3478 19.9023C20.276 20.2087 20.3942 20.5284 20.649 20.7129C20.9029 20.8973 21.2437 20.9121 21.5124 20.7487L24.9996 18.6374L28.4859 20.7487C28.611 20.8242 28.7509 20.8624 28.8902 20.8624C29.0526 20.8624 29.2136 20.8113 29.3502 20.7129C29.6041 20.5284 29.7232 20.2088 29.651 19.9023L28.7204 15.9336L31.8065 13.2703C32.0448 13.0656 32.1354 12.7362 32.0389 12.4377C31.9413 12.1386 31.6746 11.9266 31.3608 11.9005L27.2996 11.5596L25.7195 7.80154C25.5972 7.51169 25.3143 7.32312 24.9996 7.32312C24.6854 7.32312 24.4012 7.51169 24.2788 7.80154L22.7001 11.5596L18.6375 11.9005C18.3252 11.9266 18.0574 12.1387 17.9604 12.4377C17.8628 12.7362 17.9548 13.0656 18.1931 13.2703L21.2783 15.9336ZM34.3766 41.1143C33.8287 39.8572 33.0357 38.7302 32.0573 37.796C33.5684 35.0075 36.499 33.2343 39.6784 33.2343C44.19 33.2343 47.9067 36.703 48.3023 41.1143H34.3766ZM16.3739 44.4042H33.6258C33.2293 39.9933 29.5135 36.5255 25.0015 36.5246C25.001 36.5246 24.9996 36.5246 24.9996 36.5246C24.9987 36.5246 24.9978 36.5246 24.9978 36.5246C20.4862 36.5255 16.7695 39.9933 16.3739 44.4042ZM1.69521 41.1143C2.09082 36.703 5.8084 33.2343 10.32 33.2343C13.4999 33.2343 16.4314 35.0075 17.9411 37.796C16.9637 38.7302 16.1706 39.8572 15.6228 41.1143H1.69521ZM5.99883 27.3506C5.99883 24.9669 7.93721 23.0285 10.32 23.0285C12.7041 23.0285 14.6425 24.9669 14.6425 27.3506C14.6425 29.7333 12.7041 31.6717 10.32 31.6717C7.93721 31.6717 5.99883 29.7333 5.99883 27.3506ZM20.6775 30.6394C20.6775 28.2567 22.6159 26.3182 24.9996 26.3182C27.3828 26.3182 29.3212 28.2566 29.3212 30.6394C29.3212 33.0222 27.3837 34.9596 25.0015 34.962C25.0015 34.962 25.001 34.962 24.9996 34.962C24.9987 34.962 24.9978 34.962 24.9969 34.962C22.615 34.9596 20.6775 33.0221 20.6775 30.6394ZM35.3563 27.3506C35.3563 24.9669 37.2956 23.0285 39.6783 23.0285C42.061 23.0285 44.0013 24.9669 44.0013 27.3506C44.0013 29.7333 42.061 31.6717 39.6783 31.6717C37.2956 31.6717 35.3563 29.7333 35.3563 27.3506ZM42.9793 32.2185C44.535 31.1592 45.5653 29.3721 45.5653 27.3505C45.5653 24.1052 42.9236 21.4658 39.6784 21.4658C36.4332 21.4658 33.7938 24.1052 33.7938 27.3505C33.7938 29.3758 34.8231 31.1647 36.3844 32.2245C34.073 33.0184 32.084 34.6307 30.83 36.7918C30.0572 36.2536 29.2076 35.8193 28.3005 35.5089C29.858 34.4491 30.8838 32.662 30.8838 30.6394C30.8838 27.3951 28.2439 24.7557 24.9996 24.7557C21.7544 24.7557 19.1149 27.3951 19.1149 30.6394C19.1149 32.662 20.1402 34.4491 21.6987 35.5089C20.7916 35.8194 19.9411 36.2536 19.1688 36.7918C17.9157 34.6307 15.9254 33.0184 13.614 32.2245C15.1766 31.1647 16.2046 29.3758 16.2046 27.3505C16.2046 24.1052 13.5652 21.4658 10.3199 21.4658C7.07607 21.4658 4.43623 24.1052 4.43623 27.3505C4.43623 29.3721 5.46152 31.1592 7.01953 32.2185C2.99785 33.5944 0.097168 37.4132 0.097168 41.8953C0.097168 42.3267 0.447168 42.6768 0.878711 42.6768H15.0878C14.8845 43.4795 14.7759 44.319 14.7759 45.1851C14.7759 45.6162 15.126 45.9667 15.5574 45.9667H34.4414C34.8729 45.9667 35.2225 45.6162 35.2225 45.1851C35.2225 44.319 35.1139 43.4795 34.911 42.6768H49.121C49.5534 42.6768 49.9029 42.3267 49.9029 41.8953C49.903 37.4133 47.0005 33.5944 42.9793 32.2185Z" fill="black"/>
</svg>