<svg width="31" height="25" viewBox="0 0 31 25" fill="none" xmlns="http://www.w3.org/2000/svg">
<path d="M13.7969 1.28125C14.2656 0.90625 14.75 0.90625 15.25 1.28125L25.6562 10.1406C25.1875 10.0469 24.7188 10 24.25 10C23.5938 10 22.9531 10.0781 22.3281 10.2344L14.5 3.57812L6.25 10.6094V21.25C6.25 21.6875 6.39062 22.0469 6.67188 22.3281C6.95312 22.6094 7.3125 22.75 7.75 22.75H10V15.625C10 15.0938 10.1875 14.6562 10.5625 14.3125C10.9062 13.9375 11.3438 13.75 11.875 13.75H17.125C17.1875 13.75 17.25 13.75 17.3125 13.75C16.875 14.4375 16.5469 15.1875 16.3281 16H12.25V22.75H17.3594C17.9219 23.625 18.6406 24.375 19.5156 25H7.75C6.6875 24.9688 5.79688 24.6094 5.07812 23.9219C4.39062 23.2031 4.03125 22.3125 4 21.25V12.5312L2.875 13.4688C2.28125 13.875 1.75 13.8438 1.28125 13.375C0.875 12.7812 0.90625 12.25 1.375 11.7812L13.7969 1.28125ZM31 18.25C30.9375 20.1562 30.2812 21.75 29.0312 23.0312C27.75 24.2812 26.1562 24.9375 24.25 25C22.3438 24.9375 20.75 24.2812 19.4688 23.0312C18.2188 21.75 17.5625 20.1562 17.5 18.25C17.5625 16.3438 18.2188 14.75 19.4688 13.4688C20.75 12.2188 22.3438 11.5625 24.25 11.5C26.1562 11.5625 27.75 12.2188 29.0312 13.4688C30.2812 14.75 30.9375 16.3438 31 18.25ZM26.3594 16.2344L23.5 19.0469L22.1406 17.7344C21.7969 17.4219 21.4531 17.4219 21.1094 17.7344C20.7969 18.0781 20.7969 18.4219 21.1094 18.7656L22.9844 20.6406C23.3281 20.9531 23.6719 20.9531 24.0156 20.6406L27.3906 17.2656C27.7031 16.9219 27.7031 16.5781 27.3906 16.2344C27.0469 15.9219 26.7031 15.9219 26.3594 16.2344Z" fill="#FF5E14"/>
</svg>