<svg width="60" height="60" viewBox="0 0 60 60" fill="none" xmlns="http://www.w3.org/2000/svg">
<g clip-path="url(#clip0_439_142878)">
<path d="M42 22.051V9C42 6.794 40.206 5 38 5H28.722C28.375 4.405 27.737 4 27 4H25.899C25.435 1.721 23.415 0 21 0C18.585 0 16.565 1.721 16.101 4H15C14.263 4 13.625 4.405 13.278 5H4C1.794 5 0 6.794 0 9V53C0 55.206 1.794 57 4 57H30.794C33.746 58.89 37.242 60 41 60C51.477 60 60 51.477 60 41C60 30.861 52.011 22.576 42 22.051ZM40 9V22.051C39.323 22.087 38.656 22.156 38 22.261V11C38 9.897 37.103 9 36 9H29V7H38C39.103 7 40 7.897 40 9ZM15 6H17C17.553 6 18 5.553 18 5C18 3.346 19.346 2 21 2C22.654 2 24 3.346 24 5C24 5.553 24.447 6 25 6L27 5.998V10H15V6ZM27 12C27.737 12 28.375 11.595 28.722 11H36V22.69C27.945 24.893 22 32.256 22 41C22 44.671 23.064 48.091 24.875 51H6V11H13.278C13.625 11.595 14.263 12 15 12H27ZM4 55C2.897 55 2 54.103 2 53V9C2 7.897 2.897 7 4 7H13V9H6C4.897 9 4 9.897 4 11V51C4 52.103 4.897 53 6 53H26.285C26.87 53.716 27.518 54.376 28.2 55H4ZM41 58C31.626 58 24 50.374 24 41C24 31.626 31.626 24 41 24C50.374 24 58 31.626 58 41C58 50.374 50.374 58 41 58Z" fill="#FF5E14"/>
<path d="M51.2629 33.9139L48.1419 31.4269C47.7099 31.0829 47.1519 30.9399 46.6029 31.0259C46.0579 31.1159 45.5729 31.4329 45.2739 31.8969L38.0789 43.0419L35.9079 40.3409C35.1599 39.4099 33.5999 39.4079 32.8519 40.3409L30.4299 43.3539C30.0949 43.7709 29.9489 44.2929 30.0159 44.8239C30.0829 45.3529 30.3569 45.8219 30.7859 46.1409L36.7219 50.5749C37.1029 50.8599 37.5539 50.9989 38.0019 50.9989C38.6019 50.9989 39.1969 50.7509 39.6159 50.2729L51.5139 36.7319C51.8659 36.3319 52.0389 35.7979 51.9929 35.2689C51.9449 34.7389 51.6789 34.2459 51.2639 33.9149L51.2629 33.9139ZM38.1139 48.9509C38.0649 49.0079 37.9769 49.0139 37.9189 48.9719L32.0209 44.5659L34.3499 41.5919L37.3889 45.3739C37.5899 45.6249 37.8939 45.7509 38.2199 45.7469C38.5409 45.7299 38.8339 45.5599 39.0079 45.2899L46.8969 32.9909L50.0129 35.4099L38.1149 48.9509H38.1139Z" fill="#0E121D"/>
<path d="M21 4.00002C20.447 4.00002 20 4.44702 20 5.00002V5.03102C20 5.58402 20.447 6.01502 21 6.01502C21.553 6.01502 22 5.55202 22 4.99902C22 4.44602 21.553 4.00002 21 4.00002Z" fill="#0E121D"/>
<path d="M9 20C9 20.553 9.447 21 10 21H24C24.553 21 25 20.553 25 20C25 19.447 24.553 19 24 19H10C9.447 19 9 19.447 9 20Z" fill="#0E121D"/>
<path d="M29.2933 21.707C29.4813 21.895 29.7353 22 30.0003 22C30.0233 22 30.0473 22 30.0713 21.997C30.3603 21.976 30.6263 21.832 30.8003 21.6L33.8003 17.6C34.1323 17.159 34.0423 16.532 33.6002 16.201C33.1592 15.871 32.5323 15.959 32.2013 16.401L29.8923 19.478L29.7073 19.293C29.3163 18.902 28.6843 18.902 28.2933 19.293C27.9022 19.684 27.9022 20.316 28.2933 20.707L29.2933 21.707Z" fill="#0E121D"/>
<path d="M21 30H10C9.447 30 9 30.447 9 31C9 31.553 9.447 32 10 32H21C21.553 32 22 31.553 22 31C22 30.447 21.553 30 21 30Z" fill="#0E121D"/>
<path d="M18 41H10C9.447 41 9 41.447 9 42C9 42.553 9.447 43 10 43H18C18.553 43 19 42.553 19 42C19 41.447 18.553 41 18 41Z" fill="#0E121D"/>
</g>
<defs>
<clipPath id="clip0_439_142878">
<rect width="60" height="60" fill="white"/>
</clipPath>
</defs>
</svg>