<svg width="60" height="60" viewBox="0 0 60 60" fill="none" xmlns="http://www.w3.org/2000/svg">
<g clip-path="url(#clip0_439_142868)">
<path d="M21.9415 37.3177H18.4231C17.3272 37.3177 16.4355 36.4265 16.4355 35.3301V33.3691C16.4355 33.2533 16.3536 33.153 16.2323 33.1196C15.0123 32.7873 13.8359 32.2984 12.7359 31.6671C12.6361 31.6099 12.5184 31.6213 12.4438 31.696L11.0431 33.0967C10.6677 33.4721 10.1687 33.6785 9.63774 33.6785C9.10719 33.6785 8.60777 33.4721 8.23241 33.0967L5.74447 30.6088C5.3691 30.2334 5.16219 29.734 5.16219 29.2034C5.16219 28.6724 5.3691 28.173 5.74447 27.7981L7.14476 26.3973C7.21984 26.3227 7.23128 26.2051 7.1736 26.1053C6.54281 25.0053 6.05392 23.8288 5.72158 22.6089C5.68816 22.4876 5.58791 22.4057 5.4721 22.4057H3.51104C2.41516 22.4057 1.52344 21.5139 1.52344 20.4181V16.8997C1.52344 15.8038 2.41516 14.9121 3.51104 14.9121H5.4721C5.58791 14.9121 5.68816 14.8306 5.72158 14.7088C6.05392 13.4894 6.54281 12.3129 7.17406 11.2124C7.23128 11.1126 7.21984 10.995 7.14522 10.9204L5.74447 9.51963C5.3691 9.14473 5.16219 8.64531 5.16219 8.1143C5.16219 7.58376 5.3691 7.08434 5.74447 6.70897L8.23241 4.22103C8.60777 3.84566 9.10674 3.63921 9.63774 3.63921C10.1687 3.63921 10.6682 3.84566 11.0435 4.22149L12.4438 5.62178C12.5184 5.6964 12.6356 5.70784 12.7359 5.65062C13.8359 5.01937 15.0119 4.53094 16.2318 4.19814C16.354 4.16473 16.4355 4.06448 16.4355 3.94866V1.98761C16.4355 0.891722 17.3272 0 18.4231 0H21.9415C23.0374 0 23.9291 0.891722 23.9291 1.98761V3.94866C23.9291 4.06448 24.0106 4.16473 24.1323 4.19768C25.3518 4.53048 26.5283 5.01937 27.6283 5.65062C27.7285 5.70784 27.8457 5.6964 27.9208 5.62178L29.3211 4.22103C30.0979 3.44466 31.3554 3.44421 32.1322 4.22149L32.3954 4.4847C33.2171 5.30593 31.9752 6.55013 31.1526 5.72753C30.9905 5.58745 30.7827 5.2455 30.5644 5.46431L29.1636 6.86461C28.5301 7.49815 27.539 7.62587 26.7535 7.17497C25.783 6.61833 24.7453 6.18712 23.67 5.8937C22.7874 5.65337 22.1708 4.8532 22.1708 3.9482V1.98761C22.1708 1.86081 22.0678 1.75781 21.941 1.75781H18.4227C18.2963 1.75781 18.1933 1.86081 18.1933 1.98761V3.94866C18.1933 4.85366 17.5767 5.65337 16.6942 5.89415C15.6184 6.18758 14.5807 6.61833 13.6102 7.17497C12.8251 7.62587 11.8341 7.49815 11.2005 6.86461L9.80025 5.46431C9.7444 5.40847 9.68123 5.39702 9.63774 5.39702C9.59425 5.39702 9.53108 5.40847 9.47569 5.46431L6.98729 7.95225C6.9319 8.00764 6.92 8.07127 6.92 8.1143C6.92 8.15779 6.9319 8.22142 6.98729 8.27681L8.38805 9.67756C9.02159 10.3111 9.14931 11.3017 8.69841 12.0872C8.14177 13.0581 7.71056 14.0954 7.41713 15.1712C7.17681 16.0537 6.37664 16.6699 5.4721 16.6699H3.51104C3.38424 16.6699 3.28125 16.7733 3.28125 16.8997V20.4181C3.28125 20.5449 3.38424 20.6478 3.51104 20.6478H5.4721C6.37664 20.6478 7.17681 21.264 7.41759 22.1466C7.71056 23.2228 8.14177 24.2601 8.69841 25.2305C9.14931 26.016 9.02159 27.0066 8.38805 27.6402L6.98775 29.0409C6.9319 29.0963 6.92046 29.1599 6.92046 29.2034C6.92046 29.2465 6.93236 29.3101 6.98775 29.3659L9.47569 31.8534C9.56541 31.9431 9.71098 31.9436 9.8007 31.8534L11.201 30.4531C11.8345 29.8196 12.8256 29.6919 13.6111 30.1428C14.5816 30.6994 15.6189 31.1306 16.6946 31.424C17.5772 31.6644 18.1938 32.4645 18.1938 33.3695V35.3301C18.1938 35.4569 18.2968 35.5599 18.4231 35.5599H21.9415C22.0683 35.5599 22.1713 35.4569 22.1713 35.3301V33.3695C22.1713 32.4645 22.7879 31.6644 23.6705 31.424C24.7934 31.1183 25.2539 32.8143 24.1328 33.1196C24.011 33.153 23.9291 33.2533 23.9291 33.3695V35.3301C23.9291 36.426 23.0374 37.3177 21.9415 37.3177Z" fill="#0E121D"/>
<path d="M11.8984 18.6589C11.8984 12.8472 17.7422 8.86327 23.1274 10.915C24.2127 11.3292 23.5888 12.9722 22.5011 12.5579C18.2513 10.9379 13.6558 14.0928 13.6558 18.6589C13.6558 22.3732 16.7841 25.3954 20.5717 25.1734C21.7298 25.1033 21.8383 26.8598 20.6751 26.9284C15.8993 27.2095 11.8984 23.4009 11.8984 18.6589Z" fill="#0E121D"/>
<path d="M50.1604 39.0294L41.255 37.2977V35.0973C43.7558 33.3912 45.1099 30.9751 45.4047 28.2615C46.7029 28.1585 47.7273 27.0695 47.7273 25.7456V23.9393C49.8436 23.0192 49.5579 19.9307 47.319 19.4097V18.7126C47.319 12.4444 42.2374 7.36279 35.9697 7.36279H35.018C28.7499 7.36279 23.6687 12.4444 23.6687 18.7121V19.4097C21.4307 19.9302 21.1432 23.0192 23.2604 23.9393V25.7456C23.2604 27.0695 24.2849 28.1585 25.5831 28.2615C25.8403 30.629 26.95 32.7961 28.7004 34.303C29.0355 34.5919 29.3798 34.8565 29.7327 35.0973V37.2977L20.8274 39.0294C16.1289 39.9431 12.4668 42.5918 12.4668 47.4788V56.4185C12.4668 58.3965 14.0703 60 16.0483 60H54.9394C56.9174 60 58.5209 58.3965 58.5209 56.4185V47.4788C58.5209 42.6078 54.8813 39.9473 50.1604 39.0294ZM42.8449 39.3975C42.2067 40.3254 41.2312 41.7417 40.1775 43.267C39.7481 43.8891 38.9777 43.9682 38.6765 43.7879L37.2881 42.9552C38.6421 42.1555 40.5158 40.7822 41.0843 39.0551L42.8449 39.3975ZM35.4936 41.9303C34.1588 41.2583 31.4978 39.598 31.4905 38.0288C31.4905 38.0265 31.4905 38.0242 31.4905 38.0219V36.0677C34.0485 37.1709 36.936 37.1723 39.4972 36.0677V38.0219C39.4972 39.5939 36.8298 41.2578 35.4936 41.9303ZM25.4265 18.7121C25.4265 15.1068 27.426 11.9596 30.3745 10.3218V11.4236C30.3745 12.5854 32.1323 12.5872 32.1323 11.4236V9.56417C32.921 9.31469 33.7532 9.165 34.6147 9.1293V13.4753C34.6147 14.6371 36.3725 14.6389 36.3725 13.4753V9.1293C37.2341 9.165 38.0667 9.31469 38.8554 9.56417V11.4236C38.8554 12.5854 40.6133 12.5872 40.6133 11.4236V10.3218C43.5617 11.9596 45.5612 15.1068 45.5612 18.7121V19.3475H25.4265V18.7121ZM24.2116 21.1053H46.7761C47.6184 21.1053 47.6175 22.3783 46.7761 22.3783H24.2116C23.3689 22.3783 23.3698 21.1053 24.2116 21.1053ZM27.285 27.3716C27.275 26.8937 26.8845 26.5115 26.4061 26.5115C26.2596 26.4753 25.0177 26.7399 25.0177 25.7456V24.1366H45.9695V25.7456C45.9695 26.7381 44.6947 26.4835 44.5811 26.5115C44.1032 26.5115 43.7128 26.8937 43.7022 27.3716C43.6551 29.5689 42.7213 31.6096 41.1406 32.971C37.7838 35.8613 33.2039 35.8617 29.8471 32.971C28.266 31.6096 27.3322 29.5689 27.285 27.3716ZM29.903 39.0551C30.472 40.7822 32.3451 42.1555 33.6997 42.9552C32.3081 43.7005 32.4065 43.9234 31.7743 43.8488C31.3811 43.8016 31.0282 43.5828 30.8029 43.2569C29.7519 41.7353 28.7796 40.3231 28.1424 39.3975L29.903 39.0551ZM19.7622 58.2422H16.0479C15.0408 58.2422 14.2241 57.4256 14.2241 56.4185V47.4788C14.2241 44.8449 15.4207 43.0239 18.0456 41.766C18.1518 42.2338 19.7622 46.605 19.7622 52.7129V58.2422ZM34.6147 58.2422H21.52V52.7129C21.52 46.095 19.8491 41.8337 19.6848 41.1123C20.7111 40.7712 19.9489 41.034 26.261 39.7632C28.0751 42.3995 31.4607 47.3182 33.4566 50.1549C34.2146 51.232 34.6147 52.4973 34.6147 53.8143V58.2422ZM35.4936 50.1384C35.3188 49.7956 35.1187 49.4632 34.8944 49.1437C34.2197 48.1852 33.344 46.9272 32.4303 45.6084C32.7017 45.5484 32.9668 45.4441 33.2154 45.2953L35.4936 43.9289L37.7724 45.2953C38.0205 45.4441 38.286 45.5484 38.5574 45.6084C37.6437 46.9263 36.768 48.1842 36.0933 49.1437C35.8685 49.4632 35.6685 49.7956 35.4936 50.1384ZM56.7631 56.4185C56.7631 57.4256 55.9469 58.2422 54.9394 58.2422H51.2251V54.9262C51.2251 53.7644 49.4673 53.7625 49.4673 54.9262V58.2422H36.3725V53.8143C36.3725 52.4973 36.7731 51.232 37.5307 50.1554C38.6659 48.5418 43.3401 41.7966 44.7267 39.7632C51.0356 41.0335 50.2748 40.7708 51.3025 41.1123C51.1748 41.6529 49.6957 45.6725 49.4916 51.3744C49.4495 52.5389 51.2063 52.5962 51.248 51.4376C51.4458 45.9197 52.7994 42.3693 52.9417 41.766C55.5665 43.0239 56.7631 44.8449 56.7631 47.4784V56.4185Z" fill="#FF5E14"/>
</g>
<defs>
<clipPath id="clip0_439_142868">
<rect width="60" height="60" fill="white"/>
</clipPath>
</defs>
</svg>