<svg width="60" height="60" viewBox="0 0 60 60" fill="none" xmlns="http://www.w3.org/2000/svg">
<g clip-path="url(#clip0_439_142856)">
<path d="M35.2427 33.1302C34.9053 33.2478 34.6562 33.5364 34.5893 33.8874C34.5223 34.2384 34.6477 34.5984 34.9183 34.8319C35.1888 35.0654 35.5633 35.1368 35.9007 35.0192C44.2063 32.1407 49.2193 23.6857 47.7598 15.0175C46.3003 6.34923 38.795 0.00195312 30.0047 0.00195312C21.2145 0.00195312 13.7091 6.34923 12.2496 15.0175C10.7901 23.6857 15.8031 32.1407 24.1087 35.0192C24.6306 35.2007 25.2008 34.9246 25.3822 34.4027C25.5636 33.8808 25.2876 33.3107 24.7657 33.1292C23.0368 32.5259 21.4246 31.6294 19.9997 30.4792V29.3902C19.9956 26.2707 21.9164 23.4721 24.8287 22.3542C27.9267 24.549 32.0727 24.549 35.1707 22.3542C38.083 23.4721 40.0038 26.2707 39.9997 29.3902V30.4832C38.5773 31.6315 36.9683 32.5268 35.2427 33.1302ZM22.9997 15.0002C22.9997 11.1342 26.1337 8.00022 29.9997 8.00022C33.8657 8.00022 36.9997 11.1342 36.9997 15.0002C36.9997 18.8662 33.8657 22.0002 29.9997 22.0002C26.1356 21.9958 23.0041 18.8644 22.9997 15.0002ZM36.7997 20.8732C39.9437 17.242 39.6823 11.7818 36.2056 8.46768C32.7289 5.15354 27.2625 5.15354 23.7858 8.46768C20.3092 11.7818 20.0477 17.242 23.1917 20.8732C20.2472 22.3787 18.294 25.3035 18.0317 28.6002C12.3311 22.1756 12.7202 12.3961 18.9132 6.44465C25.1061 0.493171 34.8933 0.493171 41.0863 6.44465C47.2792 12.3961 47.6683 22.1756 41.9677 28.6002C41.7046 25.3016 39.7479 22.376 36.7997 20.8732Z" fill="#FF5E14"/>
<path d="M21.3998 59.6109C22.0113 60.0622 22.8267 60.1247 23.4998 59.7719L30.0068 56.3909L36.5128 59.7729C37.1875 60.1237 38.0027 60.0615 38.6164 59.6124C39.2301 59.1634 39.536 58.4051 39.4058 57.6559L38.1698 50.5239L43.3998 45.4829C43.9492 44.9532 44.1493 44.157 43.9156 43.4305C43.6818 42.704 43.055 42.1739 42.2998 42.0639L35.0398 41.0209L31.7998 34.5079C31.4634 33.8259 30.7672 33.3957 30.0068 33.3999C29.2486 33.3972 28.5548 33.8257 28.2178 34.5049L24.9598 41.0209L17.7158 42.0629C16.9601 42.1726 16.3328 42.7029 16.099 43.4298C15.8653 44.1567 16.0657 44.9533 16.6158 45.4829L21.8478 50.5239L20.6108 57.6559C20.4786 58.4048 20.7849 59.1635 21.3998 59.6109ZM17.9998 44.0429L25.7618 42.9259C26.0861 42.8794 26.3671 42.6769 26.5138 42.3839L30.0058 35.3999L33.4828 42.3819C33.6292 42.6759 33.9107 42.8793 34.2358 42.9259L42.0138 44.0429L36.3998 49.4519C36.161 49.6823 36.052 50.016 36.1088 50.3429L37.4358 57.9999L30.4688 54.3789C30.1798 54.2288 29.8358 54.2288 29.5468 54.3789L22.5788 57.9999L23.9058 50.3449C23.9626 50.018 23.8536 49.6843 23.6148 49.4539L17.9998 44.0429Z" fill="#0E121D"/>
<path d="M4.70031 44.2218L3.72331 49.8708C3.62901 50.3975 3.77256 50.9389 4.11541 51.3497C4.45825 51.7604 4.96527 51.9985 5.50031 51.9998C5.79244 51.9993 6.08017 51.9287 6.33931 51.7938L11.5003 49.1078L16.6583 51.7998C16.9752 51.9649 17.3561 51.9483 17.6575 51.7564C17.9589 51.5645 18.135 51.2264 18.1195 50.8694C18.104 50.5125 17.8992 50.1909 17.5823 50.0258L11.9623 47.0958C11.6728 46.945 11.3278 46.945 11.0383 47.0958L5.76131 49.8448L6.76131 44.0448C6.81813 43.7179 6.70911 43.3842 6.47031 43.1538L2.22331 39.0538L8.10031 38.2098C8.42484 38.1631 8.70582 37.9602 8.85231 37.6668L11.5003 32.3728L14.1383 37.6658C14.2849 37.9601 14.5668 38.1635 14.8923 38.2098L21.1713 39.1098C21.7181 39.188 22.2247 38.8081 22.3028 38.2613C22.381 37.7146 22.0011 37.208 21.4543 37.1298L15.6943 36.3048L13.1173 31.1328C12.812 30.5175 12.1832 30.1296 11.4963 30.1328H11.4903C10.8109 30.1315 10.1901 30.5172 9.89031 31.1268L7.30031 36.3048L1.55731 37.1288C0.869773 37.2205 0.296074 37.699 0.0825696 38.359C-0.130935 39.0189 0.0537471 39.7428 0.557309 40.2198L4.70031 44.2218Z" fill="#FF5E14"/>
<path d="M59.91 38.356C59.7012 37.6994 59.1327 37.222 58.45 37.13L52.7 36.305L50.116 31.128C49.8171 30.5166 49.1964 30.1287 48.516 30.128H48.51C47.8227 30.1243 47.1934 30.5123 46.888 31.128L44.312 36.299L38.551 37.124C38.1973 37.1745 37.8974 37.4099 37.7643 37.7415C37.6313 38.0731 37.6852 38.4505 37.9058 38.7315C38.1265 39.0125 38.4803 39.1545 38.834 39.104L45.114 38.204C45.4394 38.1576 45.7213 37.9542 45.868 37.66L48.5 32.373L51.143 37.667C51.2894 37.9603 51.5704 38.1632 51.895 38.21L57.769 39.053L53.522 43.153C53.2832 43.3833 53.1741 43.7171 53.231 44.044L54.236 49.844L48.959 47.092C48.6694 46.9411 48.3245 46.9411 48.035 47.092L42.415 50.022C42.0981 50.187 41.8933 50.5086 41.8778 50.8656C41.8623 51.2225 42.0384 51.5607 42.3398 51.7526C42.6412 51.9445 43.0221 51.961 43.339 51.796L48.5 49.108L53.66 51.8C54.2707 52.1173 55.0087 52.0603 55.5635 51.653C56.1183 51.2457 56.3937 50.5587 56.274 49.881L55.3 44.222L59.446 40.222C59.9477 39.7416 60.1283 39.0154 59.91 38.356Z" fill="#FF5E14"/>
<path d="M24.4999 47.1392C24.5481 47.139 24.5962 47.1353 24.6439 47.1282L28.4049 46.5872C28.7292 46.5407 29.0102 46.3382 29.1569 46.0452L30.8969 42.5662C31.1454 42.0719 30.9462 41.4698 30.4519 41.2212C29.9576 40.9727 29.3554 41.1719 29.1069 41.6662L27.6069 44.6772L24.3619 45.1442C23.8421 45.2183 23.4681 45.6817 23.5055 46.2054C23.5429 46.7291 23.9789 47.1347 24.5039 47.1342L24.4999 47.1392Z" fill="#0E121D"/>
</g>
<defs>
<clipPath id="clip0_439_142856">
<rect width="60" height="60" fill="white"/>
</clipPath>
</defs>
</svg>