<svg width="60" height="60" viewBox="0 0 60 60" fill="none" xmlns="http://www.w3.org/2000/svg">
<g clip-path="url(#clip0_439_142837)">
<path d="M38.9631 43.4132L38.114 38.4635C38.0217 37.9251 37.5105 37.5633 36.9721 37.656C36.4336 37.7483 36.0721 38.2596 36.1646 38.798L36.6748 41.7726L30.4599 38.5053C30.1716 38.3538 29.8275 38.3538 29.5395 38.5053L23.3247 41.7727L24.5115 34.8522C24.5666 34.5313 24.4602 34.204 24.2273 33.9768L19.1993 29.0758L26.1476 28.0661C26.6883 27.9876 27.0627 27.4858 26.9842 26.9451C26.9057 26.4044 26.4021 26.0299 25.8633 26.1086L16.9319 27.4064C16.5593 27.4605 16.2497 27.7214 16.1333 28.0794C16.0171 28.4374 16.1141 28.8306 16.3835 29.0933L22.4741 35.0302L21.0365 43.4133C20.9728 43.7842 21.1253 44.1593 21.4299 44.3806C21.7343 44.6017 22.138 44.631 22.4713 44.4559L29.9997 40.4979L37.5281 44.4559C37.6731 44.5319 37.8311 44.5694 37.9883 44.5694C38.1935 44.5694 38.3976 44.5056 38.5697 44.3803C38.8743 44.1591 39.0269 43.7841 38.9631 43.4132Z" fill="#0E121D"/>
<path d="M43.8667 28.0795C43.7504 27.7215 43.4408 27.4605 43.0682 27.4065L34.6512 26.1834L30.887 18.5562C30.7204 18.2186 30.3765 18.0049 30 18.0049C29.6235 18.0049 29.2798 18.2186 29.113 18.5562L26.8754 23.09C26.6343 23.5796 26.8354 24.1727 27.3251 24.4143C27.8152 24.6564 28.408 24.455 28.6497 23.9652L30.0002 21.2285L33.1076 27.5248C33.2517 27.8166 33.53 28.0191 33.8522 28.0659L40.8006 29.0756L35.7725 33.9766C35.3814 34.3578 35.3735 34.9841 35.7546 35.3751C35.9486 35.574 36.2055 35.6738 36.463 35.6738C36.7118 35.6738 36.9609 35.5804 37.1532 35.393L43.6163 29.0933C43.886 28.8305 43.9829 28.4376 43.8667 28.0795Z" fill="#0E121D"/>
<path d="M25.8504 52.1272C22.5202 51.3733 19.42 49.737 16.8679 47.4222C16.5487 47.0693 16.178 46.6974 15.7585 46.3365C15.3499 45.9049 14.9583 45.4546 14.5865 44.9858C12.8487 42.7951 11.5782 40.261 10.8367 37.5658C10.7732 37.2614 10.6951 36.9428 10.5995 36.6162C10.2563 35.0969 10.0781 33.5346 10.0781 31.96C10.0781 26.9516 11.8475 22.1212 15.0603 18.3584C15.1049 18.306 15.1433 18.2503 15.1751 18.1923C15.1778 18.1915 15.1804 18.191 15.1831 18.1901C16.3922 17.8002 19.3539 16.6041 20.7398 13.9261C22.1217 11.2554 21.4206 8.09873 21.0551 6.86533C20.9548 6.52701 20.7168 6.23779 20.4018 6.07174C20.0892 5.90674 19.719 5.87369 19.386 5.9808C18.1769 6.37068 15.2152 7.5667 13.8294 10.2448C12.4951 12.8235 13.1027 15.8548 13.4751 17.1708C12.4008 18.4433 11.4759 19.8249 10.7113 21.2882C10.602 20.4864 10.3804 19.6697 9.99099 18.8904C9.51814 17.9438 8.00619 15.6044 4.19068 14.3306C3.85494 14.2184 3.47959 14.2479 3.1606 14.4114C2.83869 14.576 2.59306 14.8665 2.48666 15.2081C2.08107 16.5074 1.29029 19.8352 2.70556 22.6678C3.17842 23.6144 4.69037 25.9537 8.50611 27.2276C8.53213 27.2363 8.55838 27.2433 8.58474 27.2503C8.26541 28.7881 8.10029 30.3656 8.10029 31.9599C8.10029 32.1371 8.10275 32.3142 8.10685 32.4911C7.18365 31.7018 5.00244 30.2922 1.29709 30.4058C0.943533 30.4167 0.601463 30.5742 0.358416 30.8378C0.113494 31.1037 -0.0165838 31.4612 0.00169742 31.8185C0.0703693 33.1778 0.479237 36.5738 2.78631 38.7423C3.53021 39.4412 5.62846 41.0215 9.38443 41.0215C9.5226 41.0215 9.66322 41.0194 9.80572 41.0151C9.85236 41.0137 9.899 41.0092 9.94506 41.0028C10.4324 42.1488 11.0119 43.2545 11.68 44.3062C10.4965 44.1174 7.87705 44.046 4.75623 46.118C4.4615 46.3136 4.25373 46.6276 4.18611 46.9798C4.11803 47.3347 4.19596 47.7072 4.39998 48.0017C5.17494 49.1206 7.31279 51.7908 10.416 52.4171C10.7317 52.4808 11.2076 52.5478 11.812 52.5478C13.1943 52.5477 15.2473 52.1963 17.579 50.6481C17.6072 50.6294 17.634 50.6085 17.6607 50.5878C19.9958 52.2371 22.631 53.4265 25.4135 54.0565C25.487 54.0731 25.5604 54.081 25.6327 54.081C26.0845 54.081 26.4925 53.7694 26.5965 53.3103C26.7174 52.7775 26.3832 52.248 25.8504 52.1272ZM15.5861 11.1539C16.4444 9.49514 18.2492 8.54674 19.3325 8.10541C19.5892 9.26815 19.8487 11.3439 18.983 13.017C18.1247 14.6758 16.3199 15.6242 15.2367 16.0655C14.9799 14.9028 14.7204 12.8271 15.5861 11.1539ZM8.50014 25.1147C7.35885 24.6448 5.38529 23.606 4.47498 21.7839C3.55541 19.9433 3.89842 17.6685 4.19678 16.4437C5.33795 16.9136 7.3115 17.9522 8.22182 19.7745V19.7746C9.14115 21.6149 8.79814 23.8901 8.50014 25.1147ZM4.14099 37.3009C2.64181 35.8917 2.17705 33.6388 2.03326 32.3862C3.26678 32.4326 5.47763 32.7249 6.96181 34.1197C7.86556 34.969 8.39162 36.1241 8.69994 37.1829C8.76017 37.4421 8.82556 37.7001 8.89459 37.9569C8.9792 38.3581 9.03428 38.7266 9.06955 39.0345C7.83603 38.9881 5.62506 38.6957 4.14099 37.3009ZM10.8079 50.4782C8.79134 50.0712 7.20861 48.4014 6.42603 47.413C7.49865 46.8022 9.53127 45.8848 11.5279 46.288C12.6496 46.5144 13.6366 47.1319 14.4269 47.8051C14.753 48.1449 15.089 48.4736 15.4346 48.7908C15.6149 48.9915 15.775 49.1828 15.91 49.3531C14.8374 49.964 12.8053 50.881 10.8079 50.4782Z" fill="#FF5E14"/>
<path d="M59.6412 30.8379C59.3982 30.5743 59.0562 30.4171 58.703 30.4062C54.998 30.2926 52.8162 31.7025 51.893 32.4916C51.8971 32.3147 51.8996 32.1376 51.8996 31.9602C51.8996 30.3659 51.7344 28.7884 51.4151 27.2507C51.4415 27.2436 51.4677 27.2367 51.4936 27.2279C55.3097 25.9539 56.8216 23.6147 57.2944 22.6682C58.7092 19.836 57.9188 16.5081 57.5132 15.2084C57.4066 14.8665 57.1606 14.5761 56.8392 14.4117C56.5203 14.2486 56.1451 14.2191 55.8094 14.331C51.9938 15.6047 50.4817 17.944 50.0088 18.8907C49.6194 19.67 49.3976 20.4867 49.2884 21.2884C48.524 19.8252 47.599 18.4436 46.5249 17.171C46.8974 15.8551 47.5051 12.8238 46.1706 10.245C44.7848 7.5668 41.8231 6.37079 40.6141 5.98102C40.2814 5.87356 39.911 5.90672 39.5979 6.07196C39.2831 6.23813 39.0451 6.52758 38.9451 6.86555C38.5795 8.09883 37.8785 11.2554 39.2603 13.9262C40.6462 16.6043 43.6079 17.8002 44.8169 18.1902C44.8195 18.191 44.8222 18.1915 44.8249 18.1924C44.8567 18.2504 44.8951 18.3062 44.9397 18.3586C48.1525 22.1214 49.9219 26.9518 49.9219 31.9602C49.9219 33.535 49.7438 35.0974 49.4004 36.6169C49.3049 36.9431 49.2269 37.2614 49.1635 37.5654C48.422 40.2609 47.1515 42.7952 45.4135 44.9861C45.0418 45.4546 44.6506 45.9047 44.2421 46.3359C43.822 46.6973 43.4507 47.0698 43.1313 47.4231C40.5795 49.7375 37.4795 51.3735 34.1497 52.1275C33.6169 52.2482 33.2829 52.7777 33.4035 53.3105C33.5075 53.7696 33.9153 54.0812 34.3673 54.0812C34.4397 54.0812 34.5129 54.0731 34.5865 54.0567C37.369 53.4266 40.0042 52.2372 42.3393 50.588C42.3658 50.6088 42.3924 50.6295 42.4206 50.6482C44.7531 52.1968 46.8056 52.5482 48.1879 52.5482C48.7919 52.5482 49.2681 52.481 49.5836 52.4174C52.6876 51.791 54.8249 49.1209 55.5999 48.002C55.8039 47.7075 55.8819 47.3352 55.8138 46.9801C55.7461 46.628 55.5384 46.3139 55.244 46.1187C52.1232 44.0466 49.5033 44.1179 48.32 44.3067C48.9881 43.2551 49.5676 42.1492 50.0549 41.0032C50.1011 41.0097 50.1475 41.014 50.1943 41.0155C50.3371 41.0199 50.4774 41.022 50.6156 41.022C54.3714 41.022 56.4701 39.4417 57.2137 38.7428C59.521 36.5742 59.9299 33.1784 59.9985 31.8189C60.0163 31.4611 59.8863 31.1034 59.6412 30.8379ZM44.7632 16.0657C43.6798 15.6245 41.8751 14.6761 41.017 13.0173C40.1513 11.3443 40.4105 9.26871 40.6675 8.10575C41.7509 8.54696 43.5555 9.49536 44.4138 11.1541C45.2793 12.8271 45.0202 14.9027 44.7632 16.0657ZM48.472 46.2884C50.4686 45.8856 52.5012 46.8025 53.574 47.4134C52.7917 48.4017 51.2089 50.0714 49.192 50.4785C47.1961 50.8809 45.1627 49.9644 44.0901 49.3535C44.2247 49.1834 44.3847 48.9924 44.5648 48.7917C44.9109 48.4739 45.2473 48.1446 45.574 47.8044C46.364 47.1315 47.3506 46.5147 48.472 46.2884ZM51.7782 19.7748C52.6886 17.9525 54.662 16.9139 55.8033 16.444C56.1013 17.669 56.4444 19.9439 55.5251 21.7842C54.6148 23.6061 52.6414 24.6449 51.5 25.115C51.2016 23.8904 50.8586 21.6155 51.7782 19.7748ZM55.8589 37.3013C54.3747 38.6963 52.1638 38.9884 50.9303 39.0348C50.9657 38.7268 51.0208 38.3582 51.1055 37.9567C51.1743 37.7005 51.2396 37.4431 51.2998 37.1843C51.608 36.1254 52.1343 34.9697 53.0384 34.1202C54.5226 32.7252 56.7333 32.4331 57.967 32.3866C57.8229 33.6389 57.3582 35.8921 55.8589 37.3013Z" fill="#FF5E14"/>
</g>
<defs>
<clipPath id="clip0_439_142837">
<rect width="60" height="60" fill="white"/>
</clipPath>
</defs>
</svg>