<svg width="170" height="66" viewBox="0 0 170 66" fill="none" xmlns="http://www.w3.org/2000/svg">
<path d="M43.3897 58.7399C39.8106 58.7399 36.1617 58.5292 32.8962 57.0403C24.7748 53.3372 19.8899 45.7321 19.8899 37.1671C19.8899 26.9315 28.0007 18.6358 38.0055 18.6358C44.0302 18.6358 49.3658 21.6462 52.6588 26.2739H58.5433C54.691 18.6868 46.9403 13.5046 38.0055 13.5046C25.2306 13.5046 14.874 24.0989 14.874 37.1671C14.874 48.8837 20.9051 58.6116 33.4162 62.6906C36.4141 63.6679 39.5903 63.8711 42.7387 63.8711H64.7766V58.7399H43.3897Z" fill="#0E121D"/>
<path d="M37.2223 38.5007H30.5708V31.6979H37.2223V38.5007Z" fill="#0E121D"/>
<path d="M45.4406 38.5007H38.7891V31.6979H45.4406V38.5007Z" fill="#0E121D"/>
<path d="M37.2223 46.9092H30.5708V40.1053H37.2223V46.9092Z" fill="#0E121D"/>
<path d="M45.4406 46.9092H38.7891V40.1053H45.4406V46.9092Z" fill="#0E121D"/>
<path d="M0 37.0084L34.8477 0V7.78309L7.22777 37.0084H0Z" fill="#0E121D"/>
<path d="M60.3059 26.2738L34.8477 0V7.78309L53.078 26.2738H60.3059Z" fill="#0E121D"/>
<path d="M30.8569 7.0968H37.8403L41.8309 12.6728V18.2489H25.8687V12.6728L30.8569 7.0968Z" fill="#0E121D"/>
<path d="M54 53.7928V28.2417H59.4084V38.8074H62.9897L68.5443 28.2417H74.3181L67.3018 41.0863L74.5374 53.7928H68.7635L62.9897 43.4343H59.4084V53.7928H54ZM87.4694 54C85.6179 54 83.9978 53.8389 82.6092 53.5166C81.2205 53.1713 80.0511 52.5498 79.101 51.6521C78.1753 50.7313 77.4809 49.4192 77.018 47.7158C76.5552 46.0124 76.3237 43.7911 76.3237 41.0518C76.3237 38.3125 76.5552 36.0912 77.018 34.3878C77.5053 32.6614 78.2118 31.3378 79.1376 30.417C80.0633 29.4962 81.2205 28.8632 82.6092 28.5179C83.9978 28.1726 85.6179 28 87.4694 28C89.321 28 90.9411 28.1726 92.3297 28.5179C93.7184 28.8632 94.8756 29.4962 95.8013 30.417C96.7271 31.3378 97.4214 32.6614 97.8843 34.3878C98.3472 36.0912 98.5786 38.3125 98.5786 41.0518C98.5786 43.7911 98.3472 46.0124 97.8843 47.7158C97.4214 49.4192 96.7271 50.7313 95.8013 51.6521C94.8756 52.5498 93.7184 53.1713 92.3297 53.5166C90.9411 53.8389 89.321 54 87.4694 54ZM87.4694 49.4077C88.5657 49.4077 89.4793 49.2926 90.2102 49.0624C90.9411 48.8322 91.5136 48.4294 91.9277 47.8539C92.3663 47.2554 92.683 46.4152 92.8779 45.3333C93.0728 44.2284 93.1702 42.8012 93.1702 41.0518C93.1702 39.2103 93.0728 37.7371 92.8779 36.6321C92.683 35.5272 92.3663 34.687 91.9277 34.1116C91.5136 33.5131 90.9411 33.1102 90.2102 32.9031C89.4793 32.6959 88.5657 32.5923 87.4694 32.5923C86.4219 32.5923 85.5326 32.6959 84.8018 32.9031C84.0709 33.1102 83.474 33.5131 83.0112 34.1116C82.5726 34.687 82.2437 35.5272 82.0245 36.6321C81.8296 37.7371 81.7321 39.2103 81.7321 41.0518C81.7321 42.8012 81.8174 44.2284 81.9879 45.3333C82.1828 46.4152 82.4995 47.2554 82.9381 47.8539C83.3766 48.4294 83.9613 48.8322 84.6921 49.0624C85.4474 49.2926 86.3731 49.4077 87.4694 49.4077ZM102.753 53.7928V28.2417H107.101L118.43 45.0916V28.2417H123.838V53.7928H119.489L108.198 36.9429V53.7928H102.753ZM133.964 53.7928V32.834H126.546V28.2417H146.828V32.834H139.373V53.7928H133.964ZM146.21 53.7928L154.688 28.2417H161.522L170 53.7928H164.372L162.655 48.4409H153.446L151.765 53.7928H146.21ZM154.725 43.8486H161.376L158.05 32.6268L154.725 43.8486Z" fill="white"/>
<path d="M70.4333 63.942C69.7749 63.942 69.2062 63.7831 68.7273 63.4655C68.2552 63.1411 67.896 62.7018 67.6499 62.1475C67.4038 61.5933 67.2808 60.9715 67.2808 60.2821C67.2808 59.5927 67.4038 58.9709 67.6499 58.4166C67.9026 57.8624 68.2651 57.4264 68.7373 57.1088C69.2162 56.7844 69.7815 56.6222 70.4333 56.6222C71.2314 56.6222 71.8866 56.852 72.3987 57.3116C72.9107 57.7711 73.2499 58.3829 73.4163 59.1466H72.4086C72.2889 58.6734 72.0528 58.2916 71.7003 58.001C71.3544 57.7103 70.9354 57.565 70.4433 57.565C69.7716 57.565 69.2561 57.8117 68.8969 58.3051C68.5378 58.7985 68.3582 59.4575 68.3582 60.2821C68.3582 61.1066 68.5378 61.7656 68.8969 62.259C69.2561 62.7525 69.7716 62.9991 70.4433 62.9991C70.9155 62.9991 71.3179 62.8673 71.6504 62.6037C71.9829 62.3401 72.2191 61.9988 72.3587 61.5798H73.3664C73.1868 62.2895 72.8443 62.8605 72.3388 63.2931C71.8333 63.7257 71.1982 63.942 70.4333 63.942ZM76.7884 63.942C76.2496 63.942 75.794 63.8135 75.4216 63.5567C75.0491 63.2999 74.7697 62.9619 74.5836 62.5429C74.404 62.1171 74.3142 61.6609 74.3142 61.1742C74.3142 60.6808 74.404 60.2246 74.5836 59.8056C74.7697 59.3798 75.0491 59.0384 75.4216 58.7816C75.794 58.518 76.2496 58.3862 76.7884 58.3862C77.3271 58.3862 77.7826 58.518 78.1551 58.7816C78.5276 59.0384 78.8069 59.3798 78.9932 59.8056C79.1793 60.2246 79.2725 60.6775 79.2725 61.1641C79.2725 61.6507 79.1793 62.107 78.9932 62.5328C78.8069 62.9518 78.5276 63.2931 78.1551 63.5567C77.7826 63.8135 77.3271 63.942 76.7884 63.942ZM76.7884 63.0701C77.2473 63.0701 77.603 62.8876 77.8559 62.5226C78.1152 62.1577 78.2449 61.7014 78.2449 61.154C78.2449 60.6065 78.1152 60.1536 77.8559 59.7954C77.603 59.4373 77.2473 59.2581 76.7884 59.2581C76.336 59.2581 75.9803 59.4406 75.7209 59.8056C75.4615 60.1638 75.3318 60.6133 75.3318 61.154C75.3318 61.7014 75.4581 62.1577 75.7109 62.5226C75.9703 62.8876 76.3295 63.0701 76.7884 63.0701ZM80.4277 58.5282H81.4652V59.4406H81.545C81.6714 59.1433 81.8776 58.8931 82.1636 58.6904C82.4496 58.4876 82.8021 58.3862 83.2211 58.3862C83.6734 58.3862 84.0458 58.4977 84.3384 58.7208C84.6311 58.937 84.8439 59.2176 84.9769 59.5623C85.11 59.9002 85.1764 60.2618 85.1764 60.6471V63.871H84.1489V60.7991C84.1489 60.3125 84.0259 59.9407 83.7797 59.6839C83.5403 59.4271 83.2211 59.2987 82.822 59.2987C82.403 59.2987 82.0705 59.4373 81.8244 59.7143C81.5849 59.9914 81.4652 60.353 81.4652 60.7991V63.871H80.4277V58.5282ZM88.343 63.942C87.9107 63.942 87.5383 63.8575 87.2256 63.6885C86.913 63.5195 86.6736 63.2999 86.5073 63.0295C86.3411 62.7525 86.2579 62.4651 86.2579 62.1678V62.1171H87.2755V62.1577C87.2755 62.401 87.3719 62.6207 87.5648 62.8166C87.7577 63.0059 88.0271 63.1005 88.3729 63.1005C88.6589 63.1005 88.895 63.0295 89.0812 62.8876C89.2675 62.7457 89.3605 62.553 89.3605 62.3097C89.3605 62.1002 89.2874 61.938 89.1411 61.8231C88.9948 61.7014 88.8085 61.6203 88.5824 61.5798L87.9239 61.4784C87.4984 61.4108 87.1358 61.2587 86.8365 61.0222C86.5372 60.7789 86.3876 60.4274 86.3876 59.9678C86.3876 59.4677 86.5639 59.079 86.9163 58.8019C87.2689 58.5248 87.7244 58.3862 88.2831 58.3862C88.6888 58.3862 89.0413 58.464 89.3406 58.6194C89.6399 58.7681 89.866 58.9675 90.019 59.2176C90.172 59.4677 90.2484 59.738 90.2484 60.0286V60.0692H89.2309V60.0489C89.2309 59.8461 89.151 59.6502 88.9914 59.4609C88.8318 59.2716 88.5858 59.177 88.2532 59.177C87.9738 59.177 87.7478 59.248 87.5748 59.3899C87.4019 59.5319 87.3154 59.7177 87.3154 59.9475C87.3154 60.1435 87.3886 60.3024 87.5349 60.424C87.6812 60.5457 87.8641 60.6234 88.0836 60.6572L88.8019 60.789C89.2408 60.8701 89.6067 61.029 89.8993 61.2655C90.1986 61.502 90.3482 61.8467 90.3482 62.2996C90.3482 62.624 90.2618 62.9112 90.0888 63.1613C89.9159 63.4115 89.6765 63.6041 89.3705 63.7392C89.0646 63.8744 88.7221 63.942 88.343 63.942ZM93.0331 59.3595V62.2185C93.0331 62.4686 93.043 62.6511 93.063 62.766C93.0896 62.8808 93.1528 62.9721 93.2525 63.0397C93.359 63.1073 93.5319 63.1411 93.7713 63.1411C93.9376 63.1411 94.1005 63.1208 94.2602 63.0802V63.8203C94.2136 63.8406 94.1038 63.8609 93.9309 63.8812C93.758 63.9014 93.5851 63.9116 93.4122 63.9116C92.9932 63.9116 92.6806 63.8507 92.4744 63.7291C92.2682 63.6006 92.1352 63.4384 92.0753 63.2425C92.0221 63.0397 91.9955 62.7761 91.9955 62.4517L92.0055 59.3595H91.0577V58.5282H92.0055V56.7742H93.0331V58.5282H94.2602V59.3595H93.0331ZM95.4408 58.5282H96.4683V59.3798H96.5282C96.6147 59.1433 96.7676 58.9438 96.9871 58.7816C97.2133 58.6126 97.5026 58.5282 97.8551 58.5282C97.9482 58.5282 98.028 58.5315 98.0945 58.5383C98.161 58.5451 98.2276 58.5619 98.294 58.589L98.2541 59.5825C98.0745 59.5285 97.8884 59.5014 97.6954 59.5014C97.3031 59.5014 97.0005 59.6163 96.7876 59.8461C96.5748 60.0692 96.4683 60.4409 96.4683 60.9613V63.871H95.4408V58.5282ZM104.036 63.871H102.998V62.9079H102.928C102.796 63.2052 102.589 63.4554 102.31 63.6581C102.031 63.8609 101.691 63.9623 101.292 63.9623C100.84 63.9623 100.471 63.8541 100.185 63.6378C99.9056 63.4148 99.7031 63.1343 99.5764 62.7964C99.45 62.4517 99.3868 62.09 99.3868 61.7116V58.5282H100.414V61.5595C100.414 62.0327 100.531 62.401 100.764 62.6646C100.996 62.9282 101.305 63.06 101.691 63.06C102.097 63.06 102.417 62.9214 102.649 62.6443C102.882 62.3604 102.998 61.9988 102.998 61.5595V58.5282H104.036V63.871ZM107.634 63.9521C107.082 63.9521 106.62 63.8203 106.248 63.5567C105.874 63.2931 105.595 62.9518 105.41 62.5328C105.23 62.107 105.14 61.6507 105.14 61.1641C105.14 60.6843 105.23 60.2347 105.41 59.8157C105.595 59.3899 105.874 59.0452 106.248 58.7816C106.62 58.518 107.082 58.3862 107.634 58.3862C108.319 58.3862 108.861 58.589 109.26 58.9945C109.66 59.3933 109.899 59.89 109.979 60.4848H108.971C108.911 60.1199 108.768 59.8259 108.542 59.6028C108.323 59.373 108.023 59.2581 107.644 59.2581C107.151 59.2581 106.782 59.4406 106.537 59.8056C106.291 60.1706 106.168 60.6234 106.168 61.1641C106.168 61.7048 106.291 62.1577 106.537 62.5226C106.782 62.8876 107.151 63.0701 107.644 63.0701C108.023 63.0701 108.323 62.9586 108.542 62.7355C108.768 62.5125 108.911 62.2185 108.971 61.8535H109.979C109.899 62.4483 109.66 62.9484 109.26 63.354C108.861 63.7527 108.319 63.9521 107.634 63.9521ZM112.683 59.3595V62.2185C112.683 62.4686 112.693 62.6511 112.713 62.766C112.74 62.8808 112.803 62.9721 112.903 63.0397C113.01 63.1073 113.182 63.1411 113.422 63.1411C113.588 63.1411 113.751 63.1208 113.91 63.0802V63.8203C113.865 63.8406 113.755 63.8609 113.581 63.8812C113.409 63.9014 113.236 63.9116 113.062 63.9116C112.643 63.9116 112.331 63.8507 112.125 63.7291C111.919 63.6006 111.786 63.4384 111.726 63.2425C111.673 63.0397 111.646 62.7761 111.646 62.4517L111.656 59.3595H110.708V58.5282H111.656V56.7742H112.683V58.5282H113.91V59.3595H112.683ZM115.201 58.5282H116.229V63.871H115.201V58.5282ZM115.71 57.5549C115.531 57.5549 115.381 57.4941 115.261 57.3724C115.142 57.2507 115.082 57.0987 115.082 56.9162C115.082 56.7337 115.142 56.5816 115.261 56.46C115.381 56.3383 115.531 56.2775 115.71 56.2775C115.89 56.2775 116.039 56.3416 116.159 56.4701C116.279 56.5918 116.339 56.7405 116.339 56.9162C116.339 57.0919 116.279 57.244 116.159 57.3724C116.039 57.4941 115.89 57.5549 115.71 57.5549ZM119.967 63.942C119.428 63.942 118.974 63.8135 118.6 63.5567C118.228 63.2999 117.949 62.9619 117.762 62.5429C117.583 62.1171 117.493 61.6609 117.493 61.1742C117.493 60.6808 117.583 60.2246 117.762 59.8056C117.949 59.3798 118.228 59.0384 118.6 58.7816C118.974 58.518 119.428 58.3862 119.967 58.3862C120.506 58.3862 120.962 58.518 121.334 58.7816C121.707 59.0384 121.986 59.3798 122.172 59.8056C122.359 60.2246 122.451 60.6775 122.451 61.1641C122.451 61.6507 122.359 62.107 122.172 62.5328C121.986 62.9518 121.707 63.2931 121.334 63.5567C120.962 63.8135 120.506 63.942 119.967 63.942ZM119.967 63.0701C120.426 63.0701 120.782 62.8876 121.035 62.5226C121.294 62.1577 121.424 61.7014 121.424 61.154C121.424 60.6065 121.294 60.1536 121.035 59.7954C120.782 59.4373 120.426 59.2581 119.967 59.2581C119.515 59.2581 119.159 59.4406 118.9 59.8056C118.64 60.1638 118.511 60.6133 118.511 61.154C118.511 61.7014 118.637 62.1577 118.89 62.5226C119.149 62.8876 119.508 63.0701 119.967 63.0701ZM123.607 58.5282H124.644V59.4406H124.724C124.851 59.1433 125.057 58.8931 125.342 58.6904C125.629 58.4876 125.981 58.3862 126.4 58.3862C126.853 58.3862 127.225 58.4977 127.517 58.7208C127.811 58.937 128.023 59.2176 128.156 59.5623C128.289 59.9002 128.355 60.2618 128.355 60.6471V63.871H127.328V60.7991C127.328 60.3125 127.205 59.9407 126.959 59.6839C126.719 59.4271 126.4 59.2987 126.001 59.2987C125.582 59.2987 125.25 59.4373 125.003 59.7143C124.764 59.9914 124.644 60.353 124.644 60.7991V63.871H123.607V58.5282ZM132.016 56.7742H133.063V63.871H132.016V56.7742ZM134.548 58.5282H135.585V59.4406H135.665C135.792 59.1433 135.997 58.8931 136.284 58.6904C136.57 58.4876 136.922 58.3862 137.341 58.3862C137.793 58.3862 138.166 58.4977 138.458 58.7208C138.751 58.937 138.964 59.2176 139.097 59.5623C139.23 59.9002 139.296 60.2618 139.296 60.6471V63.871H138.269V60.7991C138.269 60.3125 138.146 59.9407 137.9 59.6839C137.66 59.4271 137.341 59.2987 136.942 59.2987C136.523 59.2987 136.191 59.4373 135.944 59.7143C135.705 59.9914 135.585 60.353 135.585 60.7991V63.871H134.548V58.5282ZM142.582 63.942C142.13 63.942 141.741 63.8237 141.414 63.5872C141.089 63.3506 140.84 63.0228 140.666 62.6037C140.501 62.1847 140.417 61.7082 140.417 61.1742C140.417 60.6336 140.501 60.1536 140.666 59.7346C140.84 59.3156 141.089 58.9877 141.414 58.7512C141.748 58.5079 142.143 58.3862 142.602 58.3862C143.061 58.3862 143.427 58.4944 143.699 58.7107C143.972 58.9269 144.178 59.177 144.318 59.4609H144.387V56.2673H145.435V63.871H144.387V62.8369H144.318C144.172 63.1343 143.958 63.3945 143.679 63.6176C143.4 63.8338 143.035 63.942 142.582 63.942ZM142.921 63.0701C143.394 63.0701 143.753 62.8876 143.998 62.5226C144.252 62.1577 144.377 61.7082 144.377 61.1742C144.377 60.6403 144.252 60.1908 143.998 59.8259C143.753 59.4609 143.394 59.2784 142.921 59.2784C142.436 59.2784 142.073 59.4609 141.833 59.8259C141.594 60.184 141.474 60.6301 141.474 61.1641C141.474 61.7048 141.594 62.1577 141.833 62.5226C142.08 62.8876 142.442 63.0701 142.921 63.0701ZM151.453 63.871H150.415V62.9079H150.345C150.213 63.2052 150.006 63.4554 149.727 63.6581C149.447 63.8609 149.108 63.9623 148.709 63.9623C148.257 63.9623 147.888 63.8541 147.602 63.6378C147.322 63.4148 147.12 63.1343 146.993 62.7964C146.868 62.4517 146.804 62.09 146.804 61.7116V58.5282H147.831V61.5595C147.831 62.0327 147.948 62.401 148.18 62.6646C148.414 62.9282 148.723 63.06 149.108 63.06C149.514 63.06 149.834 62.9214 150.066 62.6443C150.299 62.3604 150.415 61.9988 150.415 61.5595V58.5282H151.453V63.871ZM154.612 63.942C154.179 63.942 153.807 63.8575 153.495 63.6885C153.182 63.5195 152.942 63.2999 152.777 63.0295C152.61 62.7525 152.527 62.4651 152.527 62.1678V62.1171H153.545V62.1577C153.545 62.401 153.641 62.6207 153.834 62.8166C154.027 63.0059 154.296 63.1005 154.642 63.1005C154.927 63.1005 155.164 63.0295 155.35 62.8876C155.536 62.7457 155.63 62.553 155.63 62.3097C155.63 62.1002 155.556 61.938 155.41 61.8231C155.264 61.7014 155.077 61.6203 154.852 61.5798L154.193 61.4784C153.767 61.4108 153.405 61.2587 153.106 61.0222C152.806 60.7789 152.657 60.4274 152.657 59.9678C152.657 59.4677 152.832 59.079 153.186 58.8019C153.538 58.5248 153.994 58.3862 154.552 58.3862C154.957 58.3862 155.311 58.464 155.61 58.6194C155.909 58.7681 156.135 58.9675 156.288 59.2176C156.441 59.4677 156.518 59.738 156.518 60.0286V60.0692H155.5V60.0489C155.5 59.8461 155.42 59.6502 155.261 59.4609C155.101 59.2716 154.855 59.177 154.522 59.177C154.243 59.177 154.017 59.248 153.844 59.3899C153.67 59.5319 153.585 59.7177 153.585 59.9475C153.585 60.1435 153.657 60.3024 153.804 60.424C153.95 60.5457 154.133 60.6234 154.353 60.6572L155.071 60.789C155.51 60.8701 155.875 61.029 156.169 61.2655C156.468 61.502 156.617 61.8467 156.617 62.2996C156.617 62.624 156.531 62.9112 156.358 63.1613C156.185 63.4115 155.945 63.6041 155.64 63.7392C155.334 63.8744 154.991 63.942 154.612 63.942ZM159.302 59.3595V62.2185C159.302 62.4686 159.312 62.6511 159.332 62.766C159.359 62.8808 159.422 62.9721 159.522 63.0397C159.628 63.1073 159.801 63.1411 160.04 63.1411C160.207 63.1411 160.37 63.1208 160.529 63.0802V63.8203C160.482 63.8406 160.373 63.8609 160.2 63.8812C160.027 63.9014 159.854 63.9116 159.681 63.9116C159.262 63.9116 158.95 63.8507 158.743 63.7291C158.537 63.6006 158.404 63.4384 158.344 63.2425C158.292 63.0397 158.265 62.7761 158.265 62.4517L158.275 59.3595H157.327V58.5282H158.275V56.7742H159.302V58.5282H160.529V59.3595H159.302ZM161.709 58.5282H162.737V59.3798H162.797C162.884 59.1433 163.036 58.9438 163.256 58.7816C163.482 58.6126 163.772 58.5282 164.124 58.5282C164.218 58.5282 164.297 58.5315 164.363 58.5383C164.43 58.5451 164.497 58.5619 164.563 58.589L164.523 59.5825C164.343 59.5285 164.158 59.5014 163.964 59.5014C163.572 59.5014 163.27 59.6163 163.056 59.8461C162.844 60.0692 162.737 60.4409 162.737 60.9613V63.871H161.709V58.5282ZM167.596 64.6213C167.49 64.8781 167.386 65.091 167.286 65.26C167.186 65.4357 167.017 65.6013 166.777 65.7567C166.545 65.9189 166.239 66.0001 165.86 66.0001C165.66 66.0001 165.448 65.973 165.221 65.9189V65.1586C165.381 65.1856 165.52 65.1991 165.64 65.1991C165.86 65.1991 166.036 65.1586 166.169 65.0775C166.303 64.9964 166.405 64.8882 166.478 64.753C166.558 64.6246 166.648 64.4388 166.748 64.1954L166.967 63.6581L165.032 58.5282H166.099L167.456 62.4922H167.516L168.942 58.5282H170L167.596 64.6213Z" fill="#0E121D"/>
</svg>