<svg width="60" height="60" viewBox="0 0 60 60" fill="none" xmlns="http://www.w3.org/2000/svg">
<g clip-path="url(#clip0_439_148249)">
<path d="M49.6577 60.0003H42.5098C41.7979 60.0003 41.2207 59.4231 41.2207 58.7112V47.9893C41.2207 47.2773 41.7979 46.7002 42.5098 46.7002H49.6577C50.3696 46.7002 50.9468 47.2773 50.9468 47.9893V58.7112C50.9468 59.4231 50.3696 60.0003 49.6577 60.0003ZM43.7988 57.4221H48.3687V49.2783H43.7988V57.4221Z" fill="#0E121D"/>
<path d="M46.084 24.2604C45.3721 24.2604 44.7949 23.6832 44.7949 22.9713V15.5856C44.7949 14.8737 45.3721 14.2965 46.084 14.2965C46.7959 14.2965 47.373 14.8737 47.373 15.5856V22.9713C47.373 23.6833 46.7959 24.2604 46.084 24.2604Z" fill="#FF5E14"/>
<path d="M58.593 34.9824H33.5751C32.3889 34.981 31.8303 33.494 32.7361 32.7146L45.2451 21.9925C45.7279 21.5789 46.4401 21.5788 46.9228 21.9925L59.4318 32.7145C60.3319 33.4891 59.7879 34.9795 58.593 34.9824ZM37.0598 32.4043H55.1083L46.084 24.6692L37.0598 32.4043Z" fill="#0E121D"/>
<path d="M8.55701 59.1344C7.42545 59.1409 6.8326 57.7422 7.64553 56.9338L17.0986 47.4808L7.76459 38.1469C7.26326 37.6455 7.26092 36.8332 7.75943 36.329L17.3815 26.5979L7.64529 16.7496C7.14478 16.2434 7.14947 15.4272 7.65572 14.9267C8.16197 14.4262 8.97818 14.4308 9.47869 14.9371L20.1109 25.6917C20.6074 26.194 20.6073 27.0022 20.1108 27.5044L10.4939 37.2303L19.8329 46.5693C20.3362 47.0727 20.3362 47.8889 19.8329 48.3924L9.46849 58.7569C9.21678 59.0086 8.88689 59.1344 8.55701 59.1344Z" fill="#FF5E14"/>
<path d="M46.9954 14.6736L39.8474 7.52567C39.6056 7.28392 39.2777 7.1481 38.9359 7.1481H20.5682V1.28931C20.5682 0.577393 19.991 0.000244141 19.2791 0.000244141H8.55715C7.84523 0.000244141 7.26809 0.577393 7.26809 1.28931V7.14821H1.40918C0.697266 7.14821 0.120117 7.72536 0.120117 8.43728V15.5852C0.120117 16.2972 0.697266 16.8743 1.40918 16.8743H7.26809V57.422H1.88566C1.17375 57.422 0.596602 57.9991 0.596602 58.7111C0.596602 59.423 1.17375 60.0001 1.88566 60.0001C5.87742 60.0001 15.1996 60.0001 19.2791 60.0001H25.9506C26.6625 60.0001 27.2396 59.423 27.2396 58.7111C27.2396 57.9991 26.6625 57.422 25.9506 57.422H20.5682V16.8742H46.0839C47.2219 16.8788 47.8046 15.4766 46.9954 14.6736ZM9.84621 2.57837H17.99V7.14821H9.84621V2.57837ZM17.99 9.72634V14.2962H9.84621V9.72634H17.99ZM2.69824 14.2961V9.72634H7.26809V14.2962L2.69824 14.2961ZM17.99 57.422H9.84621V16.8742H17.99V57.422ZM20.5682 14.2961V9.72634H38.4019L42.9718 14.2962L20.5682 14.2961Z" fill="#FF5E14"/>
<path d="M56.8054 60.0003H35.3613C34.6494 60.0003 34.0723 59.4231 34.0723 58.7112V40.8413C34.0723 40.1294 34.6494 39.5522 35.3613 39.5522H56.8052C57.5171 39.5522 58.0943 40.1294 58.0943 40.8413V58.7112C58.0944 59.4231 57.5173 60.0003 56.8054 60.0003ZM36.6504 57.4222H55.5162V42.1304H36.6504V57.4222Z" fill="#0E121D"/>
</g>
<defs>
<clipPath id="clip0_439_148249">
<rect width="60" height="60" fill="white" transform="translate(0 0.000244141)"/>
</clipPath>
</defs>
</svg>