<svg width="60" height="60" viewBox="0 0 60 60" fill="none" xmlns="http://www.w3.org/2000/svg">
<path d="M54.3311 52.5557C53.6191 52.5557 53.042 53.1328 53.042 53.8447C53.042 55.8172 51.4372 57.4219 49.4648 57.4219C47.4923 57.4219 45.8877 55.8171 45.8877 53.8447V48.9785C45.8877 45.5845 43.1264 42.8232 39.7324 42.8232C39.0205 42.8232 38.4434 43.4004 38.4434 44.1123C38.4434 44.8242 39.0205 45.4014 39.7324 45.4014C41.7048 45.4014 43.3096 47.0061 43.3096 48.9785V53.8447C43.3096 57.2387 46.0709 60 49.4648 60C52.8588 60 55.6201 57.2387 55.6201 53.8447C55.6201 53.1327 55.043 52.5557 54.3311 52.5557Z" fill="#0E121D"/>
<path d="M20.2676 42.8231C16.8736 42.8231 14.1123 45.5844 14.1123 48.9784V53.8446C14.1123 55.8171 12.5075 57.4218 10.5352 57.4218C8.56266 57.4218 6.95801 55.817 6.95801 53.8446C6.95801 53.1327 6.38086 52.5555 5.66895 52.5555C4.95703 52.5555 4.37988 53.1327 4.37988 53.8446C4.37988 57.2386 7.14117 59.9999 10.5352 59.9999C13.9291 59.9999 16.6904 57.2386 16.6904 53.8446V48.9784C16.6904 47.006 18.2952 45.4012 20.2676 45.4012C20.9795 45.4012 21.5566 44.8241 21.5566 44.1122C21.5566 43.4003 20.9795 42.8231 20.2676 42.8231Z" fill="#0E121D"/>
<path d="M54.3315 33.0905H36.1555V29.5133C36.1555 26.5613 34.0664 24.0891 31.2893 23.4949V15.8879C31.2893 15.176 30.7121 15.5098 30.0002 15.5098C29.2883 15.5098 28.7112 15.176 28.7112 15.8879V23.4949C25.9341 24.0891 23.845 26.5614 23.845 29.5133V33.0905H5.66895C4.95703 33.0905 4.37988 33.6677 4.37988 34.3796C4.37988 35.0915 4.95703 35.6687 5.66895 35.6687H9.24609V39.2458C9.24609 42.6398 12.0074 45.4011 15.4014 45.4011H44.5989C47.9929 45.4011 50.7541 42.6398 50.7541 39.2458V35.6687H54.3313C55.0432 35.6687 55.6204 35.0915 55.6204 34.3796C55.6206 33.6677 55.0434 33.0905 54.3315 33.0905ZM26.4231 29.5133C26.4231 27.5408 28.0279 25.9361 30.0002 25.9361C31.9726 25.9361 33.5774 27.5409 33.5774 29.5133V33.0905H26.423V29.5133H26.4231ZM48.1763 39.2458C48.1763 41.2183 46.5715 42.823 44.5991 42.823H15.4015C13.429 42.823 11.8243 41.2182 11.8243 39.2458V35.6687H48.1763V39.2458Z" fill="#FF5E14"/>
<path d="M44.9051 17.1769H15.4014C14.9259 17.1769 14.4892 16.9152 14.2649 16.496C14.0405 16.0768 14.0651 15.5682 14.3289 15.1727L24.0613 0.573984C24.3004 0.215391 24.7029 0 25.1338 0H35.1724C35.6034 0 36.0059 0.215391 36.2449 0.573984L45.9775 15.1727C46.2413 15.5684 46.2659 16.0768 46.0415 16.496C45.8173 16.9152 45.3804 17.1769 44.9051 17.1769ZM17.8099 14.5988H42.4963L34.4826 2.57813H25.8237L17.8099 14.5988Z" fill="#0E121D"/>
</svg>