<svg width="60" height="60" viewBox="0 0 60 60" fill="none" xmlns="http://www.w3.org/2000/svg">
<path d="M16.875 14.5315C16.8744 14.0344 16.6767 13.5578 16.3252 13.2063C15.9737 12.8548 15.4971 12.6571 15 12.6565H11.25C10.7529 12.6571 10.2763 12.8548 9.9248 13.2063C9.5733 13.5578 9.37557 14.0344 9.375 14.5315V17.344C9.37557 17.8411 9.5733 18.3177 9.9248 18.6692C10.2763 19.0207 10.7529 19.2184 11.25 19.219H15C15.4971 19.2184 15.9737 19.0207 16.3252 18.6692C16.6767 18.3177 16.8744 17.8411 16.875 17.344V14.5315ZM11.25 17.344V14.5315H15L15.0009 17.344H11.25Z" fill="#FF5E14"/>
<path d="M28.125 14.5315C28.1244 14.0344 27.9267 13.5578 27.5752 13.2063C27.2237 12.8548 26.7471 12.6571 26.25 12.6565H22.5C22.0029 12.6571 21.5263 12.8548 21.1748 13.2063C20.8233 13.5578 20.6256 14.0344 20.625 14.5315V17.344C20.6256 17.8411 20.8233 18.3177 21.1748 18.6692C21.5263 19.0207 22.0029 19.2184 22.5 19.219H26.25C26.7471 19.2184 27.2237 19.0207 27.5752 18.6692C27.9267 18.3177 28.1244 17.8411 28.125 17.344V14.5315ZM22.5 17.344V14.5315H26.25L26.2509 17.344H22.5Z" fill="#FF5E14"/>
<path d="M16.875 22.969C16.8744 22.4719 16.6767 21.9953 16.3252 21.6438C15.9737 21.2923 15.4971 21.0946 15 21.094H11.25C10.7529 21.0946 10.2763 21.2923 9.9248 21.6438C9.5733 21.9953 9.37557 22.4719 9.375 22.969V25.7815C9.37557 26.2786 9.5733 26.7552 9.9248 27.1067C10.2763 27.4582 10.7529 27.6559 11.25 27.6565H15C15.4971 27.6559 15.9737 27.4582 16.3252 27.1067C16.6767 26.7552 16.8744 26.2786 16.875 25.7815V22.969ZM11.25 25.7815V22.969H15L15.0009 25.7815H11.25Z" fill="#FF5E14"/>
<path d="M28.125 22.969C28.1244 22.4719 27.9267 21.9953 27.5752 21.6438C27.2237 21.2923 26.7471 21.0946 26.25 21.094H22.5C22.0029 21.0946 21.5263 21.2923 21.1748 21.6438C20.8233 21.9953 20.6256 22.4719 20.625 22.969V25.7815C20.6256 26.2786 20.8233 26.7552 21.1748 27.1067C21.5263 27.4582 22.0029 27.6559 22.5 27.6565H26.25C26.7471 27.6559 27.2237 27.4582 27.5752 27.1067C27.9267 26.7552 28.1244 26.2786 28.125 25.7815V22.969ZM22.5 25.7815V22.969H26.25L26.2509 25.7815H22.5Z" fill="#FF5E14"/>
<path d="M15 29.5315H11.25C10.7529 29.5321 10.2763 29.7298 9.9248 30.0813C9.5733 30.4328 9.37557 30.9094 9.375 31.4065V34.219C9.37557 34.7161 9.5733 35.1927 9.9248 35.5442C10.2763 35.8957 10.7529 36.0934 11.25 36.094H15C15.4971 36.0934 15.9737 35.8957 16.3252 35.5442C16.6767 35.1927 16.8744 34.7161 16.875 34.219V31.4065C16.8744 30.9094 16.6767 30.4328 16.3252 30.0813C15.9737 29.7298 15.4971 29.5321 15 29.5315ZM11.25 34.219V31.4065H15L15.0009 34.219H11.25Z" fill="#FF5E14"/>
<path d="M26.25 29.5315H22.5C22.0029 29.5321 21.5263 29.7298 21.1748 30.0813C20.8233 30.4328 20.6256 30.9094 20.625 31.4065V34.219C20.6256 34.7161 20.8233 35.1927 21.1748 35.5442C21.5263 35.8957 22.0029 36.0934 22.5 36.094H26.25C26.7471 36.0934 27.2237 35.8957 27.5752 35.5442C27.9267 35.1927 28.1244 34.7161 28.125 34.219V31.4065C28.1244 30.9094 27.9267 30.4328 27.5752 30.0813C27.2237 29.7298 26.7471 29.5321 26.25 29.5315ZM22.5 34.219V31.4065H26.25L26.2509 34.219H22.5Z" fill="#FF5E14"/>
<path d="M58.1255 28.594C58.1255 28.4709 58.1013 28.3489 58.0542 28.2352C58.0071 28.1214 57.938 28.0181 57.8509 27.931C57.7639 27.8439 57.6605 27.7749 57.5468 27.7278C57.433 27.6807 57.3111 27.6565 57.188 27.6565H30.938C30.6918 27.6642 30.4578 27.7654 30.2836 27.9396C30.1094 28.1138 30.0082 28.3478 30.0005 28.594V46.5396C29.3229 46.7161 28.7084 47.079 28.2268 47.5872C27.7451 48.0954 27.4156 48.7284 27.2757 49.4145C27.1358 50.1005 27.1911 50.812 27.4352 51.4682C27.6794 52.1244 28.1027 52.699 28.657 53.1267C29.2113 53.5545 29.8745 53.8182 30.5711 53.8879C31.2678 53.9577 31.9701 53.8306 32.5982 53.5213C33.2263 53.2119 33.7551 52.7327 34.1245 52.1379C34.4939 51.5431 34.6891 50.8567 34.688 50.1565C34.6833 49.9109 34.5825 49.677 34.4072 49.505C34.2318 49.333 33.996 49.2366 33.7504 49.2366C33.5048 49.2367 33.269 49.333 33.0937 49.505C32.9184 49.6771 32.8176 49.911 32.813 50.1566C32.813 50.5274 32.703 50.8899 32.4969 51.1982C32.2909 51.5066 31.9981 51.7469 31.6555 51.8888C31.3128 52.0307 30.9358 52.0678 30.5721 51.9955C30.2084 51.9231 29.8743 51.7445 29.6121 51.4823C29.3499 51.2201 29.1713 50.886 29.099 50.5223C29.0266 50.1586 29.0638 49.7816 29.2057 49.4389C29.3476 49.0963 29.5879 48.8035 29.8963 48.5975C30.2046 48.3915 30.5671 48.2815 30.938 48.2815C31.0611 48.2815 31.183 48.2573 31.2968 48.2102C31.4105 48.1631 31.5139 48.094 31.601 48.007C31.688 47.9199 31.7571 47.8166 31.8042 47.7028C31.8513 47.589 31.8755 47.4671 31.8755 47.344V35.1565H47.2468C47.2468 35.1565 43.17 53.772 43.1694 53.9065H40.313C40.0676 53.9114 39.8339 54.0124 39.6621 54.1876C39.4903 54.3629 39.3941 54.5986 39.3941 54.844C39.3941 55.0895 39.4903 55.3251 39.6621 55.5004C39.8339 55.6757 40.0676 55.7766 40.313 55.7815H57.188C57.3204 55.7783 57.4508 55.7473 57.5705 55.6907C57.6903 55.634 57.7969 55.5529 57.8835 55.4526C57.9701 55.3523 58.0347 55.2349 58.0731 55.1081C58.1116 54.9813 58.1231 54.8479 58.1069 54.7164C58.0906 54.5849 58.0471 54.4582 57.9789 54.3446C57.9108 54.2309 57.8196 54.1328 57.7113 54.0565C57.6029 53.9802 57.4798 53.9274 57.3499 53.9016C57.2199 53.8758 57.086 53.8774 56.9567 53.9065C56.9561 53.7738 52.879 35.1565 52.879 35.1565H57.188C57.4341 35.1486 57.668 35.0474 57.8422 34.8732C58.0163 34.6991 58.1176 34.4651 58.1255 34.219V28.594ZM56.2505 31.8419L54.0927 29.5315H56.2505V31.8419ZM48.8395 33.2815L51.9346 29.9677L55.0298 33.2815H48.8395ZM41.4317 29.9682L44.5239 33.2815H38.3421L41.4317 29.9682ZM36.1857 32.8448L33.0948 29.5315H39.2754L36.1857 32.8448ZM43.5891 29.5315H49.7765L46.6814 32.8452L43.5891 29.5315ZM31.8755 30.9734L34.0288 33.2815H31.8755V30.9734ZM55.0877 53.9065C53.3072 53.9058 46.8709 53.9138 45.0454 53.9065L49.1664 35.1565H50.9596L55.0877 53.9065Z" fill="#0E121D"/>
<path d="M27.6938 46.4065C27.6938 46.2834 27.6696 46.1614 27.6225 46.0477C27.5753 45.9339 27.5063 45.8306 27.4192 45.7435C27.3322 45.6564 27.2288 45.5874 27.1151 45.5403C27.0013 45.4932 26.8794 45.469 26.7563 45.469H23.4375V38.9065C23.4375 38.7834 23.4133 38.6614 23.3662 38.5477C23.3191 38.4339 23.25 38.3306 23.163 38.2435C23.0759 38.1564 22.9726 38.0874 22.8588 38.0403C22.745 37.9932 22.6231 37.969 22.5 37.969H15C14.8769 37.969 14.755 37.9932 14.6412 38.0403C14.5274 38.0874 14.4241 38.1564 14.337 38.2435C14.25 38.3306 14.1809 38.4339 14.1338 38.5477C14.0867 38.6614 14.0625 38.7834 14.0625 38.9065V45.469H5.625V9.84399H31.875V25.7815C31.875 26.0301 31.9738 26.2686 32.1496 26.4444C32.3254 26.6202 32.5639 26.719 32.8125 26.719C33.0611 26.719 33.2996 26.6202 33.4754 26.4444C33.6512 26.2686 33.75 26.0301 33.75 25.7815V17.344H42.1875V25.7815C42.1875 26.0301 42.2863 26.2686 42.4621 26.4444C42.6379 26.6202 42.8764 26.719 43.125 26.719C43.3736 26.719 43.6121 26.6202 43.7879 26.4444C43.9637 26.2686 44.0625 26.0301 44.0625 25.7815V17.344C44.5596 17.3434 45.0362 17.1457 45.3877 16.7942C45.7392 16.4427 45.9369 15.9661 45.9375 15.469V13.594C45.9369 13.0969 45.7392 12.6203 45.3877 12.2688C45.0362 11.9173 44.5596 11.7196 44.0625 11.719H33.75V9.84399C34.2471 9.84343 34.7237 9.6457 35.0752 9.29419C35.4267 8.94268 35.6244 8.4661 35.625 7.96899V6.09399C35.6244 5.59689 35.4267 5.1203 35.0752 4.7688C34.7237 4.41729 34.2471 4.21956 33.75 4.21899H3.75C3.25289 4.21956 2.77631 4.41729 2.4248 4.7688C2.07329 5.1203 1.87557 5.59689 1.875 6.09399V7.96899C1.87557 8.4661 2.07329 8.94268 2.4248 9.29419C2.77631 9.6457 3.25289 9.84343 3.75 9.84399V45.469H2.8125C2.56702 45.4738 2.33322 45.5747 2.16132 45.75C1.98941 45.9253 1.89312 46.161 1.89313 46.4065C1.89314 46.6521 1.98945 46.8878 2.16136 47.0631C2.33328 47.2383 2.56709 47.3392 2.81257 47.344H26.7563C26.8794 47.344 27.0013 47.3198 27.1151 47.2727C27.2288 47.2256 27.3322 47.1565 27.4192 47.0695C27.5063 46.9824 27.5753 46.8791 27.6225 46.7653C27.6696 46.6515 27.6938 46.5296 27.6938 46.4065ZM44.0625 13.594V15.469H33.75V13.594H44.0625ZM3.75 6.09399H33.75L33.7509 7.96899H3.75V6.09399ZM15.9375 45.469V39.844H21.5625V45.469H15.9375Z" fill="#FF5E14"/>
</svg>